<?xml version="1.0" encoding="utf-8" standalone="no"?>
<!DOCTYPE svg PUBLIC "-//W3C//DTD SVG 1.1//EN"
  "http://www.w3.org/Graphics/SVG/1.1/DTD/svg11.dtd">
<!-- Created with matplotlib (https://matplotlib.org/) -->
<svg height="339.50675pt" version="1.1" viewBox="0 0 425.016562 339.50675" width="425.016562pt" xmlns="http://www.w3.org/2000/svg" xmlns:xlink="http://www.w3.org/1999/xlink">
 <defs>
  <style type="text/css">
*{stroke-linecap:butt;stroke-linejoin:round;}
  </style>
 </defs>
 <g id="figure_1">
  <g id="patch_1">
   <path d="M 0 339.50675 
L 425.016562 339.50675 
L 425.016562 0 
L 0 0 
z
" style="fill:none;"/>
  </g>
  <g id="axes_1">
   <g id="patch_2">
    <path d="M 49.564375 292.077375 
L 406.684375 292.077375 
L 406.684375 25.965375 
L 49.564375 25.965375 
z
" style="fill:none;"/>
   </g>
   <g id="matplotlib.axis_1">
    <g id="xtick_1">
     <g id="line2d_1">
      <defs>
       <path d="M 0 0 
L 0 3.5 
" id="m836045762b" style="stroke:#969696;stroke-width:0.3;"/>
      </defs>
      <g>
       <use style="fill:#969696;stroke:#969696;stroke-width:0.3;" x="49.564375" xlink:href="#m836045762b" y="292.077375"/>
      </g>
     </g>
     <g id="text_1">
      <!-- −2.0 -->
      <defs>
       <path d="M 10.59375 35.5 
L 73.1875 35.5 
L 73.1875 27.203125 
L 10.59375 27.203125 
z
" id="DejaVuSans-8722"/>
       <path d="M 19.1875 8.296875 
L 53.609375 8.296875 
L 53.609375 0 
L 7.328125 0 
L 7.328125 8.296875 
Q 12.9375 14.109375 22.625 23.890625 
Q 32.328125 33.6875 34.8125 36.53125 
Q 39.546875 41.84375 41.421875 45.53125 
Q 43.3125 49.21875 43.3125 52.78125 
Q 43.3125 58.59375 39.234375 62.25 
Q 35.15625 65.921875 28.609375 65.921875 
Q 23.96875 65.921875 18.8125 64.3125 
Q 13.671875 62.703125 7.8125 59.421875 
L 7.8125 69.390625 
Q 13.765625 71.78125 18.9375 73 
Q 24.125 74.21875 28.421875 74.21875 
Q 39.75 74.21875 46.484375 68.546875 
Q 53.21875 62.890625 53.21875 53.421875 
Q 53.21875 48.921875 51.53125 44.890625 
Q 49.859375 40.875 45.40625 35.40625 
Q 44.1875 33.984375 37.640625 27.21875 
Q 31.109375 20.453125 19.1875 8.296875 
z
" id="DejaVuSans-50"/>
       <path d="M 10.6875 12.40625 
L 21 12.40625 
L 21 0 
L 10.6875 0 
z
" id="DejaVuSans-46"/>
       <path d="M 31.78125 66.40625 
Q 24.171875 66.40625 20.328125 58.90625 
Q 16.5 51.421875 16.5 36.375 
Q 16.5 21.390625 20.328125 13.890625 
Q 24.171875 6.390625 31.78125 6.390625 
Q 39.453125 6.390625 43.28125 13.890625 
Q 47.125 21.390625 47.125 36.375 
Q 47.125 51.421875 43.28125 58.90625 
Q 39.453125 66.40625 31.78125 66.40625 
z
M 31.78125 74.21875 
Q 44.046875 74.21875 50.515625 64.515625 
Q 56.984375 54.828125 56.984375 36.375 
Q 56.984375 17.96875 50.515625 8.265625 
Q 44.046875 -1.421875 31.78125 -1.421875 
Q 19.53125 -1.421875 13.0625 8.265625 
Q 6.59375 17.96875 6.59375 36.375 
Q 6.59375 54.828125 13.0625 64.515625 
Q 19.53125 74.21875 31.78125 74.21875 
z
" id="DejaVuSans-48"/>
      </defs>
      <g style="fill:#969696;" transform="translate(32.566406 309.715187)scale(0.14 -0.14)">
       <use xlink:href="#DejaVuSans-8722"/>
       <use x="83.789062" xlink:href="#DejaVuSans-50"/>
       <use x="147.412109" xlink:href="#DejaVuSans-46"/>
       <use x="179.199219" xlink:href="#DejaVuSans-48"/>
      </g>
     </g>
    </g>
    <g id="xtick_2">
     <g id="line2d_2">
      <g>
       <use style="fill:#969696;stroke:#969696;stroke-width:0.3;" x="94.204375" xlink:href="#m836045762b" y="292.077375"/>
      </g>
     </g>
     <g id="text_2">
      <!-- −1.5 -->
      <defs>
       <path d="M 12.40625 8.296875 
L 28.515625 8.296875 
L 28.515625 63.921875 
L 10.984375 60.40625 
L 10.984375 69.390625 
L 28.421875 72.90625 
L 38.28125 72.90625 
L 38.28125 8.296875 
L 54.390625 8.296875 
L 54.390625 0 
L 12.40625 0 
z
" id="DejaVuSans-49"/>
       <path d="M 10.796875 72.90625 
L 49.515625 72.90625 
L 49.515625 64.59375 
L 19.828125 64.59375 
L 19.828125 46.734375 
Q 21.96875 47.46875 24.109375 47.828125 
Q 26.265625 48.1875 28.421875 48.1875 
Q 40.625 48.1875 47.75 41.5 
Q 54.890625 34.8125 54.890625 23.390625 
Q 54.890625 11.625 47.5625 5.09375 
Q 40.234375 -1.421875 26.90625 -1.421875 
Q 22.3125 -1.421875 17.546875 -0.640625 
Q 12.796875 0.140625 7.71875 1.703125 
L 7.71875 11.625 
Q 12.109375 9.234375 16.796875 8.0625 
Q 21.484375 6.890625 26.703125 6.890625 
Q 35.15625 6.890625 40.078125 11.328125 
Q 45.015625 15.765625 45.015625 23.390625 
Q 45.015625 31 40.078125 35.4375 
Q 35.15625 39.890625 26.703125 39.890625 
Q 22.75 39.890625 18.8125 39.015625 
Q 14.890625 38.140625 10.796875 36.28125 
z
" id="DejaVuSans-53"/>
      </defs>
      <g style="fill:#969696;" transform="translate(77.206406 309.715187)scale(0.14 -0.14)">
       <use xlink:href="#DejaVuSans-8722"/>
       <use x="83.789062" xlink:href="#DejaVuSans-49"/>
       <use x="147.412109" xlink:href="#DejaVuSans-46"/>
       <use x="179.199219" xlink:href="#DejaVuSans-53"/>
      </g>
     </g>
    </g>
    <g id="xtick_3">
     <g id="line2d_3">
      <g>
       <use style="fill:#969696;stroke:#969696;stroke-width:0.3;" x="138.844375" xlink:href="#m836045762b" y="292.077375"/>
      </g>
     </g>
     <g id="text_3">
      <!-- −1.0 -->
      <g style="fill:#969696;" transform="translate(121.846406 309.715187)scale(0.14 -0.14)">
       <use xlink:href="#DejaVuSans-8722"/>
       <use x="83.789062" xlink:href="#DejaVuSans-49"/>
       <use x="147.412109" xlink:href="#DejaVuSans-46"/>
       <use x="179.199219" xlink:href="#DejaVuSans-48"/>
      </g>
     </g>
    </g>
    <g id="xtick_4">
     <g id="line2d_4">
      <g>
       <use style="fill:#969696;stroke:#969696;stroke-width:0.3;" x="183.484375" xlink:href="#m836045762b" y="292.077375"/>
      </g>
     </g>
     <g id="text_4">
      <!-- −0.5 -->
      <g style="fill:#969696;" transform="translate(166.486406 309.715187)scale(0.14 -0.14)">
       <use xlink:href="#DejaVuSans-8722"/>
       <use x="83.789062" xlink:href="#DejaVuSans-48"/>
       <use x="147.412109" xlink:href="#DejaVuSans-46"/>
       <use x="179.199219" xlink:href="#DejaVuSans-53"/>
      </g>
     </g>
    </g>
    <g id="xtick_5">
     <g id="line2d_5">
      <g>
       <use style="fill:#969696;stroke:#969696;stroke-width:0.3;" x="228.124375" xlink:href="#m836045762b" y="292.077375"/>
      </g>
     </g>
     <g id="text_5">
      <!-- 0.0 -->
      <g style="fill:#969696;" transform="translate(216.992188 309.715187)scale(0.14 -0.14)">
       <use xlink:href="#DejaVuSans-48"/>
       <use x="63.623047" xlink:href="#DejaVuSans-46"/>
       <use x="95.410156" xlink:href="#DejaVuSans-48"/>
      </g>
     </g>
    </g>
    <g id="xtick_6">
     <g id="line2d_6">
      <g>
       <use style="fill:#969696;stroke:#969696;stroke-width:0.3;" x="272.764375" xlink:href="#m836045762b" y="292.077375"/>
      </g>
     </g>
     <g id="text_6">
      <!-- 0.5 -->
      <g style="fill:#969696;" transform="translate(261.632188 309.715187)scale(0.14 -0.14)">
       <use xlink:href="#DejaVuSans-48"/>
       <use x="63.623047" xlink:href="#DejaVuSans-46"/>
       <use x="95.410156" xlink:href="#DejaVuSans-53"/>
      </g>
     </g>
    </g>
    <g id="xtick_7">
     <g id="line2d_7">
      <g>
       <use style="fill:#969696;stroke:#969696;stroke-width:0.3;" x="317.404375" xlink:href="#m836045762b" y="292.077375"/>
      </g>
     </g>
     <g id="text_7">
      <!-- 1.0 -->
      <g style="fill:#969696;" transform="translate(306.272188 309.715187)scale(0.14 -0.14)">
       <use xlink:href="#DejaVuSans-49"/>
       <use x="63.623047" xlink:href="#DejaVuSans-46"/>
       <use x="95.410156" xlink:href="#DejaVuSans-48"/>
      </g>
     </g>
    </g>
    <g id="xtick_8">
     <g id="line2d_8">
      <g>
       <use style="fill:#969696;stroke:#969696;stroke-width:0.3;" x="362.044375" xlink:href="#m836045762b" y="292.077375"/>
      </g>
     </g>
     <g id="text_8">
      <!-- 1.5 -->
      <g style="fill:#969696;" transform="translate(350.912188 309.715187)scale(0.14 -0.14)">
       <use xlink:href="#DejaVuSans-49"/>
       <use x="63.623047" xlink:href="#DejaVuSans-46"/>
       <use x="95.410156" xlink:href="#DejaVuSans-53"/>
      </g>
     </g>
    </g>
    <g id="xtick_9">
     <g id="line2d_9">
      <g>
       <use style="fill:#969696;stroke:#969696;stroke-width:0.3;" x="406.684375" xlink:href="#m836045762b" y="292.077375"/>
      </g>
     </g>
     <g id="text_9">
      <!-- 2.0 -->
      <g style="fill:#969696;" transform="translate(395.552188 309.715187)scale(0.14 -0.14)">
       <use xlink:href="#DejaVuSans-50"/>
       <use x="63.623047" xlink:href="#DejaVuSans-46"/>
       <use x="95.410156" xlink:href="#DejaVuSans-48"/>
      </g>
     </g>
    </g>
    <g id="text_10">
     <!-- Sensitivity kernel ($\times 10^{-2}$) -->
     <defs>
      <path d="M 53.515625 70.515625 
L 53.515625 60.890625 
Q 47.90625 63.578125 42.921875 64.890625 
Q 37.9375 66.21875 33.296875 66.21875 
Q 25.25 66.21875 20.875 63.09375 
Q 16.5 59.96875 16.5 54.203125 
Q 16.5 49.359375 19.40625 46.890625 
Q 22.3125 44.4375 30.421875 42.921875 
L 36.375 41.703125 
Q 47.40625 39.59375 52.65625 34.296875 
Q 57.90625 29 57.90625 20.125 
Q 57.90625 9.515625 50.796875 4.046875 
Q 43.703125 -1.421875 29.984375 -1.421875 
Q 24.8125 -1.421875 18.96875 -0.25 
Q 13.140625 0.921875 6.890625 3.21875 
L 6.890625 13.375 
Q 12.890625 10.015625 18.65625 8.296875 
Q 24.421875 6.59375 29.984375 6.59375 
Q 38.421875 6.59375 43.015625 9.90625 
Q 47.609375 13.234375 47.609375 19.390625 
Q 47.609375 24.75 44.3125 27.78125 
Q 41.015625 30.8125 33.5 32.328125 
L 27.484375 33.5 
Q 16.453125 35.6875 11.515625 40.375 
Q 6.59375 45.0625 6.59375 53.421875 
Q 6.59375 63.09375 13.40625 68.65625 
Q 20.21875 74.21875 32.171875 74.21875 
Q 37.3125 74.21875 42.625 73.28125 
Q 47.953125 72.359375 53.515625 70.515625 
z
" id="DejaVuSans-83"/>
      <path d="M 56.203125 29.59375 
L 56.203125 25.203125 
L 14.890625 25.203125 
Q 15.484375 15.921875 20.484375 11.0625 
Q 25.484375 6.203125 34.421875 6.203125 
Q 39.59375 6.203125 44.453125 7.46875 
Q 49.3125 8.734375 54.109375 11.28125 
L 54.109375 2.78125 
Q 49.265625 0.734375 44.1875 -0.34375 
Q 39.109375 -1.421875 33.890625 -1.421875 
Q 20.796875 -1.421875 13.15625 6.1875 
Q 5.515625 13.8125 5.515625 26.8125 
Q 5.515625 40.234375 12.765625 48.109375 
Q 20.015625 56 32.328125 56 
Q 43.359375 56 49.78125 48.890625 
Q 56.203125 41.796875 56.203125 29.59375 
z
M 47.21875 32.234375 
Q 47.125 39.59375 43.09375 43.984375 
Q 39.0625 48.390625 32.421875 48.390625 
Q 24.90625 48.390625 20.390625 44.140625 
Q 15.875 39.890625 15.1875 32.171875 
z
" id="DejaVuSans-101"/>
      <path d="M 54.890625 33.015625 
L 54.890625 0 
L 45.90625 0 
L 45.90625 32.71875 
Q 45.90625 40.484375 42.875 44.328125 
Q 39.84375 48.1875 33.796875 48.1875 
Q 26.515625 48.1875 22.3125 43.546875 
Q 18.109375 38.921875 18.109375 30.90625 
L 18.109375 0 
L 9.078125 0 
L 9.078125 54.6875 
L 18.109375 54.6875 
L 18.109375 46.1875 
Q 21.34375 51.125 25.703125 53.5625 
Q 30.078125 56 35.796875 56 
Q 45.21875 56 50.046875 50.171875 
Q 54.890625 44.34375 54.890625 33.015625 
z
" id="DejaVuSans-110"/>
      <path d="M 44.28125 53.078125 
L 44.28125 44.578125 
Q 40.484375 46.53125 36.375 47.5 
Q 32.28125 48.484375 27.875 48.484375 
Q 21.1875 48.484375 17.84375 46.4375 
Q 14.5 44.390625 14.5 40.28125 
Q 14.5 37.15625 16.890625 35.375 
Q 19.28125 33.59375 26.515625 31.984375 
L 29.59375 31.296875 
Q 39.15625 29.25 43.1875 25.515625 
Q 47.21875 21.78125 47.21875 15.09375 
Q 47.21875 7.46875 41.1875 3.015625 
Q 35.15625 -1.421875 24.609375 -1.421875 
Q 20.21875 -1.421875 15.453125 -0.5625 
Q 10.6875 0.296875 5.421875 2 
L 5.421875 11.28125 
Q 10.40625 8.6875 15.234375 7.390625 
Q 20.0625 6.109375 24.8125 6.109375 
Q 31.15625 6.109375 34.5625 8.28125 
Q 37.984375 10.453125 37.984375 14.40625 
Q 37.984375 18.0625 35.515625 20.015625 
Q 33.0625 21.96875 24.703125 23.78125 
L 21.578125 24.515625 
Q 13.234375 26.265625 9.515625 29.90625 
Q 5.8125 33.546875 5.8125 39.890625 
Q 5.8125 47.609375 11.28125 51.796875 
Q 16.75 56 26.8125 56 
Q 31.78125 56 36.171875 55.265625 
Q 40.578125 54.546875 44.28125 53.078125 
z
" id="DejaVuSans-115"/>
      <path d="M 9.421875 54.6875 
L 18.40625 54.6875 
L 18.40625 0 
L 9.421875 0 
z
M 9.421875 75.984375 
L 18.40625 75.984375 
L 18.40625 64.59375 
L 9.421875 64.59375 
z
" id="DejaVuSans-105"/>
      <path d="M 18.3125 70.21875 
L 18.3125 54.6875 
L 36.8125 54.6875 
L 36.8125 47.703125 
L 18.3125 47.703125 
L 18.3125 18.015625 
Q 18.3125 11.328125 20.140625 9.421875 
Q 21.96875 7.515625 27.59375 7.515625 
L 36.8125 7.515625 
L 36.8125 0 
L 27.59375 0 
Q 17.1875 0 13.234375 3.875 
Q 9.28125 7.765625 9.28125 18.015625 
L 9.28125 47.703125 
L 2.6875 47.703125 
L 2.6875 54.6875 
L 9.28125 54.6875 
L 9.28125 70.21875 
z
" id="DejaVuSans-116"/>
      <path d="M 2.984375 54.6875 
L 12.5 54.6875 
L 29.59375 8.796875 
L 46.6875 54.6875 
L 56.203125 54.6875 
L 35.6875 0 
L 23.484375 0 
z
" id="DejaVuSans-118"/>
      <path d="M 32.171875 -5.078125 
Q 28.375 -14.84375 24.75 -17.8125 
Q 21.140625 -20.796875 15.09375 -20.796875 
L 7.90625 -20.796875 
L 7.90625 -13.28125 
L 13.1875 -13.28125 
Q 16.890625 -13.28125 18.9375 -11.515625 
Q 21 -9.765625 23.484375 -3.21875 
L 25.09375 0.875 
L 2.984375 54.6875 
L 12.5 54.6875 
L 29.59375 11.921875 
L 46.6875 54.6875 
L 56.203125 54.6875 
z
" id="DejaVuSans-121"/>
      <path id="DejaVuSans-32"/>
      <path d="M 9.078125 75.984375 
L 18.109375 75.984375 
L 18.109375 31.109375 
L 44.921875 54.6875 
L 56.390625 54.6875 
L 27.390625 29.109375 
L 57.625 0 
L 45.90625 0 
L 18.109375 26.703125 
L 18.109375 0 
L 9.078125 0 
z
" id="DejaVuSans-107"/>
      <path d="M 41.109375 46.296875 
Q 39.59375 47.171875 37.8125 47.578125 
Q 36.03125 48 33.890625 48 
Q 26.265625 48 22.1875 43.046875 
Q 18.109375 38.09375 18.109375 28.8125 
L 18.109375 0 
L 9.078125 0 
L 9.078125 54.6875 
L 18.109375 54.6875 
L 18.109375 46.1875 
Q 20.953125 51.171875 25.484375 53.578125 
Q 30.03125 56 36.53125 56 
Q 37.453125 56 38.578125 55.875 
Q 39.703125 55.765625 41.0625 55.515625 
z
" id="DejaVuSans-114"/>
      <path d="M 9.421875 75.984375 
L 18.40625 75.984375 
L 18.40625 0 
L 9.421875 0 
z
" id="DejaVuSans-108"/>
      <path d="M 31 75.875 
Q 24.46875 64.65625 21.28125 53.65625 
Q 18.109375 42.671875 18.109375 31.390625 
Q 18.109375 20.125 21.3125 9.0625 
Q 24.515625 -2 31 -13.1875 
L 23.1875 -13.1875 
Q 15.875 -1.703125 12.234375 9.375 
Q 8.59375 20.453125 8.59375 31.390625 
Q 8.59375 42.28125 12.203125 53.3125 
Q 15.828125 64.359375 23.1875 75.875 
z
" id="DejaVuSans-40"/>
      <path d="M 70.125 53.71875 
L 47.796875 31.296875 
L 70.125 8.984375 
L 64.3125 3.078125 
L 41.890625 25.484375 
L 19.484375 3.078125 
L 13.71875 8.984375 
L 35.984375 31.296875 
L 13.71875 53.71875 
L 19.484375 59.625 
L 41.890625 37.203125 
L 64.3125 59.625 
z
" id="DejaVuSans-215"/>
      <path d="M 8.015625 75.875 
L 15.828125 75.875 
Q 23.140625 64.359375 26.78125 53.3125 
Q 30.421875 42.28125 30.421875 31.390625 
Q 30.421875 20.453125 26.78125 9.375 
Q 23.140625 -1.703125 15.828125 -13.1875 
L 8.015625 -13.1875 
Q 14.5 -2 17.703125 9.0625 
Q 20.90625 20.125 20.90625 31.390625 
Q 20.90625 42.671875 17.703125 53.65625 
Q 14.5 64.65625 8.015625 75.875 
z
" id="DejaVuSans-41"/>
     </defs>
     <g style="fill:#969696;" transform="translate(137.544375 329.36675)scale(0.14 -0.14)">
      <use transform="translate(0 0.765625)" xlink:href="#DejaVuSans-83"/>
      <use transform="translate(63.476562 0.765625)" xlink:href="#DejaVuSans-101"/>
      <use transform="translate(125 0.765625)" xlink:href="#DejaVuSans-110"/>
      <use transform="translate(188.378906 0.765625)" xlink:href="#DejaVuSans-115"/>
      <use transform="translate(240.478516 0.765625)" xlink:href="#DejaVuSans-105"/>
      <use transform="translate(268.261719 0.765625)" xlink:href="#DejaVuSans-116"/>
      <use transform="translate(307.470703 0.765625)" xlink:href="#DejaVuSans-105"/>
      <use transform="translate(335.253906 0.765625)" xlink:href="#DejaVuSans-118"/>
      <use transform="translate(394.433594 0.765625)" xlink:href="#DejaVuSans-105"/>
      <use transform="translate(422.216797 0.765625)" xlink:href="#DejaVuSans-116"/>
      <use transform="translate(461.425781 0.765625)" xlink:href="#DejaVuSans-121"/>
      <use transform="translate(520.605469 0.765625)" xlink:href="#DejaVuSans-32"/>
      <use transform="translate(552.392578 0.765625)" xlink:href="#DejaVuSans-107"/>
      <use transform="translate(610.302734 0.765625)" xlink:href="#DejaVuSans-101"/>
      <use transform="translate(671.826172 0.765625)" xlink:href="#DejaVuSans-114"/>
      <use transform="translate(712.939453 0.765625)" xlink:href="#DejaVuSans-110"/>
      <use transform="translate(776.318359 0.765625)" xlink:href="#DejaVuSans-101"/>
      <use transform="translate(837.841797 0.765625)" xlink:href="#DejaVuSans-108"/>
      <use transform="translate(865.625 0.765625)" xlink:href="#DejaVuSans-32"/>
      <use transform="translate(897.412109 0.765625)" xlink:href="#DejaVuSans-40"/>
      <use transform="translate(936.425781 0.765625)" xlink:href="#DejaVuSans-215"/>
      <use transform="translate(1020.214844 0.765625)" xlink:href="#DejaVuSans-49"/>
      <use transform="translate(1083.837891 0.765625)" xlink:href="#DejaVuSans-48"/>
      <use transform="translate(1148.417969 39.046875)scale(0.7)" xlink:href="#DejaVuSans-8722"/>
      <use transform="translate(1207.070312 39.046875)scale(0.7)" xlink:href="#DejaVuSans-50"/>
      <use transform="translate(1254.34082 0.765625)" xlink:href="#DejaVuSans-41"/>
     </g>
    </g>
   </g>
   <g id="matplotlib.axis_2">
    <g id="ytick_1">
     <g id="line2d_10">
      <path clip-path="url(#p3acd650826)" d="M 49.564375 25.965375 
L 406.684375 25.965375 
" style="fill:none;stroke:#969696;stroke-linecap:square;stroke-width:0.3;"/>
     </g>
     <g id="line2d_11">
      <defs>
       <path d="M 0 0 
L -3.5 0 
" id="m2a1c6ab35a" style="stroke:#969696;stroke-width:0.3;"/>
      </defs>
      <g>
       <use style="fill:#969696;stroke:#969696;stroke-width:0.3;" x="49.564375" xlink:href="#m2a1c6ab35a" y="25.965375"/>
      </g>
     </g>
     <g id="text_11">
      <!-- 0 -->
      <g style="fill:#969696;" transform="translate(33.656875 31.284281)scale(0.14 -0.14)">
       <use xlink:href="#DejaVuSans-48"/>
      </g>
     </g>
    </g>
    <g id="ytick_2">
     <g id="line2d_12">
      <path clip-path="url(#p3acd650826)" d="M 49.564375 55.533375 
L 406.684375 55.533375 
" style="fill:none;stroke:#969696;stroke-linecap:square;stroke-width:0.3;"/>
     </g>
     <g id="line2d_13">
      <g>
       <use style="fill:#969696;stroke:#969696;stroke-width:0.3;" x="49.564375" xlink:href="#m2a1c6ab35a" y="55.533375"/>
      </g>
     </g>
     <g id="text_12">
      <!-- 10 -->
      <g style="fill:#969696;" transform="translate(24.749375 60.852281)scale(0.14 -0.14)">
       <use xlink:href="#DejaVuSans-49"/>
       <use x="63.623047" xlink:href="#DejaVuSans-48"/>
      </g>
     </g>
    </g>
    <g id="ytick_3">
     <g id="line2d_14">
      <path clip-path="url(#p3acd650826)" d="M 49.564375 85.101375 
L 406.684375 85.101375 
" style="fill:none;stroke:#969696;stroke-linecap:square;stroke-width:0.3;"/>
     </g>
     <g id="line2d_15">
      <g>
       <use style="fill:#969696;stroke:#969696;stroke-width:0.3;" x="49.564375" xlink:href="#m2a1c6ab35a" y="85.101375"/>
      </g>
     </g>
     <g id="text_13">
      <!-- 20 -->
      <g style="fill:#969696;" transform="translate(24.749375 90.420281)scale(0.14 -0.14)">
       <use xlink:href="#DejaVuSans-50"/>
       <use x="63.623047" xlink:href="#DejaVuSans-48"/>
      </g>
     </g>
    </g>
    <g id="ytick_4">
     <g id="line2d_16">
      <path clip-path="url(#p3acd650826)" d="M 49.564375 114.669375 
L 406.684375 114.669375 
" style="fill:none;stroke:#969696;stroke-linecap:square;stroke-width:0.3;"/>
     </g>
     <g id="line2d_17">
      <g>
       <use style="fill:#969696;stroke:#969696;stroke-width:0.3;" x="49.564375" xlink:href="#m2a1c6ab35a" y="114.669375"/>
      </g>
     </g>
     <g id="text_14">
      <!-- 30 -->
      <defs>
       <path d="M 40.578125 39.3125 
Q 47.65625 37.796875 51.625 33 
Q 55.609375 28.21875 55.609375 21.1875 
Q 55.609375 10.40625 48.1875 4.484375 
Q 40.765625 -1.421875 27.09375 -1.421875 
Q 22.515625 -1.421875 17.65625 -0.515625 
Q 12.796875 0.390625 7.625 2.203125 
L 7.625 11.71875 
Q 11.71875 9.328125 16.59375 8.109375 
Q 21.484375 6.890625 26.8125 6.890625 
Q 36.078125 6.890625 40.9375 10.546875 
Q 45.796875 14.203125 45.796875 21.1875 
Q 45.796875 27.640625 41.28125 31.265625 
Q 36.765625 34.90625 28.71875 34.90625 
L 20.21875 34.90625 
L 20.21875 43.015625 
L 29.109375 43.015625 
Q 36.375 43.015625 40.234375 45.921875 
Q 44.09375 48.828125 44.09375 54.296875 
Q 44.09375 59.90625 40.109375 62.90625 
Q 36.140625 65.921875 28.71875 65.921875 
Q 24.65625 65.921875 20.015625 65.03125 
Q 15.375 64.15625 9.8125 62.3125 
L 9.8125 71.09375 
Q 15.4375 72.65625 20.34375 73.4375 
Q 25.25 74.21875 29.59375 74.21875 
Q 40.828125 74.21875 47.359375 69.109375 
Q 53.90625 64.015625 53.90625 55.328125 
Q 53.90625 49.265625 50.4375 45.09375 
Q 46.96875 40.921875 40.578125 39.3125 
z
" id="DejaVuSans-51"/>
      </defs>
      <g style="fill:#969696;" transform="translate(24.749375 119.988281)scale(0.14 -0.14)">
       <use xlink:href="#DejaVuSans-51"/>
       <use x="63.623047" xlink:href="#DejaVuSans-48"/>
      </g>
     </g>
    </g>
    <g id="ytick_5">
     <g id="line2d_18">
      <path clip-path="url(#p3acd650826)" d="M 49.564375 144.237375 
L 406.684375 144.237375 
" style="fill:none;stroke:#969696;stroke-linecap:square;stroke-width:0.3;"/>
     </g>
     <g id="line2d_19">
      <g>
       <use style="fill:#969696;stroke:#969696;stroke-width:0.3;" x="49.564375" xlink:href="#m2a1c6ab35a" y="144.237375"/>
      </g>
     </g>
     <g id="text_15">
      <!-- 40 -->
      <defs>
       <path d="M 37.796875 64.3125 
L 12.890625 25.390625 
L 37.796875 25.390625 
z
M 35.203125 72.90625 
L 47.609375 72.90625 
L 47.609375 25.390625 
L 58.015625 25.390625 
L 58.015625 17.1875 
L 47.609375 17.1875 
L 47.609375 0 
L 37.796875 0 
L 37.796875 17.1875 
L 4.890625 17.1875 
L 4.890625 26.703125 
z
" id="DejaVuSans-52"/>
      </defs>
      <g style="fill:#969696;" transform="translate(24.749375 149.556281)scale(0.14 -0.14)">
       <use xlink:href="#DejaVuSans-52"/>
       <use x="63.623047" xlink:href="#DejaVuSans-48"/>
      </g>
     </g>
    </g>
    <g id="ytick_6">
     <g id="line2d_20">
      <path clip-path="url(#p3acd650826)" d="M 49.564375 173.805375 
L 406.684375 173.805375 
" style="fill:none;stroke:#969696;stroke-linecap:square;stroke-width:0.3;"/>
     </g>
     <g id="line2d_21">
      <g>
       <use style="fill:#969696;stroke:#969696;stroke-width:0.3;" x="49.564375" xlink:href="#m2a1c6ab35a" y="173.805375"/>
      </g>
     </g>
     <g id="text_16">
      <!-- 50 -->
      <g style="fill:#969696;" transform="translate(24.749375 179.124281)scale(0.14 -0.14)">
       <use xlink:href="#DejaVuSans-53"/>
       <use x="63.623047" xlink:href="#DejaVuSans-48"/>
      </g>
     </g>
    </g>
    <g id="ytick_7">
     <g id="line2d_22">
      <path clip-path="url(#p3acd650826)" d="M 49.564375 203.373375 
L 406.684375 203.373375 
" style="fill:none;stroke:#969696;stroke-linecap:square;stroke-width:0.3;"/>
     </g>
     <g id="line2d_23">
      <g>
       <use style="fill:#969696;stroke:#969696;stroke-width:0.3;" x="49.564375" xlink:href="#m2a1c6ab35a" y="203.373375"/>
      </g>
     </g>
     <g id="text_17">
      <!-- 60 -->
      <defs>
       <path d="M 33.015625 40.375 
Q 26.375 40.375 22.484375 35.828125 
Q 18.609375 31.296875 18.609375 23.390625 
Q 18.609375 15.53125 22.484375 10.953125 
Q 26.375 6.390625 33.015625 6.390625 
Q 39.65625 6.390625 43.53125 10.953125 
Q 47.40625 15.53125 47.40625 23.390625 
Q 47.40625 31.296875 43.53125 35.828125 
Q 39.65625 40.375 33.015625 40.375 
z
M 52.59375 71.296875 
L 52.59375 62.3125 
Q 48.875 64.0625 45.09375 64.984375 
Q 41.3125 65.921875 37.59375 65.921875 
Q 27.828125 65.921875 22.671875 59.328125 
Q 17.53125 52.734375 16.796875 39.40625 
Q 19.671875 43.65625 24.015625 45.921875 
Q 28.375 48.1875 33.59375 48.1875 
Q 44.578125 48.1875 50.953125 41.515625 
Q 57.328125 34.859375 57.328125 23.390625 
Q 57.328125 12.15625 50.6875 5.359375 
Q 44.046875 -1.421875 33.015625 -1.421875 
Q 20.359375 -1.421875 13.671875 8.265625 
Q 6.984375 17.96875 6.984375 36.375 
Q 6.984375 53.65625 15.1875 63.9375 
Q 23.390625 74.21875 37.203125 74.21875 
Q 40.921875 74.21875 44.703125 73.484375 
Q 48.484375 72.75 52.59375 71.296875 
z
" id="DejaVuSans-54"/>
      </defs>
      <g style="fill:#969696;" transform="translate(24.749375 208.692281)scale(0.14 -0.14)">
       <use xlink:href="#DejaVuSans-54"/>
       <use x="63.623047" xlink:href="#DejaVuSans-48"/>
      </g>
     </g>
    </g>
    <g id="ytick_8">
     <g id="line2d_24">
      <path clip-path="url(#p3acd650826)" d="M 49.564375 232.941375 
L 406.684375 232.941375 
" style="fill:none;stroke:#969696;stroke-linecap:square;stroke-width:0.3;"/>
     </g>
     <g id="line2d_25">
      <g>
       <use style="fill:#969696;stroke:#969696;stroke-width:0.3;" x="49.564375" xlink:href="#m2a1c6ab35a" y="232.941375"/>
      </g>
     </g>
     <g id="text_18">
      <!-- 70 -->
      <defs>
       <path d="M 8.203125 72.90625 
L 55.078125 72.90625 
L 55.078125 68.703125 
L 28.609375 0 
L 18.3125 0 
L 43.21875 64.59375 
L 8.203125 64.59375 
z
" id="DejaVuSans-55"/>
      </defs>
      <g style="fill:#969696;" transform="translate(24.749375 238.260281)scale(0.14 -0.14)">
       <use xlink:href="#DejaVuSans-55"/>
       <use x="63.623047" xlink:href="#DejaVuSans-48"/>
      </g>
     </g>
    </g>
    <g id="ytick_9">
     <g id="line2d_26">
      <path clip-path="url(#p3acd650826)" d="M 49.564375 262.509375 
L 406.684375 262.509375 
" style="fill:none;stroke:#969696;stroke-linecap:square;stroke-width:0.3;"/>
     </g>
     <g id="line2d_27">
      <g>
       <use style="fill:#969696;stroke:#969696;stroke-width:0.3;" x="49.564375" xlink:href="#m2a1c6ab35a" y="262.509375"/>
      </g>
     </g>
     <g id="text_19">
      <!-- 80 -->
      <defs>
       <path d="M 31.78125 34.625 
Q 24.75 34.625 20.71875 30.859375 
Q 16.703125 27.09375 16.703125 20.515625 
Q 16.703125 13.921875 20.71875 10.15625 
Q 24.75 6.390625 31.78125 6.390625 
Q 38.8125 6.390625 42.859375 10.171875 
Q 46.921875 13.96875 46.921875 20.515625 
Q 46.921875 27.09375 42.890625 30.859375 
Q 38.875 34.625 31.78125 34.625 
z
M 21.921875 38.8125 
Q 15.578125 40.375 12.03125 44.71875 
Q 8.5 49.078125 8.5 55.328125 
Q 8.5 64.0625 14.71875 69.140625 
Q 20.953125 74.21875 31.78125 74.21875 
Q 42.671875 74.21875 48.875 69.140625 
Q 55.078125 64.0625 55.078125 55.328125 
Q 55.078125 49.078125 51.53125 44.71875 
Q 48 40.375 41.703125 38.8125 
Q 48.828125 37.15625 52.796875 32.3125 
Q 56.78125 27.484375 56.78125 20.515625 
Q 56.78125 9.90625 50.3125 4.234375 
Q 43.84375 -1.421875 31.78125 -1.421875 
Q 19.734375 -1.421875 13.25 4.234375 
Q 6.78125 9.90625 6.78125 20.515625 
Q 6.78125 27.484375 10.78125 32.3125 
Q 14.796875 37.15625 21.921875 38.8125 
z
M 18.3125 54.390625 
Q 18.3125 48.734375 21.84375 45.5625 
Q 25.390625 42.390625 31.78125 42.390625 
Q 38.140625 42.390625 41.71875 45.5625 
Q 45.3125 48.734375 45.3125 54.390625 
Q 45.3125 60.0625 41.71875 63.234375 
Q 38.140625 66.40625 31.78125 66.40625 
Q 25.390625 66.40625 21.84375 63.234375 
Q 18.3125 60.0625 18.3125 54.390625 
z
" id="DejaVuSans-56"/>
      </defs>
      <g style="fill:#969696;" transform="translate(24.749375 267.828281)scale(0.14 -0.14)">
       <use xlink:href="#DejaVuSans-56"/>
       <use x="63.623047" xlink:href="#DejaVuSans-48"/>
      </g>
     </g>
    </g>
    <g id="ytick_10">
     <g id="line2d_28">
      <path clip-path="url(#p3acd650826)" d="M 49.564375 292.077375 
L 406.684375 292.077375 
" style="fill:none;stroke:#969696;stroke-linecap:square;stroke-width:0.3;"/>
     </g>
     <g id="line2d_29">
      <g>
       <use style="fill:#969696;stroke:#969696;stroke-width:0.3;" x="49.564375" xlink:href="#m2a1c6ab35a" y="292.077375"/>
      </g>
     </g>
     <g id="text_20">
      <!-- 90 -->
      <defs>
       <path d="M 10.984375 1.515625 
L 10.984375 10.5 
Q 14.703125 8.734375 18.5 7.8125 
Q 22.3125 6.890625 25.984375 6.890625 
Q 35.75 6.890625 40.890625 13.453125 
Q 46.046875 20.015625 46.78125 33.40625 
Q 43.953125 29.203125 39.59375 26.953125 
Q 35.25 24.703125 29.984375 24.703125 
Q 19.046875 24.703125 12.671875 31.3125 
Q 6.296875 37.9375 6.296875 49.421875 
Q 6.296875 60.640625 12.9375 67.421875 
Q 19.578125 74.21875 30.609375 74.21875 
Q 43.265625 74.21875 49.921875 64.515625 
Q 56.59375 54.828125 56.59375 36.375 
Q 56.59375 19.140625 48.40625 8.859375 
Q 40.234375 -1.421875 26.421875 -1.421875 
Q 22.703125 -1.421875 18.890625 -0.6875 
Q 15.09375 0.046875 10.984375 1.515625 
z
M 30.609375 32.421875 
Q 37.25 32.421875 41.125 36.953125 
Q 45.015625 41.5 45.015625 49.421875 
Q 45.015625 57.28125 41.125 61.84375 
Q 37.25 66.40625 30.609375 66.40625 
Q 23.96875 66.40625 20.09375 61.84375 
Q 16.21875 57.28125 16.21875 49.421875 
Q 16.21875 41.5 20.09375 36.953125 
Q 23.96875 32.421875 30.609375 32.421875 
z
" id="DejaVuSans-57"/>
      </defs>
      <g style="fill:#969696;" transform="translate(24.749375 297.396281)scale(0.14 -0.14)">
       <use xlink:href="#DejaVuSans-57"/>
       <use x="63.623047" xlink:href="#DejaVuSans-48"/>
      </g>
     </g>
    </g>
    <g id="text_21">
     <!-- Depth [km] -->
     <defs>
      <path d="M 19.671875 64.796875 
L 19.671875 8.109375 
L 31.59375 8.109375 
Q 46.6875 8.109375 53.6875 14.9375 
Q 60.6875 21.78125 60.6875 36.53125 
Q 60.6875 51.171875 53.6875 57.984375 
Q 46.6875 64.796875 31.59375 64.796875 
z
M 9.8125 72.90625 
L 30.078125 72.90625 
Q 51.265625 72.90625 61.171875 64.09375 
Q 71.09375 55.28125 71.09375 36.53125 
Q 71.09375 17.671875 61.125 8.828125 
Q 51.171875 0 30.078125 0 
L 9.8125 0 
z
" id="DejaVuSans-68"/>
      <path d="M 18.109375 8.203125 
L 18.109375 -20.796875 
L 9.078125 -20.796875 
L 9.078125 54.6875 
L 18.109375 54.6875 
L 18.109375 46.390625 
Q 20.953125 51.265625 25.265625 53.625 
Q 29.59375 56 35.59375 56 
Q 45.5625 56 51.78125 48.09375 
Q 58.015625 40.1875 58.015625 27.296875 
Q 58.015625 14.40625 51.78125 6.484375 
Q 45.5625 -1.421875 35.59375 -1.421875 
Q 29.59375 -1.421875 25.265625 0.953125 
Q 20.953125 3.328125 18.109375 8.203125 
z
M 48.6875 27.296875 
Q 48.6875 37.203125 44.609375 42.84375 
Q 40.53125 48.484375 33.40625 48.484375 
Q 26.265625 48.484375 22.1875 42.84375 
Q 18.109375 37.203125 18.109375 27.296875 
Q 18.109375 17.390625 22.1875 11.75 
Q 26.265625 6.109375 33.40625 6.109375 
Q 40.53125 6.109375 44.609375 11.75 
Q 48.6875 17.390625 48.6875 27.296875 
z
" id="DejaVuSans-112"/>
      <path d="M 54.890625 33.015625 
L 54.890625 0 
L 45.90625 0 
L 45.90625 32.71875 
Q 45.90625 40.484375 42.875 44.328125 
Q 39.84375 48.1875 33.796875 48.1875 
Q 26.515625 48.1875 22.3125 43.546875 
Q 18.109375 38.921875 18.109375 30.90625 
L 18.109375 0 
L 9.078125 0 
L 9.078125 75.984375 
L 18.109375 75.984375 
L 18.109375 46.1875 
Q 21.34375 51.125 25.703125 53.5625 
Q 30.078125 56 35.796875 56 
Q 45.21875 56 50.046875 50.171875 
Q 54.890625 44.34375 54.890625 33.015625 
z
" id="DejaVuSans-104"/>
      <path d="M 8.59375 75.984375 
L 29.296875 75.984375 
L 29.296875 69 
L 17.578125 69 
L 17.578125 -6.203125 
L 29.296875 -6.203125 
L 29.296875 -13.1875 
L 8.59375 -13.1875 
z
" id="DejaVuSans-91"/>
      <path d="M 52 44.1875 
Q 55.375 50.25 60.0625 53.125 
Q 64.75 56 71.09375 56 
Q 79.640625 56 84.28125 50.015625 
Q 88.921875 44.046875 88.921875 33.015625 
L 88.921875 0 
L 79.890625 0 
L 79.890625 32.71875 
Q 79.890625 40.578125 77.09375 44.375 
Q 74.3125 48.1875 68.609375 48.1875 
Q 61.625 48.1875 57.5625 43.546875 
Q 53.515625 38.921875 53.515625 30.90625 
L 53.515625 0 
L 44.484375 0 
L 44.484375 32.71875 
Q 44.484375 40.625 41.703125 44.40625 
Q 38.921875 48.1875 33.109375 48.1875 
Q 26.21875 48.1875 22.15625 43.53125 
Q 18.109375 38.875 18.109375 30.90625 
L 18.109375 0 
L 9.078125 0 
L 9.078125 54.6875 
L 18.109375 54.6875 
L 18.109375 46.1875 
Q 21.1875 51.21875 25.484375 53.609375 
Q 29.78125 56 35.6875 56 
Q 41.65625 56 45.828125 52.96875 
Q 50 49.953125 52 44.1875 
z
" id="DejaVuSans-109"/>
      <path d="M 30.421875 75.984375 
L 30.421875 -13.1875 
L 9.71875 -13.1875 
L 9.71875 -6.203125 
L 21.390625 -6.203125 
L 21.390625 69 
L 9.71875 69 
L 9.71875 75.984375 
z
" id="DejaVuSans-93"/>
     </defs>
     <g style="fill:#969696;" transform="translate(17.837813 198.901687)rotate(-90)scale(0.14 -0.14)">
      <use xlink:href="#DejaVuSans-68"/>
      <use x="77.001953" xlink:href="#DejaVuSans-101"/>
      <use x="138.525391" xlink:href="#DejaVuSans-112"/>
      <use x="202.001953" xlink:href="#DejaVuSans-116"/>
      <use x="241.210938" xlink:href="#DejaVuSans-104"/>
      <use x="304.589844" xlink:href="#DejaVuSans-32"/>
      <use x="336.376953" xlink:href="#DejaVuSans-91"/>
      <use x="375.390625" xlink:href="#DejaVuSans-107"/>
      <use x="433.300781" xlink:href="#DejaVuSans-109"/>
      <use x="530.712891" xlink:href="#DejaVuSans-93"/>
     </g>
    </g>
   </g>
   <g id="line2d_30">
    <path clip-path="url(#p3acd650826)" d="M 88.711563 25.965375 
L 88.711563 54.054975 
L 70.838125 55.533375 
L 70.838125 83.622975 
L 99.435625 85.101375 
L 99.435625 113.190975 
L 167.354688 114.669375 
L 167.354688 142.758975 
L 210.250938 144.237375 
L 210.250938 172.326975 
L 224.549688 173.805375 
L 224.549688 201.894975 
L 228.124375 203.373375 
L 228.124375 290.598975 
L 228.124375 290.598975 
" style="fill:none;stroke:#1f77b4;stroke-linecap:square;"/>
   </g>
   <g id="line2d_31">
    <path clip-path="url(#p3acd650826)" d="M 260.807232 25.965375 
L 258.509219 27.443775 
L 255.955871 28.922175 
L 251.870513 31.878975 
L 250.08317 33.357375 
L 245.487143 37.792575 
L 242.933795 40.749375 
L 238.848438 46.662975 
L 236.550424 51.098175 
L 235.529085 54.054975 
L 235.487845 55.533375 
L 235.221181 57.011775 
L 234.695492 58.490175 
L 232.855579 68.838975 
L 232.855579 70.317375 
L 232.32989 73.274175 
L 232.32989 74.752575 
L 232.067045 76.230975 
L 232.067045 79.187775 
L 231.8042 80.666175 
L 231.8042 83.622975 
L 230.933058 85.101375 
L 230.933058 88.058175 
L 230.677723 89.536575 
L 230.677723 93.971775 
L 230.422388 95.450175 
L 230.422388 108.755775 
L 230.677723 110.234175 
L 230.677723 113.190975 
L 229.300259 114.669375 
L 229.300259 120.582975 
L 229.065082 122.061375 
L 229.065082 139.802175 
L 229.300259 141.280575 
L 229.300259 142.758975 
L 228.549933 144.237375 
L 228.549933 151.629375 
L 228.337154 153.107775 
L 228.322969 178.240575 
L 228.124375 179.718975 
L 228.124375 290.598975 
L 228.124375 290.598975 
" style="fill:none;stroke:#ff7f0e;stroke-linecap:square;"/>
   </g>
   <g id="line2d_32">
    <path clip-path="url(#p3acd650826)" d="M 349.15308 25.965375 
L 328.726295 27.443775 
L 311.363527 28.922175 
L 297.575446 30.400575 
L 286.851384 31.878975 
L 278.68067 33.357375 
L 273.063304 34.835775 
L 268.977946 36.314175 
L 266.935268 37.792575 
L 265.913929 39.270975 
L 266.424598 40.749375 
L 267.445938 42.227775 
L 269.999286 43.706175 
L 273.063304 45.184575 
L 276.637991 46.662975 
L 284.808705 49.619775 
L 289.404732 51.098175 
L 299.618125 54.054975 
L 311.110518 55.533375 
L 316.367411 57.011775 
L 321.098615 58.490175 
L 326.355508 59.968575 
L 331.086712 61.446975 
L 335.292227 62.925375 
L 340.023431 64.403775 
L 344.228946 65.882175 
L 355.268422 70.317375 
L 361.576694 73.274175 
L 366.833587 76.230975 
L 368.936345 77.709375 
L 373.667549 82.144575 
L 374.718928 83.622975 
L 367.026518 85.101375 
L 368.047857 88.058175 
L 368.047857 89.536575 
L 368.558527 91.014975 
L 366.515848 96.928575 
L 364.47317 99.885375 
L 362.941161 101.363775 
L 361.919821 102.842175 
L 360.387813 104.320575 
L 358.345134 105.798975 
L 356.813125 107.277375 
L 348.642411 113.190975 
L 328.780049 114.669375 
L 327.368988 116.147775 
L 325.487574 117.626175 
L 323.135806 119.104575 
L 317.491562 123.539775 
L 315.139794 125.018175 
L 313.25838 126.496575 
L 310.906612 127.974975 
L 309.025197 129.453375 
L 304.321661 132.410175 
L 302.440247 133.888575 
L 300.088479 135.366975 
L 298.207064 136.845375 
L 295.855296 138.323775 
L 290.211053 142.758975 
L 277.914665 144.237375 
L 274.510201 147.194175 
L 273.233527 148.672575 
L 271.531295 150.150975 
L 270.254621 151.629375 
L 268.552388 153.107775 
L 267.275714 154.586175 
L 265.573482 156.064575 
L 257.913437 164.934975 
L 257.062321 166.413375 
L 254.508973 169.370175 
L 253.657857 170.848575 
L 252.381183 172.326975 
L 248.778125 173.805375 
L 244.011875 182.675775 
L 243.614688 184.154175 
L 242.025938 187.110975 
L 241.62875 188.589375 
L 240.834375 190.067775 
L 240.437188 191.546175 
L 239.642813 193.024575 
L 238.45125 197.459775 
L 237.656875 198.938175 
L 236.8625 201.894975 
L 235.730093 203.373375 
L 235.349807 204.851775 
L 235.349807 206.330175 
L 233.828664 212.243775 
L 233.828664 213.722175 
L 232.687806 218.157375 
L 232.687806 219.635775 
L 232.30752 221.114175 
L 232.30752 222.592575 
L 231.927234 224.070975 
L 231.927234 225.549375 
L 231.546948 227.027775 
L 231.546948 228.506175 
L 231.166662 229.984575 
L 231.166662 231.462975 
L 230.730918 232.941375 
L 230.730918 235.898175 
L 230.358555 237.376575 
L 230.358555 240.333375 
L 229.986191 241.811775 
L 229.986191 246.246975 
L 229.613828 247.725375 
L 229.613828 253.638975 
L 229.241465 255.117375 
L 229.253224 262.509375 
L 228.876941 263.987775 
L 228.876941 277.293375 
L 228.500658 278.771775 
L 228.500658 289.120575 
L 233.768618 290.598975 
L 233.768618 290.598975 
" style="fill:none;stroke:#2ca02c;stroke-linecap:square;"/>
   </g>
   <g id="line2d_33">
    <path clip-path="url(#p3acd650826)" d="M 183.440781 25.965375 
L 164.673672 27.443775 
L 149.48125 28.922175 
L 136.076172 30.400575 
L 126.245781 31.878975 
L 118.202734 33.357375 
L 112.840703 34.835775 
L 108.372344 36.314175 
L 105.691328 37.792575 
L 104.797656 39.270975 
L 104.797656 40.749375 
L 105.691328 42.227775 
L 107.478672 43.706175 
L 110.159688 45.184575 
L 117.309063 48.141375 
L 121.777422 49.619775 
L 127.139453 51.098175 
L 131.607813 52.576575 
L 136.969844 54.054975 
L 147.693906 55.533375 
L 153.949609 57.011775 
L 159.311641 58.490175 
L 184.334453 64.403775 
L 189.696484 65.882175 
L 195.952188 67.360575 
L 201.314219 68.838975 
L 207.569922 70.317375 
L 223.656016 74.752575 
L 228.124375 76.230975 
L 233.486406 77.709375 
L 251.359844 83.622975 
L 249.5725 85.101375 
L 260.296563 89.536575 
L 271.020625 95.450175 
L 274.595313 98.406975 
L 277.276328 99.885375 
L 278.17 101.363775 
L 281.744688 104.320575 
L 282.638359 105.798975 
L 284.425703 107.277375 
L 288.000391 113.190975 
L 278.17 114.669375 
L 278.17 122.061375 
L 277.276328 123.539775 
L 277.276328 125.018175 
L 276.382656 126.496575 
L 276.382656 127.974975 
L 275.488984 129.453375 
L 275.488984 130.931775 
L 273.701641 133.888575 
L 273.701641 135.366975 
L 271.020625 139.802175 
L 271.020625 141.280575 
L 270.126953 142.758975 
L 262.977578 144.237375 
L 253.147188 160.499775 
L 253.147188 161.978175 
L 248.678828 169.370175 
L 248.678828 170.848575 
L 247.785156 172.326975 
L 245.104141 173.805375 
L 245.104141 175.283775 
L 242.423125 179.718975 
L 242.423125 181.197375 
L 241.529453 182.675775 
L 241.529453 184.154175 
L 239.742109 187.110975 
L 239.742109 188.589375 
L 238.848438 190.067775 
L 238.848438 191.546175 
L 237.954766 193.024575 
L 237.954766 194.502975 
L 237.061094 195.981375 
L 237.061094 198.938175 
L 236.167422 200.416575 
L 236.167422 201.894975 
L 235.27375 203.373375 
L 235.27375 204.851775 
L 234.380078 206.330175 
L 234.380078 209.286975 
L 233.486406 210.765375 
L 233.486406 213.722175 
L 232.592734 215.200575 
L 232.592734 219.635775 
L 231.699063 221.114175 
L 231.699063 228.506175 
L 230.805391 229.984575 
L 230.805391 237.376575 
L 229.911719 238.854975 
L 229.911719 252.160575 
L 229.018047 253.638975 
L 229.018047 286.163775 
L 228.124375 287.642175 
L 228.124375 289.120575 
L 233.486406 290.598975 
L 233.486406 290.598975 
" style="fill:none;stroke:#d62728;stroke-linecap:square;"/>
   </g>
   <g id="text_22">
    <!-- Rayleigh-wave -->
    <defs>
     <path d="M 44.390625 34.1875 
Q 47.5625 33.109375 50.5625 29.59375 
Q 53.5625 26.078125 56.59375 19.921875 
L 66.609375 0 
L 56 0 
L 46.6875 18.703125 
Q 43.0625 26.03125 39.671875 28.421875 
Q 36.28125 30.8125 30.421875 30.8125 
L 19.671875 30.8125 
L 19.671875 0 
L 9.8125 0 
L 9.8125 72.90625 
L 32.078125 72.90625 
Q 44.578125 72.90625 50.734375 67.671875 
Q 56.890625 62.453125 56.890625 51.90625 
Q 56.890625 45.015625 53.6875 40.46875 
Q 50.484375 35.9375 44.390625 34.1875 
z
M 19.671875 64.796875 
L 19.671875 38.921875 
L 32.078125 38.921875 
Q 39.203125 38.921875 42.84375 42.21875 
Q 46.484375 45.515625 46.484375 51.90625 
Q 46.484375 58.296875 42.84375 61.546875 
Q 39.203125 64.796875 32.078125 64.796875 
z
" id="DejaVuSans-82"/>
     <path d="M 34.28125 27.484375 
Q 23.390625 27.484375 19.1875 25 
Q 14.984375 22.515625 14.984375 16.5 
Q 14.984375 11.71875 18.140625 8.90625 
Q 21.296875 6.109375 26.703125 6.109375 
Q 34.1875 6.109375 38.703125 11.40625 
Q 43.21875 16.703125 43.21875 25.484375 
L 43.21875 27.484375 
z
M 52.203125 31.203125 
L 52.203125 0 
L 43.21875 0 
L 43.21875 8.296875 
Q 40.140625 3.328125 35.546875 0.953125 
Q 30.953125 -1.421875 24.3125 -1.421875 
Q 15.921875 -1.421875 10.953125 3.296875 
Q 6 8.015625 6 15.921875 
Q 6 25.140625 12.171875 29.828125 
Q 18.359375 34.515625 30.609375 34.515625 
L 43.21875 34.515625 
L 43.21875 35.40625 
Q 43.21875 41.609375 39.140625 45 
Q 35.0625 48.390625 27.6875 48.390625 
Q 23 48.390625 18.546875 47.265625 
Q 14.109375 46.140625 10.015625 43.890625 
L 10.015625 52.203125 
Q 14.9375 54.109375 19.578125 55.046875 
Q 24.21875 56 28.609375 56 
Q 40.484375 56 46.34375 49.84375 
Q 52.203125 43.703125 52.203125 31.203125 
z
" id="DejaVuSans-97"/>
     <path d="M 45.40625 27.984375 
Q 45.40625 37.75 41.375 43.109375 
Q 37.359375 48.484375 30.078125 48.484375 
Q 22.859375 48.484375 18.828125 43.109375 
Q 14.796875 37.75 14.796875 27.984375 
Q 14.796875 18.265625 18.828125 12.890625 
Q 22.859375 7.515625 30.078125 7.515625 
Q 37.359375 7.515625 41.375 12.890625 
Q 45.40625 18.265625 45.40625 27.984375 
z
M 54.390625 6.78125 
Q 54.390625 -7.171875 48.1875 -13.984375 
Q 42 -20.796875 29.203125 -20.796875 
Q 24.46875 -20.796875 20.265625 -20.09375 
Q 16.0625 -19.390625 12.109375 -17.921875 
L 12.109375 -9.1875 
Q 16.0625 -11.328125 19.921875 -12.34375 
Q 23.78125 -13.375 27.78125 -13.375 
Q 36.625 -13.375 41.015625 -8.765625 
Q 45.40625 -4.15625 45.40625 5.171875 
L 45.40625 9.625 
Q 42.625 4.78125 38.28125 2.390625 
Q 33.9375 0 27.875 0 
Q 17.828125 0 11.671875 7.65625 
Q 5.515625 15.328125 5.515625 27.984375 
Q 5.515625 40.671875 11.671875 48.328125 
Q 17.828125 56 27.875 56 
Q 33.9375 56 38.28125 53.609375 
Q 42.625 51.21875 45.40625 46.390625 
L 45.40625 54.6875 
L 54.390625 54.6875 
z
" id="DejaVuSans-103"/>
     <path d="M 4.890625 31.390625 
L 31.203125 31.390625 
L 31.203125 23.390625 
L 4.890625 23.390625 
z
" id="DejaVuSans-45"/>
     <path d="M 4.203125 54.6875 
L 13.1875 54.6875 
L 24.421875 12.015625 
L 35.59375 54.6875 
L 46.1875 54.6875 
L 57.421875 12.015625 
L 68.609375 54.6875 
L 77.59375 54.6875 
L 63.28125 0 
L 52.6875 0 
L 40.921875 44.828125 
L 29.109375 0 
L 18.5 0 
z
" id="DejaVuSans-119"/>
    </defs>
    <g style="fill:#969696;" transform="translate(166.677063 19.965375)scale(0.168 -0.168)">
     <use xlink:href="#DejaVuSans-82"/>
     <use x="67.232422" xlink:href="#DejaVuSans-97"/>
     <use x="128.511719" xlink:href="#DejaVuSans-121"/>
     <use x="187.691406" xlink:href="#DejaVuSans-108"/>
     <use x="215.474609" xlink:href="#DejaVuSans-101"/>
     <use x="276.998047" xlink:href="#DejaVuSans-105"/>
     <use x="304.78125" xlink:href="#DejaVuSans-103"/>
     <use x="368.257812" xlink:href="#DejaVuSans-104"/>
     <use x="431.636719" xlink:href="#DejaVuSans-45"/>
     <use x="467.720703" xlink:href="#DejaVuSans-119"/>
     <use x="549.507812" xlink:href="#DejaVuSans-97"/>
     <use x="610.787109" xlink:href="#DejaVuSans-118"/>
     <use x="669.966797" xlink:href="#DejaVuSans-101"/>
    </g>
   </g>
   <g id="legend_1">
    <g id="line2d_34">
     <path d="M 318.624375 209.818625 
L 346.624375 209.818625 
" style="fill:none;stroke:#1f77b4;stroke-linecap:square;"/>
    </g>
    <g id="line2d_35"/>
    <g id="text_23">
     <!-- $\partial c / \partial d$ -->
     <defs>
      <path d="M 21.34375 -1.421875 
Q 14.453125 -1.421875 9.96875 2.734375 
Q 4.640625 7.671875 4.640625 16.609375 
Q 4.640625 25.875 9.328125 33.109375 
Q 14.15625 40.53125 22.859375 40.53125 
Q 28.5625 40.53125 33.0625 36.96875 
Q 35.6875 34.859375 37.5 31.34375 
Q 38.140625 35.296875 38.140625 39.796875 
Q 38.140625 46.390625 36.578125 50.203125 
Q 33.109375 58.640625 23.921875 58.640625 
Q 20.453125 58.640625 15.09375 56.5 
L 15.09375 64.703125 
Q 20.75 66.21875 25.828125 66.21875 
Q 38.921875 66.21875 44.484375 54.203125 
Q 47.078125 48.53125 47.078125 40.09375 
Q 47.078125 34.578125 45.84375 28.171875 
Q 42.78125 12.15625 34.8125 4.546875 
Q 28.5625 -1.421875 21.34375 -1.421875 
z
M 12.984375 15.140625 
Q 12.984375 10.25 15.140625 7.625 
Q 17.4375 4.828125 20.953125 4.828125 
Q 24.078125 4.828125 26.5625 7.03125 
Q 30.078125 10.0625 32.671875 14.984375 
Q 34.8125 19.046875 35.890625 23.390625 
Q 31.546875 33.890625 24.03125 33.890625 
Q 17.578125 33.890625 14.75 25.390625 
Q 12.984375 20.125 12.984375 15.140625 
z
" id="DejaVuSans-8706"/>
      <path d="M 53.609375 52.59375 
L 51.8125 43.703125 
Q 48.578125 46.046875 44.9375 47.21875 
Q 41.3125 48.390625 37.40625 48.390625 
Q 33.109375 48.390625 29.21875 46.875 
Q 25.34375 45.359375 22.703125 42.578125 
Q 18.5 38.328125 16.203125 32.609375 
Q 13.921875 26.90625 13.921875 20.796875 
Q 13.921875 13.421875 17.609375 9.8125 
Q 21.296875 6.203125 28.8125 6.203125 
Q 32.515625 6.203125 36.6875 7.328125 
Q 40.875 8.453125 45.40625 10.6875 
L 43.703125 1.8125 
Q 39.796875 0.203125 35.671875 -0.609375 
Q 31.546875 -1.421875 27.203125 -1.421875 
Q 16.3125 -1.421875 10.453125 4.015625 
Q 4.59375 9.46875 4.59375 19.578125 
Q 4.59375 28.078125 7.640625 35.234375 
Q 10.6875 42.390625 16.703125 48.09375 
Q 20.796875 52 26.3125 54 
Q 31.84375 56 38.375 56 
Q 42.1875 56 45.9375 55.140625 
Q 49.703125 54.296875 53.609375 52.59375 
z
" id="DejaVuSans-Oblique-99"/>
      <path d="M 25.390625 72.90625 
L 33.6875 72.90625 
L 8.296875 -9.28125 
L 0 -9.28125 
z
" id="DejaVuSans-47"/>
      <path d="M 41.796875 8.203125 
Q 38.1875 3.46875 33.25 1.015625 
Q 28.328125 -1.421875 22.3125 -1.421875 
Q 14.109375 -1.421875 9.34375 4.171875 
Q 4.59375 9.765625 4.59375 19.484375 
Q 4.59375 27.59375 7.46875 34.9375 
Q 10.359375 42.28125 15.828125 48.09375 
Q 19.4375 51.953125 23.96875 53.96875 
Q 28.515625 56 33.5 56 
Q 38.765625 56 42.796875 53.453125 
Q 46.828125 50.921875 49.03125 46.1875 
L 54.890625 75.984375 
L 63.921875 75.984375 
L 49.125 0 
L 40.09375 0 
z
M 13.921875 21.09375 
Q 13.921875 14.015625 17.109375 10.0625 
Q 20.3125 6.109375 25.984375 6.109375 
Q 30.171875 6.109375 33.765625 8.125 
Q 37.359375 10.15625 40.09375 14.109375 
Q 42.96875 18.21875 44.625 23.578125 
Q 46.296875 28.953125 46.296875 34.1875 
Q 46.296875 40.96875 43.09375 44.765625 
Q 39.890625 48.578125 34.28125 48.578125 
Q 30.03125 48.578125 26.359375 46.578125 
Q 22.703125 44.578125 20.125 40.828125 
Q 17.28125 36.765625 15.59375 31.390625 
Q 13.921875 26.03125 13.921875 21.09375 
z
" id="DejaVuSans-Oblique-100"/>
     </defs>
     <g style="fill:#969696;" transform="translate(357.824375 214.718625)scale(0.14 -0.14)">
      <use transform="translate(0 0.015625)" xlink:href="#DejaVuSans-8706"/>
      <use transform="translate(51.708984 0.015625)" xlink:href="#DejaVuSans-Oblique-99"/>
      <use transform="translate(106.689453 0.015625)" xlink:href="#DejaVuSans-47"/>
      <use transform="translate(140.380859 0.015625)" xlink:href="#DejaVuSans-8706"/>
      <use transform="translate(192.089844 0.015625)" xlink:href="#DejaVuSans-Oblique-100"/>
     </g>
    </g>
    <g id="line2d_36">
     <path d="M 318.624375 230.368 
L 346.624375 230.368 
" style="fill:none;stroke:#ff7f0e;stroke-linecap:square;"/>
    </g>
    <g id="line2d_37"/>
    <g id="text_24">
     <!-- $\partial c / \partial \alpha$ -->
     <defs>
      <path d="M 40.921875 25.4375 
L 40.96875 36.71875 
Q 41.015625 48.25 32.328125 48.296875 
Q 25.828125 48.34375 21.78125 42.921875 
Q 16.703125 36.234375 14.984375 27.296875 
Q 12.890625 16.546875 15.53125 11.421875 
Q 18.265625 6.203125 24.171875 6.203125 
Q 30.71875 6.203125 36.234375 16.609375 
z
M 33.84375 55.90625 
Q 49.078125 56.15625 48.875 40.375 
Q 48.875 40.375 56.5 54.6875 
L 64.5 54.6875 
L 48.734375 25.046875 
L 48.578125 14.359375 
Q 48.578125 11.96875 49.90625 9.96875 
Q 51.421875 7.625 52.984375 7.625 
L 57.328125 7.625 
L 55.859375 0 
L 50.4375 0 
Q 45.84375 0 42.53125 4.109375 
Q 40.96875 6.15625 40.921875 10.453125 
Q 37.75 5.21875 32.28125 0.78125 
Q 29.6875 -1.265625 22.703125 -1.21875 
Q 11.28125 -1.125 7.125 6.203125 
Q 2.875 13.8125 5.515625 27.296875 
Q 8.34375 41.796875 15.765625 48.390625 
Q 24.125 55.765625 33.84375 55.90625 
z
" id="DejaVuSans-Oblique-945"/>
     </defs>
     <g style="fill:#969696;" transform="translate(357.824375 235.268)scale(0.14 -0.14)">
      <use transform="translate(0 0.09375)" xlink:href="#DejaVuSans-8706"/>
      <use transform="translate(51.708984 0.09375)" xlink:href="#DejaVuSans-Oblique-99"/>
      <use transform="translate(106.689453 0.09375)" xlink:href="#DejaVuSans-47"/>
      <use transform="translate(140.380859 0.09375)" xlink:href="#DejaVuSans-8706"/>
      <use transform="translate(192.089844 0.09375)" xlink:href="#DejaVuSans-Oblique-945"/>
     </g>
    </g>
    <g id="line2d_38">
     <path d="M 318.624375 251.059562 
L 346.624375 251.059562 
" style="fill:none;stroke:#2ca02c;stroke-linecap:square;"/>
    </g>
    <g id="line2d_39"/>
    <g id="text_25">
     <!-- $\partial c / \partial \beta$ -->
     <defs>
      <path d="M 13.625 3.375 
L 8.9375 -20.796875 
L -0.09375 -20.796875 
L 14.5 54.34375 
Q 18.84375 76.609375 39.65625 76.609375 
Q 60.75 76.609375 57.171875 57.8125 
Q 54.734375 44.4375 45.21875 39.546875 
Q 58.015625 35.15625 55.515625 22.125 
Q 51.125 -1.078125 27.484375 -1.03125 
Q 17.140625 -0.984375 13.625 3.375 
z
M 15.921875 15.09375 
Q 19.671875 6.59375 29.296875 6.640625 
Q 43.359375 6.640625 46.34375 21.96875 
Q 49.03125 35.75 26.171875 34.671875 
L 27.78125 42.96875 
Q 45.453125 42.671875 48.53125 58.59375 
Q 50.640625 69.34375 39.203125 69.28125 
Q 26.421875 69.28125 23.484375 54.046875 
z
" id="DejaVuSans-Oblique-946"/>
     </defs>
     <g style="fill:#969696;" transform="translate(357.824375 255.959562)scale(0.14 -0.14)">
      <use transform="translate(0 0.390625)" xlink:href="#DejaVuSans-8706"/>
      <use transform="translate(51.708984 0.390625)" xlink:href="#DejaVuSans-Oblique-99"/>
      <use transform="translate(106.689453 0.390625)" xlink:href="#DejaVuSans-47"/>
      <use transform="translate(140.380859 0.390625)" xlink:href="#DejaVuSans-8706"/>
      <use transform="translate(192.089844 0.390625)" xlink:href="#DejaVuSans-Oblique-946"/>
     </g>
    </g>
    <g id="line2d_40">
     <path d="M 318.624375 271.637375 
L 346.624375 271.637375 
" style="fill:none;stroke:#d62728;stroke-linecap:square;"/>
    </g>
    <g id="line2d_41"/>
    <g id="text_26">
     <!-- $\partial c / \partial \rho$ -->
     <defs>
      <path d="M 18.796875 44.921875 
Q 22.703125 49.90625 30.953125 54.296875 
Q 34.1875 56 43.0625 56 
Q 53.03125 56 57.71875 48.09375 
Q 62.40625 40.1875 59.90625 27.296875 
Q 57.375 14.40625 49.609375 6.484375 
Q 41.84375 -1.421875 31.890625 -1.421875 
Q 25.875 -1.421875 22.015625 0.984375 
Q 18.171875 3.328125 16.3125 8.203125 
L 10.640625 -20.796875 
L 1.609375 -20.796875 
L 10.890625 26.8125 
Q 13.09375 38.09375 18.796875 44.921875 
z
M 50.59375 27.296875 
Q 52.484375 37.203125 49.515625 42.875 
Q 46.53125 48.484375 39.40625 48.484375 
Q 32.28125 48.484375 27.09375 42.875 
Q 21.921875 37.203125 20.015625 27.296875 
Q 18.0625 17.390625 21.046875 11.71875 
Q 24.03125 6.109375 31.15625 6.109375 
Q 38.28125 6.109375 43.453125 11.71875 
Q 48.640625 17.390625 50.59375 27.296875 
z
" id="DejaVuSans-Oblique-961"/>
     </defs>
     <g style="fill:#969696;" transform="translate(357.824375 276.537375)scale(0.14 -0.14)">
      <use transform="translate(0 0.09375)" xlink:href="#DejaVuSans-8706"/>
      <use transform="translate(51.708984 0.09375)" xlink:href="#DejaVuSans-Oblique-99"/>
      <use transform="translate(106.689453 0.09375)" xlink:href="#DejaVuSans-47"/>
      <use transform="translate(140.380859 0.09375)" xlink:href="#DejaVuSans-8706"/>
      <use transform="translate(192.089844 0.09375)" xlink:href="#DejaVuSans-Oblique-961"/>
     </g>
    </g>
   </g>
  </g>
 </g>
 <defs>
  <clipPath id="p3acd650826">
   <rect height="266.112" width="357.12" x="49.564375" y="25.965375"/>
  </clipPath>
 </defs>
</svg>
