<?xml version="1.0" encoding="utf-8" standalone="no"?>
<!DOCTYPE svg PUBLIC "-//W3C//DTD SVG 1.1//EN"
  "http://www.w3.org/Graphics/SVG/1.1/DTD/svg11.dtd">
<!-- Created with matplotlib (https://matplotlib.org/) -->
<svg height="337.376125pt" version="1.1" viewBox="0 0 427.24125 337.376125" width="427.24125pt" xmlns="http://www.w3.org/2000/svg" xmlns:xlink="http://www.w3.org/1999/xlink">
 <defs>
  <style type="text/css">
*{stroke-linecap:butt;stroke-linejoin:round;}
  </style>
 </defs>
 <g id="figure_1">
  <g id="patch_1">
   <path d="M 0 337.376125 
L 427.24125 337.376125 
L 427.24125 0 
L 0 0 
z
" style="fill:none;"/>
  </g>
  <g id="axes_1">
   <g id="patch_2">
    <path d="M 54.01375 292.077375 
L 411.13375 292.077375 
L 411.13375 25.965375 
L 54.01375 25.965375 
z
" style="fill:none;"/>
   </g>
   <g id="matplotlib.axis_1">
    <g id="xtick_1">
     <g id="line2d_1">
      <defs>
       <path d="M 0 0 
L 0 3.5 
" id="m630e75718a" style="stroke:#969696;stroke-width:0.3;"/>
      </defs>
      <g>
       <use style="fill:#969696;stroke:#969696;stroke-width:0.3;" x="54.01375" xlink:href="#m630e75718a" y="292.077375"/>
      </g>
     </g>
     <g id="text_1">
      <!-- 0 -->
      <defs>
       <path d="M 31.78125 66.40625 
Q 24.171875 66.40625 20.328125 58.90625 
Q 16.5 51.421875 16.5 36.375 
Q 16.5 21.390625 20.328125 13.890625 
Q 24.171875 6.390625 31.78125 6.390625 
Q 39.453125 6.390625 43.28125 13.890625 
Q 47.125 21.390625 47.125 36.375 
Q 47.125 51.421875 43.28125 58.90625 
Q 39.453125 66.40625 31.78125 66.40625 
z
M 31.78125 74.21875 
Q 44.046875 74.21875 50.515625 64.515625 
Q 56.984375 54.828125 56.984375 36.375 
Q 56.984375 17.96875 50.515625 8.265625 
Q 44.046875 -1.421875 31.78125 -1.421875 
Q 19.53125 -1.421875 13.0625 8.265625 
Q 6.59375 17.96875 6.59375 36.375 
Q 6.59375 54.828125 13.0625 64.515625 
Q 19.53125 74.21875 31.78125 74.21875 
z
" id="DejaVuSans-48"/>
      </defs>
      <g style="fill:#969696;" transform="translate(49.56 309.715187)scale(0.14 -0.14)">
       <use xlink:href="#DejaVuSans-48"/>
      </g>
     </g>
    </g>
    <g id="xtick_2">
     <g id="line2d_2">
      <g>
       <use style="fill:#969696;stroke:#969696;stroke-width:0.3;" x="125.43775" xlink:href="#m630e75718a" y="292.077375"/>
      </g>
     </g>
     <g id="text_2">
      <!-- 2 -->
      <defs>
       <path d="M 19.1875 8.296875 
L 53.609375 8.296875 
L 53.609375 0 
L 7.328125 0 
L 7.328125 8.296875 
Q 12.9375 14.109375 22.625 23.890625 
Q 32.328125 33.6875 34.8125 36.53125 
Q 39.546875 41.84375 41.421875 45.53125 
Q 43.3125 49.21875 43.3125 52.78125 
Q 43.3125 58.59375 39.234375 62.25 
Q 35.15625 65.921875 28.609375 65.921875 
Q 23.96875 65.921875 18.8125 64.3125 
Q 13.671875 62.703125 7.8125 59.421875 
L 7.8125 69.390625 
Q 13.765625 71.78125 18.9375 73 
Q 24.125 74.21875 28.421875 74.21875 
Q 39.75 74.21875 46.484375 68.546875 
Q 53.21875 62.890625 53.21875 53.421875 
Q 53.21875 48.921875 51.53125 44.890625 
Q 49.859375 40.875 45.40625 35.40625 
Q 44.1875 33.984375 37.640625 27.21875 
Q 31.109375 20.453125 19.1875 8.296875 
z
" id="DejaVuSans-50"/>
      </defs>
      <g style="fill:#969696;" transform="translate(120.984 309.715187)scale(0.14 -0.14)">
       <use xlink:href="#DejaVuSans-50"/>
      </g>
     </g>
    </g>
    <g id="xtick_3">
     <g id="line2d_3">
      <g>
       <use style="fill:#969696;stroke:#969696;stroke-width:0.3;" x="196.86175" xlink:href="#m630e75718a" y="292.077375"/>
      </g>
     </g>
     <g id="text_3">
      <!-- 4 -->
      <defs>
       <path d="M 37.796875 64.3125 
L 12.890625 25.390625 
L 37.796875 25.390625 
z
M 35.203125 72.90625 
L 47.609375 72.90625 
L 47.609375 25.390625 
L 58.015625 25.390625 
L 58.015625 17.1875 
L 47.609375 17.1875 
L 47.609375 0 
L 37.796875 0 
L 37.796875 17.1875 
L 4.890625 17.1875 
L 4.890625 26.703125 
z
" id="DejaVuSans-52"/>
      </defs>
      <g style="fill:#969696;" transform="translate(192.408 309.715187)scale(0.14 -0.14)">
       <use xlink:href="#DejaVuSans-52"/>
      </g>
     </g>
    </g>
    <g id="xtick_4">
     <g id="line2d_4">
      <g>
       <use style="fill:#969696;stroke:#969696;stroke-width:0.3;" x="268.28575" xlink:href="#m630e75718a" y="292.077375"/>
      </g>
     </g>
     <g id="text_4">
      <!-- 6 -->
      <defs>
       <path d="M 33.015625 40.375 
Q 26.375 40.375 22.484375 35.828125 
Q 18.609375 31.296875 18.609375 23.390625 
Q 18.609375 15.53125 22.484375 10.953125 
Q 26.375 6.390625 33.015625 6.390625 
Q 39.65625 6.390625 43.53125 10.953125 
Q 47.40625 15.53125 47.40625 23.390625 
Q 47.40625 31.296875 43.53125 35.828125 
Q 39.65625 40.375 33.015625 40.375 
z
M 52.59375 71.296875 
L 52.59375 62.3125 
Q 48.875 64.0625 45.09375 64.984375 
Q 41.3125 65.921875 37.59375 65.921875 
Q 27.828125 65.921875 22.671875 59.328125 
Q 17.53125 52.734375 16.796875 39.40625 
Q 19.671875 43.65625 24.015625 45.921875 
Q 28.375 48.1875 33.59375 48.1875 
Q 44.578125 48.1875 50.953125 41.515625 
Q 57.328125 34.859375 57.328125 23.390625 
Q 57.328125 12.15625 50.6875 5.359375 
Q 44.046875 -1.421875 33.015625 -1.421875 
Q 20.359375 -1.421875 13.671875 8.265625 
Q 6.984375 17.96875 6.984375 36.375 
Q 6.984375 53.65625 15.1875 63.9375 
Q 23.390625 74.21875 37.203125 74.21875 
Q 40.921875 74.21875 44.703125 73.484375 
Q 48.484375 72.75 52.59375 71.296875 
z
" id="DejaVuSans-54"/>
      </defs>
      <g style="fill:#969696;" transform="translate(263.832 309.715187)scale(0.14 -0.14)">
       <use xlink:href="#DejaVuSans-54"/>
      </g>
     </g>
    </g>
    <g id="xtick_5">
     <g id="line2d_5">
      <g>
       <use style="fill:#969696;stroke:#969696;stroke-width:0.3;" x="339.70975" xlink:href="#m630e75718a" y="292.077375"/>
      </g>
     </g>
     <g id="text_5">
      <!-- 8 -->
      <defs>
       <path d="M 31.78125 34.625 
Q 24.75 34.625 20.71875 30.859375 
Q 16.703125 27.09375 16.703125 20.515625 
Q 16.703125 13.921875 20.71875 10.15625 
Q 24.75 6.390625 31.78125 6.390625 
Q 38.8125 6.390625 42.859375 10.171875 
Q 46.921875 13.96875 46.921875 20.515625 
Q 46.921875 27.09375 42.890625 30.859375 
Q 38.875 34.625 31.78125 34.625 
z
M 21.921875 38.8125 
Q 15.578125 40.375 12.03125 44.71875 
Q 8.5 49.078125 8.5 55.328125 
Q 8.5 64.0625 14.71875 69.140625 
Q 20.953125 74.21875 31.78125 74.21875 
Q 42.671875 74.21875 48.875 69.140625 
Q 55.078125 64.0625 55.078125 55.328125 
Q 55.078125 49.078125 51.53125 44.71875 
Q 48 40.375 41.703125 38.8125 
Q 48.828125 37.15625 52.796875 32.3125 
Q 56.78125 27.484375 56.78125 20.515625 
Q 56.78125 9.90625 50.3125 4.234375 
Q 43.84375 -1.421875 31.78125 -1.421875 
Q 19.734375 -1.421875 13.25 4.234375 
Q 6.78125 9.90625 6.78125 20.515625 
Q 6.78125 27.484375 10.78125 32.3125 
Q 14.796875 37.15625 21.921875 38.8125 
z
M 18.3125 54.390625 
Q 18.3125 48.734375 21.84375 45.5625 
Q 25.390625 42.390625 31.78125 42.390625 
Q 38.140625 42.390625 41.71875 45.5625 
Q 45.3125 48.734375 45.3125 54.390625 
Q 45.3125 60.0625 41.71875 63.234375 
Q 38.140625 66.40625 31.78125 66.40625 
Q 25.390625 66.40625 21.84375 63.234375 
Q 18.3125 60.0625 18.3125 54.390625 
z
" id="DejaVuSans-56"/>
      </defs>
      <g style="fill:#969696;" transform="translate(335.256 309.715187)scale(0.14 -0.14)">
       <use xlink:href="#DejaVuSans-56"/>
      </g>
     </g>
    </g>
    <g id="xtick_6">
     <g id="line2d_6">
      <g>
       <use style="fill:#969696;stroke:#969696;stroke-width:0.3;" x="411.13375" xlink:href="#m630e75718a" y="292.077375"/>
      </g>
     </g>
     <g id="text_6">
      <!-- 10 -->
      <defs>
       <path d="M 12.40625 8.296875 
L 28.515625 8.296875 
L 28.515625 63.921875 
L 10.984375 60.40625 
L 10.984375 69.390625 
L 28.421875 72.90625 
L 38.28125 72.90625 
L 38.28125 8.296875 
L 54.390625 8.296875 
L 54.390625 0 
L 12.40625 0 
z
" id="DejaVuSans-49"/>
      </defs>
      <g style="fill:#969696;" transform="translate(402.22625 309.715187)scale(0.14 -0.14)">
       <use xlink:href="#DejaVuSans-49"/>
       <use x="63.623047" xlink:href="#DejaVuSans-48"/>
      </g>
     </g>
    </g>
    <g id="text_7">
     <!-- Frequency [Hz] -->
     <defs>
      <path d="M 9.8125 72.90625 
L 51.703125 72.90625 
L 51.703125 64.59375 
L 19.671875 64.59375 
L 19.671875 43.109375 
L 48.578125 43.109375 
L 48.578125 34.8125 
L 19.671875 34.8125 
L 19.671875 0 
L 9.8125 0 
z
" id="DejaVuSans-70"/>
      <path d="M 41.109375 46.296875 
Q 39.59375 47.171875 37.8125 47.578125 
Q 36.03125 48 33.890625 48 
Q 26.265625 48 22.1875 43.046875 
Q 18.109375 38.09375 18.109375 28.8125 
L 18.109375 0 
L 9.078125 0 
L 9.078125 54.6875 
L 18.109375 54.6875 
L 18.109375 46.1875 
Q 20.953125 51.171875 25.484375 53.578125 
Q 30.03125 56 36.53125 56 
Q 37.453125 56 38.578125 55.875 
Q 39.703125 55.765625 41.0625 55.515625 
z
" id="DejaVuSans-114"/>
      <path d="M 56.203125 29.59375 
L 56.203125 25.203125 
L 14.890625 25.203125 
Q 15.484375 15.921875 20.484375 11.0625 
Q 25.484375 6.203125 34.421875 6.203125 
Q 39.59375 6.203125 44.453125 7.46875 
Q 49.3125 8.734375 54.109375 11.28125 
L 54.109375 2.78125 
Q 49.265625 0.734375 44.1875 -0.34375 
Q 39.109375 -1.421875 33.890625 -1.421875 
Q 20.796875 -1.421875 13.15625 6.1875 
Q 5.515625 13.8125 5.515625 26.8125 
Q 5.515625 40.234375 12.765625 48.109375 
Q 20.015625 56 32.328125 56 
Q 43.359375 56 49.78125 48.890625 
Q 56.203125 41.796875 56.203125 29.59375 
z
M 47.21875 32.234375 
Q 47.125 39.59375 43.09375 43.984375 
Q 39.0625 48.390625 32.421875 48.390625 
Q 24.90625 48.390625 20.390625 44.140625 
Q 15.875 39.890625 15.1875 32.171875 
z
" id="DejaVuSans-101"/>
      <path d="M 14.796875 27.296875 
Q 14.796875 17.390625 18.875 11.75 
Q 22.953125 6.109375 30.078125 6.109375 
Q 37.203125 6.109375 41.296875 11.75 
Q 45.40625 17.390625 45.40625 27.296875 
Q 45.40625 37.203125 41.296875 42.84375 
Q 37.203125 48.484375 30.078125 48.484375 
Q 22.953125 48.484375 18.875 42.84375 
Q 14.796875 37.203125 14.796875 27.296875 
z
M 45.40625 8.203125 
Q 42.578125 3.328125 38.25 0.953125 
Q 33.9375 -1.421875 27.875 -1.421875 
Q 17.96875 -1.421875 11.734375 6.484375 
Q 5.515625 14.40625 5.515625 27.296875 
Q 5.515625 40.1875 11.734375 48.09375 
Q 17.96875 56 27.875 56 
Q 33.9375 56 38.25 53.625 
Q 42.578125 51.265625 45.40625 46.390625 
L 45.40625 54.6875 
L 54.390625 54.6875 
L 54.390625 -20.796875 
L 45.40625 -20.796875 
z
" id="DejaVuSans-113"/>
      <path d="M 8.5 21.578125 
L 8.5 54.6875 
L 17.484375 54.6875 
L 17.484375 21.921875 
Q 17.484375 14.15625 20.5 10.265625 
Q 23.53125 6.390625 29.59375 6.390625 
Q 36.859375 6.390625 41.078125 11.03125 
Q 45.3125 15.671875 45.3125 23.6875 
L 45.3125 54.6875 
L 54.296875 54.6875 
L 54.296875 0 
L 45.3125 0 
L 45.3125 8.40625 
Q 42.046875 3.421875 37.71875 1 
Q 33.40625 -1.421875 27.6875 -1.421875 
Q 18.265625 -1.421875 13.375 4.4375 
Q 8.5 10.296875 8.5 21.578125 
z
M 31.109375 56 
z
" id="DejaVuSans-117"/>
      <path d="M 54.890625 33.015625 
L 54.890625 0 
L 45.90625 0 
L 45.90625 32.71875 
Q 45.90625 40.484375 42.875 44.328125 
Q 39.84375 48.1875 33.796875 48.1875 
Q 26.515625 48.1875 22.3125 43.546875 
Q 18.109375 38.921875 18.109375 30.90625 
L 18.109375 0 
L 9.078125 0 
L 9.078125 54.6875 
L 18.109375 54.6875 
L 18.109375 46.1875 
Q 21.34375 51.125 25.703125 53.5625 
Q 30.078125 56 35.796875 56 
Q 45.21875 56 50.046875 50.171875 
Q 54.890625 44.34375 54.890625 33.015625 
z
" id="DejaVuSans-110"/>
      <path d="M 48.78125 52.59375 
L 48.78125 44.1875 
Q 44.96875 46.296875 41.140625 47.34375 
Q 37.3125 48.390625 33.40625 48.390625 
Q 24.65625 48.390625 19.8125 42.84375 
Q 14.984375 37.3125 14.984375 27.296875 
Q 14.984375 17.28125 19.8125 11.734375 
Q 24.65625 6.203125 33.40625 6.203125 
Q 37.3125 6.203125 41.140625 7.25 
Q 44.96875 8.296875 48.78125 10.40625 
L 48.78125 2.09375 
Q 45.015625 0.34375 40.984375 -0.53125 
Q 36.96875 -1.421875 32.421875 -1.421875 
Q 20.0625 -1.421875 12.78125 6.34375 
Q 5.515625 14.109375 5.515625 27.296875 
Q 5.515625 40.671875 12.859375 48.328125 
Q 20.21875 56 33.015625 56 
Q 37.15625 56 41.109375 55.140625 
Q 45.0625 54.296875 48.78125 52.59375 
z
" id="DejaVuSans-99"/>
      <path d="M 32.171875 -5.078125 
Q 28.375 -14.84375 24.75 -17.8125 
Q 21.140625 -20.796875 15.09375 -20.796875 
L 7.90625 -20.796875 
L 7.90625 -13.28125 
L 13.1875 -13.28125 
Q 16.890625 -13.28125 18.9375 -11.515625 
Q 21 -9.765625 23.484375 -3.21875 
L 25.09375 0.875 
L 2.984375 54.6875 
L 12.5 54.6875 
L 29.59375 11.921875 
L 46.6875 54.6875 
L 56.203125 54.6875 
z
" id="DejaVuSans-121"/>
      <path id="DejaVuSans-32"/>
      <path d="M 8.59375 75.984375 
L 29.296875 75.984375 
L 29.296875 69 
L 17.578125 69 
L 17.578125 -6.203125 
L 29.296875 -6.203125 
L 29.296875 -13.1875 
L 8.59375 -13.1875 
z
" id="DejaVuSans-91"/>
      <path d="M 9.8125 72.90625 
L 19.671875 72.90625 
L 19.671875 43.015625 
L 55.515625 43.015625 
L 55.515625 72.90625 
L 65.375 72.90625 
L 65.375 0 
L 55.515625 0 
L 55.515625 34.71875 
L 19.671875 34.71875 
L 19.671875 0 
L 9.8125 0 
z
" id="DejaVuSans-72"/>
      <path d="M 5.515625 54.6875 
L 48.1875 54.6875 
L 48.1875 46.484375 
L 14.40625 7.171875 
L 48.1875 7.171875 
L 48.1875 0 
L 4.296875 0 
L 4.296875 8.203125 
L 38.09375 47.515625 
L 5.515625 47.515625 
z
" id="DejaVuSans-122"/>
      <path d="M 30.421875 75.984375 
L 30.421875 -13.1875 
L 9.71875 -13.1875 
L 9.71875 -6.203125 
L 21.390625 -6.203125 
L 21.390625 69 
L 9.71875 69 
L 9.71875 75.984375 
z
" id="DejaVuSans-93"/>
     </defs>
     <g style="fill:#969696;" transform="translate(179.787188 327.264562)scale(0.14 -0.14)">
      <use xlink:href="#DejaVuSans-70"/>
      <use x="50.269531" xlink:href="#DejaVuSans-114"/>
      <use x="89.132812" xlink:href="#DejaVuSans-101"/>
      <use x="150.65625" xlink:href="#DejaVuSans-113"/>
      <use x="214.132812" xlink:href="#DejaVuSans-117"/>
      <use x="277.511719" xlink:href="#DejaVuSans-101"/>
      <use x="339.035156" xlink:href="#DejaVuSans-110"/>
      <use x="402.414062" xlink:href="#DejaVuSans-99"/>
      <use x="457.394531" xlink:href="#DejaVuSans-121"/>
      <use x="516.574219" xlink:href="#DejaVuSans-32"/>
      <use x="548.361328" xlink:href="#DejaVuSans-91"/>
      <use x="587.375" xlink:href="#DejaVuSans-72"/>
      <use x="662.570312" xlink:href="#DejaVuSans-122"/>
      <use x="715.060547" xlink:href="#DejaVuSans-93"/>
     </g>
    </g>
   </g>
   <g id="matplotlib.axis_2">
    <g id="ytick_1">
     <g id="line2d_7">
      <path clip-path="url(#pbefe50e174)" d="M 54.01375 267.885375 
L 411.13375 267.885375 
" style="fill:none;stroke:#969696;stroke-linecap:square;stroke-width:0.3;"/>
     </g>
     <g id="line2d_8">
      <defs>
       <path d="M 0 0 
L -3.5 0 
" id="m0eb556b9ac" style="stroke:#969696;stroke-width:0.3;"/>
      </defs>
      <g>
       <use style="fill:#969696;stroke:#969696;stroke-width:0.3;" x="54.01375" xlink:href="#m0eb556b9ac" y="267.885375"/>
      </g>
     </g>
     <g id="text_8">
      <!-- 0.5 -->
      <defs>
       <path d="M 10.6875 12.40625 
L 21 12.40625 
L 21 0 
L 10.6875 0 
z
" id="DejaVuSans-46"/>
       <path d="M 10.796875 72.90625 
L 49.515625 72.90625 
L 49.515625 64.59375 
L 19.828125 64.59375 
L 19.828125 46.734375 
Q 21.96875 47.46875 24.109375 47.828125 
Q 26.265625 48.1875 28.421875 48.1875 
Q 40.625 48.1875 47.75 41.5 
Q 54.890625 34.8125 54.890625 23.390625 
Q 54.890625 11.625 47.5625 5.09375 
Q 40.234375 -1.421875 26.90625 -1.421875 
Q 22.3125 -1.421875 17.546875 -0.640625 
Q 12.796875 0.140625 7.71875 1.703125 
L 7.71875 11.625 
Q 12.109375 9.234375 16.796875 8.0625 
Q 21.484375 6.890625 26.703125 6.890625 
Q 35.15625 6.890625 40.078125 11.328125 
Q 45.015625 15.765625 45.015625 23.390625 
Q 45.015625 31 40.078125 35.4375 
Q 35.15625 39.890625 26.703125 39.890625 
Q 22.75 39.890625 18.8125 39.015625 
Q 14.890625 38.140625 10.796875 36.28125 
z
" id="DejaVuSans-53"/>
      </defs>
      <g style="fill:#969696;" transform="translate(24.749375 273.204281)scale(0.14 -0.14)">
       <use xlink:href="#DejaVuSans-48"/>
       <use x="63.623047" xlink:href="#DejaVuSans-46"/>
       <use x="95.410156" xlink:href="#DejaVuSans-53"/>
      </g>
     </g>
    </g>
    <g id="ytick_2">
     <g id="line2d_9">
      <path clip-path="url(#pbefe50e174)" d="M 54.01375 219.501375 
L 411.13375 219.501375 
" style="fill:none;stroke:#969696;stroke-linecap:square;stroke-width:0.3;"/>
     </g>
     <g id="line2d_10">
      <g>
       <use style="fill:#969696;stroke:#969696;stroke-width:0.3;" x="54.01375" xlink:href="#m0eb556b9ac" y="219.501375"/>
      </g>
     </g>
     <g id="text_9">
      <!-- 0.6 -->
      <g style="fill:#969696;" transform="translate(24.749375 224.820281)scale(0.14 -0.14)">
       <use xlink:href="#DejaVuSans-48"/>
       <use x="63.623047" xlink:href="#DejaVuSans-46"/>
       <use x="95.410156" xlink:href="#DejaVuSans-54"/>
      </g>
     </g>
    </g>
    <g id="ytick_3">
     <g id="line2d_11">
      <path clip-path="url(#pbefe50e174)" d="M 54.01375 171.117375 
L 411.13375 171.117375 
" style="fill:none;stroke:#969696;stroke-linecap:square;stroke-width:0.3;"/>
     </g>
     <g id="line2d_12">
      <g>
       <use style="fill:#969696;stroke:#969696;stroke-width:0.3;" x="54.01375" xlink:href="#m0eb556b9ac" y="171.117375"/>
      </g>
     </g>
     <g id="text_10">
      <!-- 0.7 -->
      <defs>
       <path d="M 8.203125 72.90625 
L 55.078125 72.90625 
L 55.078125 68.703125 
L 28.609375 0 
L 18.3125 0 
L 43.21875 64.59375 
L 8.203125 64.59375 
z
" id="DejaVuSans-55"/>
      </defs>
      <g style="fill:#969696;" transform="translate(24.749375 176.436281)scale(0.14 -0.14)">
       <use xlink:href="#DejaVuSans-48"/>
       <use x="63.623047" xlink:href="#DejaVuSans-46"/>
       <use x="95.410156" xlink:href="#DejaVuSans-55"/>
      </g>
     </g>
    </g>
    <g id="ytick_4">
     <g id="line2d_13">
      <path clip-path="url(#pbefe50e174)" d="M 54.01375 122.733375 
L 411.13375 122.733375 
" style="fill:none;stroke:#969696;stroke-linecap:square;stroke-width:0.3;"/>
     </g>
     <g id="line2d_14">
      <g>
       <use style="fill:#969696;stroke:#969696;stroke-width:0.3;" x="54.01375" xlink:href="#m0eb556b9ac" y="122.733375"/>
      </g>
     </g>
     <g id="text_11">
      <!-- 0.8 -->
      <g style="fill:#969696;" transform="translate(24.749375 128.052281)scale(0.14 -0.14)">
       <use xlink:href="#DejaVuSans-48"/>
       <use x="63.623047" xlink:href="#DejaVuSans-46"/>
       <use x="95.410156" xlink:href="#DejaVuSans-56"/>
      </g>
     </g>
    </g>
    <g id="ytick_5">
     <g id="line2d_15">
      <path clip-path="url(#pbefe50e174)" d="M 54.01375 74.349375 
L 411.13375 74.349375 
" style="fill:none;stroke:#969696;stroke-linecap:square;stroke-width:0.3;"/>
     </g>
     <g id="line2d_16">
      <g>
       <use style="fill:#969696;stroke:#969696;stroke-width:0.3;" x="54.01375" xlink:href="#m0eb556b9ac" y="74.349375"/>
      </g>
     </g>
     <g id="text_12">
      <!-- 0.9 -->
      <defs>
       <path d="M 10.984375 1.515625 
L 10.984375 10.5 
Q 14.703125 8.734375 18.5 7.8125 
Q 22.3125 6.890625 25.984375 6.890625 
Q 35.75 6.890625 40.890625 13.453125 
Q 46.046875 20.015625 46.78125 33.40625 
Q 43.953125 29.203125 39.59375 26.953125 
Q 35.25 24.703125 29.984375 24.703125 
Q 19.046875 24.703125 12.671875 31.3125 
Q 6.296875 37.9375 6.296875 49.421875 
Q 6.296875 60.640625 12.9375 67.421875 
Q 19.578125 74.21875 30.609375 74.21875 
Q 43.265625 74.21875 49.921875 64.515625 
Q 56.59375 54.828125 56.59375 36.375 
Q 56.59375 19.140625 48.40625 8.859375 
Q 40.234375 -1.421875 26.421875 -1.421875 
Q 22.703125 -1.421875 18.890625 -0.6875 
Q 15.09375 0.046875 10.984375 1.515625 
z
M 30.609375 32.421875 
Q 37.25 32.421875 41.125 36.953125 
Q 45.015625 41.5 45.015625 49.421875 
Q 45.015625 57.28125 41.125 61.84375 
Q 37.25 66.40625 30.609375 66.40625 
Q 23.96875 66.40625 20.09375 61.84375 
Q 16.21875 57.28125 16.21875 49.421875 
Q 16.21875 41.5 20.09375 36.953125 
Q 23.96875 32.421875 30.609375 32.421875 
z
" id="DejaVuSans-57"/>
      </defs>
      <g style="fill:#969696;" transform="translate(24.749375 79.668281)scale(0.14 -0.14)">
       <use xlink:href="#DejaVuSans-48"/>
       <use x="63.623047" xlink:href="#DejaVuSans-46"/>
       <use x="95.410156" xlink:href="#DejaVuSans-57"/>
      </g>
     </g>
    </g>
    <g id="ytick_6">
     <g id="line2d_17">
      <path clip-path="url(#pbefe50e174)" d="M 54.01375 25.965375 
L 411.13375 25.965375 
" style="fill:none;stroke:#969696;stroke-linecap:square;stroke-width:0.3;"/>
     </g>
     <g id="line2d_18">
      <g>
       <use style="fill:#969696;stroke:#969696;stroke-width:0.3;" x="54.01375" xlink:href="#m0eb556b9ac" y="25.965375"/>
      </g>
     </g>
     <g id="text_13">
      <!-- 1.0 -->
      <g style="fill:#969696;" transform="translate(24.749375 31.284281)scale(0.14 -0.14)">
       <use xlink:href="#DejaVuSans-49"/>
       <use x="63.623047" xlink:href="#DejaVuSans-46"/>
       <use x="95.410156" xlink:href="#DejaVuSans-48"/>
      </g>
     </g>
    </g>
    <g id="text_14">
     <!-- Phase velocity [km/s] -->
     <defs>
      <path d="M 19.671875 64.796875 
L 19.671875 37.40625 
L 32.078125 37.40625 
Q 38.96875 37.40625 42.71875 40.96875 
Q 46.484375 44.53125 46.484375 51.125 
Q 46.484375 57.671875 42.71875 61.234375 
Q 38.96875 64.796875 32.078125 64.796875 
z
M 9.8125 72.90625 
L 32.078125 72.90625 
Q 44.34375 72.90625 50.609375 67.359375 
Q 56.890625 61.8125 56.890625 51.125 
Q 56.890625 40.328125 50.609375 34.8125 
Q 44.34375 29.296875 32.078125 29.296875 
L 19.671875 29.296875 
L 19.671875 0 
L 9.8125 0 
z
" id="DejaVuSans-80"/>
      <path d="M 54.890625 33.015625 
L 54.890625 0 
L 45.90625 0 
L 45.90625 32.71875 
Q 45.90625 40.484375 42.875 44.328125 
Q 39.84375 48.1875 33.796875 48.1875 
Q 26.515625 48.1875 22.3125 43.546875 
Q 18.109375 38.921875 18.109375 30.90625 
L 18.109375 0 
L 9.078125 0 
L 9.078125 75.984375 
L 18.109375 75.984375 
L 18.109375 46.1875 
Q 21.34375 51.125 25.703125 53.5625 
Q 30.078125 56 35.796875 56 
Q 45.21875 56 50.046875 50.171875 
Q 54.890625 44.34375 54.890625 33.015625 
z
" id="DejaVuSans-104"/>
      <path d="M 34.28125 27.484375 
Q 23.390625 27.484375 19.1875 25 
Q 14.984375 22.515625 14.984375 16.5 
Q 14.984375 11.71875 18.140625 8.90625 
Q 21.296875 6.109375 26.703125 6.109375 
Q 34.1875 6.109375 38.703125 11.40625 
Q 43.21875 16.703125 43.21875 25.484375 
L 43.21875 27.484375 
z
M 52.203125 31.203125 
L 52.203125 0 
L 43.21875 0 
L 43.21875 8.296875 
Q 40.140625 3.328125 35.546875 0.953125 
Q 30.953125 -1.421875 24.3125 -1.421875 
Q 15.921875 -1.421875 10.953125 3.296875 
Q 6 8.015625 6 15.921875 
Q 6 25.140625 12.171875 29.828125 
Q 18.359375 34.515625 30.609375 34.515625 
L 43.21875 34.515625 
L 43.21875 35.40625 
Q 43.21875 41.609375 39.140625 45 
Q 35.0625 48.390625 27.6875 48.390625 
Q 23 48.390625 18.546875 47.265625 
Q 14.109375 46.140625 10.015625 43.890625 
L 10.015625 52.203125 
Q 14.9375 54.109375 19.578125 55.046875 
Q 24.21875 56 28.609375 56 
Q 40.484375 56 46.34375 49.84375 
Q 52.203125 43.703125 52.203125 31.203125 
z
" id="DejaVuSans-97"/>
      <path d="M 44.28125 53.078125 
L 44.28125 44.578125 
Q 40.484375 46.53125 36.375 47.5 
Q 32.28125 48.484375 27.875 48.484375 
Q 21.1875 48.484375 17.84375 46.4375 
Q 14.5 44.390625 14.5 40.28125 
Q 14.5 37.15625 16.890625 35.375 
Q 19.28125 33.59375 26.515625 31.984375 
L 29.59375 31.296875 
Q 39.15625 29.25 43.1875 25.515625 
Q 47.21875 21.78125 47.21875 15.09375 
Q 47.21875 7.46875 41.1875 3.015625 
Q 35.15625 -1.421875 24.609375 -1.421875 
Q 20.21875 -1.421875 15.453125 -0.5625 
Q 10.6875 0.296875 5.421875 2 
L 5.421875 11.28125 
Q 10.40625 8.6875 15.234375 7.390625 
Q 20.0625 6.109375 24.8125 6.109375 
Q 31.15625 6.109375 34.5625 8.28125 
Q 37.984375 10.453125 37.984375 14.40625 
Q 37.984375 18.0625 35.515625 20.015625 
Q 33.0625 21.96875 24.703125 23.78125 
L 21.578125 24.515625 
Q 13.234375 26.265625 9.515625 29.90625 
Q 5.8125 33.546875 5.8125 39.890625 
Q 5.8125 47.609375 11.28125 51.796875 
Q 16.75 56 26.8125 56 
Q 31.78125 56 36.171875 55.265625 
Q 40.578125 54.546875 44.28125 53.078125 
z
" id="DejaVuSans-115"/>
      <path d="M 2.984375 54.6875 
L 12.5 54.6875 
L 29.59375 8.796875 
L 46.6875 54.6875 
L 56.203125 54.6875 
L 35.6875 0 
L 23.484375 0 
z
" id="DejaVuSans-118"/>
      <path d="M 9.421875 75.984375 
L 18.40625 75.984375 
L 18.40625 0 
L 9.421875 0 
z
" id="DejaVuSans-108"/>
      <path d="M 30.609375 48.390625 
Q 23.390625 48.390625 19.1875 42.75 
Q 14.984375 37.109375 14.984375 27.296875 
Q 14.984375 17.484375 19.15625 11.84375 
Q 23.34375 6.203125 30.609375 6.203125 
Q 37.796875 6.203125 41.984375 11.859375 
Q 46.1875 17.53125 46.1875 27.296875 
Q 46.1875 37.015625 41.984375 42.703125 
Q 37.796875 48.390625 30.609375 48.390625 
z
M 30.609375 56 
Q 42.328125 56 49.015625 48.375 
Q 55.71875 40.765625 55.71875 27.296875 
Q 55.71875 13.875 49.015625 6.21875 
Q 42.328125 -1.421875 30.609375 -1.421875 
Q 18.84375 -1.421875 12.171875 6.21875 
Q 5.515625 13.875 5.515625 27.296875 
Q 5.515625 40.765625 12.171875 48.375 
Q 18.84375 56 30.609375 56 
z
" id="DejaVuSans-111"/>
      <path d="M 9.421875 54.6875 
L 18.40625 54.6875 
L 18.40625 0 
L 9.421875 0 
z
M 9.421875 75.984375 
L 18.40625 75.984375 
L 18.40625 64.59375 
L 9.421875 64.59375 
z
" id="DejaVuSans-105"/>
      <path d="M 18.3125 70.21875 
L 18.3125 54.6875 
L 36.8125 54.6875 
L 36.8125 47.703125 
L 18.3125 47.703125 
L 18.3125 18.015625 
Q 18.3125 11.328125 20.140625 9.421875 
Q 21.96875 7.515625 27.59375 7.515625 
L 36.8125 7.515625 
L 36.8125 0 
L 27.59375 0 
Q 17.1875 0 13.234375 3.875 
Q 9.28125 7.765625 9.28125 18.015625 
L 9.28125 47.703125 
L 2.6875 47.703125 
L 2.6875 54.6875 
L 9.28125 54.6875 
L 9.28125 70.21875 
z
" id="DejaVuSans-116"/>
      <path d="M 9.078125 75.984375 
L 18.109375 75.984375 
L 18.109375 31.109375 
L 44.921875 54.6875 
L 56.390625 54.6875 
L 27.390625 29.109375 
L 57.625 0 
L 45.90625 0 
L 18.109375 26.703125 
L 18.109375 0 
L 9.078125 0 
z
" id="DejaVuSans-107"/>
      <path d="M 52 44.1875 
Q 55.375 50.25 60.0625 53.125 
Q 64.75 56 71.09375 56 
Q 79.640625 56 84.28125 50.015625 
Q 88.921875 44.046875 88.921875 33.015625 
L 88.921875 0 
L 79.890625 0 
L 79.890625 32.71875 
Q 79.890625 40.578125 77.09375 44.375 
Q 74.3125 48.1875 68.609375 48.1875 
Q 61.625 48.1875 57.5625 43.546875 
Q 53.515625 38.921875 53.515625 30.90625 
L 53.515625 0 
L 44.484375 0 
L 44.484375 32.71875 
Q 44.484375 40.625 41.703125 44.40625 
Q 38.921875 48.1875 33.109375 48.1875 
Q 26.21875 48.1875 22.15625 43.53125 
Q 18.109375 38.875 18.109375 30.90625 
L 18.109375 0 
L 9.078125 0 
L 9.078125 54.6875 
L 18.109375 54.6875 
L 18.109375 46.1875 
Q 21.1875 51.21875 25.484375 53.609375 
Q 29.78125 56 35.6875 56 
Q 41.65625 56 45.828125 52.96875 
Q 50 49.953125 52 44.1875 
z
" id="DejaVuSans-109"/>
      <path d="M 25.390625 72.90625 
L 33.6875 72.90625 
L 8.296875 -9.28125 
L 0 -9.28125 
z
" id="DejaVuSans-47"/>
     </defs>
     <g style="fill:#969696;" transform="translate(17.837813 234.069031)rotate(-90)scale(0.14 -0.14)">
      <use xlink:href="#DejaVuSans-80"/>
      <use x="60.302734" xlink:href="#DejaVuSans-104"/>
      <use x="123.681641" xlink:href="#DejaVuSans-97"/>
      <use x="184.960938" xlink:href="#DejaVuSans-115"/>
      <use x="237.060547" xlink:href="#DejaVuSans-101"/>
      <use x="298.583984" xlink:href="#DejaVuSans-32"/>
      <use x="330.371094" xlink:href="#DejaVuSans-118"/>
      <use x="389.550781" xlink:href="#DejaVuSans-101"/>
      <use x="451.074219" xlink:href="#DejaVuSans-108"/>
      <use x="478.857422" xlink:href="#DejaVuSans-111"/>
      <use x="540.039062" xlink:href="#DejaVuSans-99"/>
      <use x="595.019531" xlink:href="#DejaVuSans-105"/>
      <use x="622.802734" xlink:href="#DejaVuSans-116"/>
      <use x="662.011719" xlink:href="#DejaVuSans-121"/>
      <use x="721.191406" xlink:href="#DejaVuSans-32"/>
      <use x="752.978516" xlink:href="#DejaVuSans-91"/>
      <use x="791.992188" xlink:href="#DejaVuSans-107"/>
      <use x="849.902344" xlink:href="#DejaVuSans-109"/>
      <use x="947.314453" xlink:href="#DejaVuSans-47"/>
      <use x="981.005859" xlink:href="#DejaVuSans-115"/>
      <use x="1033.105469" xlink:href="#DejaVuSans-93"/>
     </g>
    </g>
   </g>
   <g id="line2d_19">
    <path clip-path="url(#pbefe50e174)" d="M 411.13375 284.208744 
L 407.56255 284.208626 
L 403.99135 284.208744 
L 400.42015 284.208626 
L 396.84895 284.208744 
L 393.27775 284.208626 
L 389.70655 284.208744 
L 386.13535 284.208626 
L 382.56415 284.208744 
L 378.99295 284.208626 
L 375.42175 284.208744 
L 371.85055 284.208626 
L 368.27935 284.208744 
L 364.70815 284.208626 
L 361.13695 284.208744 
L 357.56575 284.208626 
L 353.99455 284.208744 
L 350.42335 284.208626 
L 346.85215 284.208744 
L 343.28095 284.208626 
L 339.70975 284.208744 
L 336.13855 284.208626 
L 332.56735 284.208744 
L 328.99615 284.208626 
L 325.42495 284.208744 
L 321.85375 284.208626 
L 318.28255 284.208744 
L 314.71135 284.208626 
L 311.14015 284.208744 
L 307.56895 284.208626 
L 303.99775 284.208744 
L 300.42655 284.208626 
L 296.85535 284.208744 
L 293.28415 284.208626 
L 289.71295 284.208744 
L 286.14175 284.208626 
L 282.57055 284.208744 
L 278.99935 284.208626 
L 275.42815 284.208744 
L 271.85695 284.208626 
L 268.28575 284.208744 
L 264.71455 284.208626 
L 261.14335 284.208744 
L 257.57215 284.208626 
L 254.00095 284.208744 
L 250.42975 284.208626 
L 246.85855 284.208744 
L 243.28735 284.208626 
L 239.71615 284.208744 
L 236.14495 284.208626 
L 232.57375 284.208744 
L 229.00255 284.208626 
L 225.43135 284.208744 
L 221.86015 284.208626 
L 218.28895 284.208744 
L 214.71775 284.208626 
L 211.14655 284.208744 
L 207.57535 284.208626 
L 204.00415 284.208744 
L 200.43295 284.208626 
L 196.86175 284.208744 
L 193.29055 284.208626 
L 189.71935 284.208744 
L 186.14815 284.208626 
L 182.57695 284.208744 
L 179.00575 284.208626 
L 175.43455 284.208744 
L 171.86335 284.208626 
L 168.29215 284.208744 
L 164.72095 284.208626 
L 161.14975 284.208508 
L 157.57855 284.208626 
L 154.00735 284.208508 
L 150.43615 284.20839 
L 146.86495 284.208035 
L 143.29375 284.207681 
L 139.72255 284.20709 
L 136.15135 284.206027 
L 132.58015 284.204491 
L 129.00895 284.201775 
L 125.43775 284.197404 
L 121.86655 284.190435 
L 118.29535 284.178976 
L 114.72415 284.160431 
L 111.15295 284.1296 
L 107.58175 284.079397 
L 104.01055 283.996828 
L 100.43935 283.859921 
L 96.86815 283.631113 
L 93.29695 283.244253 
L 89.72575 282.579328 
L 86.15455 281.408355 
L 82.58335 279.27419 
L 79.01215 275.198287 
L 75.44095 266.958123 
L 71.86975 251.525092 
L 68.29855 239.909861 
L 64.72735 245.10996 
L 61.15615 262.075308 
L 57.58495 296.404441 
" style="fill:none;stroke:#1f77b4;stroke-linecap:square;"/>
   </g>
   <g id="line2d_20">
    <path clip-path="url(#pbefe50e174)" d="M 411.13375 267.539067 
L 407.56255 267.531743 
L 403.99135 267.523947 
L 400.42015 267.515678 
L 396.84895 267.507409 
L 393.27775 267.498668 
L 389.70655 267.489927 
L 386.13535 267.480713 
L 382.56415 267.471027 
L 378.99295 267.461341 
L 375.42175 267.451182 
L 371.85055 267.440551 
L 368.27935 267.429447 
L 364.70815 267.417871 
L 361.13695 267.406294 
L 357.56575 267.393773 
L 353.99455 267.381252 
L 350.42335 267.367786 
L 346.85215 267.353847 
L 343.28095 267.339908 
L 339.70975 267.324552 
L 336.13855 267.309196 
L 332.56735 267.292894 
L 328.99615 267.276121 
L 325.42495 267.258402 
L 321.85375 267.239738 
L 318.28255 267.220602 
L 314.71135 267.200048 
L 311.14015 267.179022 
L 307.56895 267.157051 
L 303.99775 267.133662 
L 300.42655 267.109801 
L 296.85535 267.084049 
L 293.28415 267.057353 
L 289.71295 267.029239 
L 286.14175 266.999708 
L 282.57055 266.968759 
L 278.99935 266.935921 
L 275.42815 266.901192 
L 271.85695 266.864573 
L 268.28575 266.826064 
L 264.71455 266.785193 
L 261.14335 266.741959 
L 257.57215 266.696363 
L 254.00095 266.647459 
L 250.42975 266.596193 
L 246.85855 266.541147 
L 243.28735 266.482321 
L 239.71615 266.420187 
L 236.14495 266.353328 
L 232.57375 266.281744 
L 229.00255 266.205436 
L 225.43135 266.123457 
L 221.86015 266.035336 
L 218.28895 265.940127 
L 214.71775 265.837831 
L 211.14655 265.727029 
L 207.57535 265.607251 
L 204.00415 265.477077 
L 200.43295 265.335091 
L 196.86175 265.180819 
L 193.29055 265.011901 
L 189.71935 264.826444 
L 186.14815 264.623033 
L 182.57695 264.398359 
L 179.00575 264.150061 
L 175.43455 263.874357 
L 171.86335 263.566996 
L 168.29215 263.223252 
L 164.72095 262.837456 
L 161.14975 262.402047 
L 157.57855 261.908521 
L 154.00735 261.345537 
L 150.43615 260.700338 
L 146.86495 259.956387 
L 143.29375 259.091948 
L 139.72255 258.080562 
L 136.15135 256.886791 
L 132.58015 255.465747 
L 129.00895 253.755533 
L 125.43775 251.674407 
L 121.86655 249.106606 
L 118.29535 245.891479 
L 114.72415 241.794668 
L 111.15295 236.470302 
L 107.58175 229.395796 
L 104.01055 219.791997 
L 100.43935 206.632163 
L 96.86815 189.474034 
L 93.29695 172.367408 
L 89.72575 163.951002 
L 86.15455 163.160273 
L 82.58335 165.300462 
L 79.01215 167.538931 
L 75.44095 164.983887 
L 71.86975 132.123166 
L 68.29855 39.528049 
" style="fill:none;stroke:#1f77b4;stroke-linecap:square;"/>
   </g>
   <g id="line2d_21">
    <path clip-path="url(#pbefe50e174)" d="M 411.13375 266.493547 
L 407.56255 266.463071 
L 403.99135 266.43165 
L 400.42015 266.399283 
L 396.84895 266.365972 
L 393.27775 266.331243 
L 389.70655 266.295097 
L 386.13535 266.258006 
L 382.56415 266.219497 
L 378.99295 266.179571 
L 375.42175 266.138227 
L 371.85055 266.094993 
L 368.27935 266.050815 
L 364.70815 266.004746 
L 361.13695 265.956787 
L 357.56575 265.906938 
L 353.99455 265.8552 
L 350.42335 265.801571 
L 346.85215 265.74558 
L 343.28095 265.687226 
L 339.70975 265.62651 
L 336.13855 265.563431 
L 332.56735 265.497517 
L 328.99615 265.428768 
L 325.42495 265.356712 
L 321.85375 265.281821 
L 318.28255 265.203622 
L 314.71135 265.121643 
L 311.14015 265.035885 
L 307.56895 264.945873 
L 303.99775 264.85161 
L 300.42655 264.753093 
L 296.85535 264.64938 
L 293.28415 264.540468 
L 289.71295 264.425887 
L 286.14175 264.305636 
L 282.57055 264.17877 
L 278.99935 264.044816 
L 275.42815 263.903775 
L 271.85695 263.754701 
L 268.28575 263.597122 
L 264.71455 263.430093 
L 261.14335 263.253615 
L 257.57215 263.066268 
L 254.00095 262.86711 
L 250.42975 262.655193 
L 246.85855 262.429575 
L 243.28735 262.189308 
L 239.71615 261.932977 
L 236.14495 261.658691 
L 232.57375 261.36456 
L 229.00255 261.049638 
L 225.43135 260.711092 
L 221.86015 260.346558 
L 218.28895 259.953675 
L 214.71775 259.529606 
L 211.14655 259.0701 
L 207.57535 258.571376 
L 204.00415 258.029182 
L 200.43295 257.437848 
L 196.86175 256.791705 
L 193.29055 256.083663 
L 189.71935 255.30522 
L 186.14815 254.446923 
L 182.57695 253.496962 
L 179.00575 252.442106 
L 175.43455 251.265817 
L 171.86335 249.949196 
L 168.29215 248.467672 
L 164.72095 246.793368 
L 161.14975 244.889902 
L 157.57855 242.713331 
L 154.00735 240.207427 
L 150.43615 237.301788 
L 146.86495 233.905695 
L 143.29375 229.900548 
L 139.72255 225.132315 
L 136.15135 219.397346 
L 132.58015 212.430097 
L 129.00895 203.891313 
L 125.43775 193.387875 
L 121.86655 180.594701 
L 118.29535 165.693705 
L 114.72415 150.487001 
L 111.15295 139.1307 
L 107.58175 133.729788 
L 104.01055 131.88444 
L 100.43935 131.037483 
L 96.86815 128.695537 
L 93.29695 120.061781 
L 89.72575 101.772015 
L 86.15455 80.318861 
L 82.58335 58.366275 
L 79.01215 31.737592 
" style="fill:none;stroke:#1f77b4;stroke-linecap:square;"/>
   </g>
   <g id="line2d_22">
    <path clip-path="url(#pbefe50e174)" d="M 411.13375 264.727937 
L 407.56255 264.658244 
L 403.99135 264.586187 
L 400.42015 264.512241 
L 396.84895 264.43546 
L 393.27775 264.355844 
L 389.70655 264.273392 
L 386.13535 264.188106 
L 382.56415 264.099985 
L 378.99295 264.008556 
L 375.42175 263.91382 
L 371.85055 263.815304 
L 368.27935 263.713007 
L 364.70815 263.607404 
L 361.13695 263.497075 
L 357.56575 263.382494 
L 353.99455 263.26366 
L 350.42335 263.140101 
L 346.85215 263.010872 
L 343.28095 262.876919 
L 339.70975 262.736822 
L 336.13855 262.591056 
L 332.56735 262.439147 
L 328.99615 262.280624 
L 325.42495 262.11454 
L 321.85375 261.941369 
L 318.28255 261.759692 
L 314.71135 261.569984 
L 311.14015 261.371297 
L 307.56895 261.162689 
L 303.99775 260.944157 
L 300.42655 260.714759 
L 296.85535 260.473547 
L 293.28415 260.220051 
L 289.71295 259.953325 
L 286.14175 259.671951 
L 282.57055 259.375457 
L 278.99935 259.062426 
L 275.42815 258.73144 
L 271.85695 258.381554 
L 268.28575 258.01135 
L 264.71455 257.618466 
L 261.14335 257.201485 
L 257.57215 256.758516 
L 254.00095 256.287197 
L 250.42975 255.784694 
L 246.85855 255.248642 
L 243.28735 254.675736 
L 239.71615 254.062195 
L 236.14495 253.404711 
L 232.57375 252.698087 
L 229.00255 251.938071 
L 225.43135 251.11852 
L 221.86015 250.232819 
L 218.28895 249.27388 
L 214.71775 248.233199 
L 211.14655 247.10038 
L 207.57535 245.865029 
L 204.00415 244.513442 
L 200.43295 243.030501 
L 196.86175 241.397777 
L 193.29055 239.593536 
L 189.71935 237.593207 
L 186.14815 235.366079 
L 182.57695 232.875767 
L 179.00575 230.077386 
L 175.43455 226.91707 
L 171.86335 223.328669 
L 168.29215 219.23044 
L 164.72095 214.520796 
L 161.14975 209.07547 
L 157.57855 202.742789 
L 154.00735 195.343675 
L 150.43615 186.680624 
L 146.86495 176.581172 
L 143.29375 164.998071 
L 139.72255 152.238445 
L 136.15135 139.311554 
L 132.58015 128.059202 
L 129.00895 120.137504 
L 125.43775 115.385807 
L 121.86655 112.320464 
L 118.29535 109.22866 
L 114.72415 103.682691 
L 111.15295 91.970125 
L 107.58175 72.750951 
L 104.01055 47.565047 
" style="fill:none;stroke:#1f77b4;stroke-linecap:square;"/>
   </g>
   <g id="line2d_23">
    <path clip-path="url(#pbefe50e174)" d="M 411.13375 262.20302 
L 407.56255 262.076154 
L 403.99135 261.945508 
L 400.42015 261.810137 
L 396.84895 261.67004 
L 393.27775 261.524747 
L 389.70655 261.374728 
L 386.13535 261.219039 
L 382.56415 261.05768 
L 378.99295 260.890179 
L 375.42175 260.716535 
L 371.85055 260.536277 
L 368.27935 260.349403 
L 364.70815 260.154969 
L 361.13695 259.952503 
L 357.56575 259.742477 
L 353.99455 259.523473 
L 350.42335 259.295964 
L 346.85215 259.058533 
L 343.28095 258.811179 
L 339.70975 258.552958 
L 336.13855 258.283397 
L 332.56735 258.002495 
L 328.99615 257.708364 
L 325.42495 257.40053 
L 321.85375 257.078994 
L 318.28255 256.741865 
L 314.71135 256.388672 
L 311.14015 256.017995 
L 307.56895 255.628892 
L 303.99775 255.219943 
L 300.42655 254.789732 
L 296.85535 254.337313 
L 293.28415 253.860324 
L 289.71295 253.357348 
L 286.14175 252.826494 
L 282.57055 252.2654 
L 278.99935 251.671232 
L 275.42815 251.04257 
L 271.85695 250.375164 
L 268.28575 249.66665 
L 264.71455 248.913249 
L 261.14335 248.11118 
L 257.57215 247.255719 
L 254.00095 246.341668 
L 250.42975 245.363829 
L 246.85855 244.316533 
L 243.28735 243.191274 
L 239.71615 241.981438 
L 236.14495 240.677102 
L 232.57375 239.268343 
L 229.00255 237.742877 
L 225.43135 236.087473 
L 221.86015 234.286067 
L 218.28895 232.32023 
L 214.71775 230.169174 
L 211.14655 227.807855 
L 207.57535 225.206979 
L 204.00415 222.332053 
L 200.43295 219.141969 
L 196.86175 215.588533 
L 193.29055 211.614099 
L 189.71935 207.148738 
L 186.14815 202.112597 
L 182.57695 196.409758 
L 179.00575 189.932964 
L 175.43455 182.568815 
L 171.86335 174.211944 
L 168.29215 164.80565 
L 164.72095 154.409942 
L 161.14975 143.313515 
L 157.57855 132.129677 
L 154.00735 121.746253 
L 150.43615 113.027447 
L 146.86495 106.37441 
L 143.29375 101.469152 
L 139.72255 97.426205 
L 136.15135 93.062904 
L 132.58015 86.998603 
L 129.00895 78.309092 
L 125.43775 67.536328 
L 121.86655 55.844079 
L 118.29535 43.74926 
L 114.72415 31.147213 
" style="fill:none;stroke:#1f77b4;stroke-linecap:square;"/>
   </g>
   <g id="line2d_24">
    <path clip-path="url(#pbefe50e174)" d="M 411.13375 258.858316 
L 407.56255 258.653959 
L 403.99135 258.442516 
L 400.42015 258.223512 
L 396.84895 257.996948 
L 393.27775 257.761879 
L 389.70655 257.518306 
L 386.13535 257.265754 
L 382.56415 257.003753 
L 378.99295 256.731357 
L 375.42175 256.449038 
L 371.85055 256.155379 
L 368.27935 255.850381 
L 364.70815 255.532624 
L 361.13695 255.202111 
L 357.56575 254.858367 
L 353.99455 254.499503 
L 350.42335 254.125992 
L 346.85215 253.735943 
L 343.28095 253.328412 
L 339.70975 252.903398 
L 336.13855 252.458539 
L 332.56735 251.993363 
L 328.99615 251.506452 
L 325.42495 250.995916 
L 321.85375 250.460809 
L 318.28255 249.899243 
L 314.71135 249.309327 
L 311.14015 248.689171 
L 307.56895 248.036412 
L 303.99775 247.348688 
L 300.42655 246.624109 
L 296.85535 245.858896 
L 293.28415 245.050212 
L 289.71295 244.194751 
L 286.14175 243.288732 
L 282.57055 242.327903 
L 278.99935 241.307539 
L 275.42815 240.221971 
L 271.85695 239.066472 
L 268.28575 237.833483 
L 264.71455 236.516389 
L 261.14335 235.107158 
L 257.57215 233.595867 
L 254.00095 231.972593 
L 250.42975 230.225524 
L 246.85855 228.341431 
L 243.28735 226.304247 
L 239.71615 224.096963 
L 236.14495 221.699262 
L 232.57375 219.087518 
L 229.00255 216.235272 
L 225.43135 213.110393 
L 221.86015 209.677444 
L 218.28895 205.893901 
L 214.71775 201.711094 
L 211.14655 197.072798 
L 207.57535 191.915224 
L 204.00415 186.168443 
L 200.43295 179.758272 
L 196.86175 172.616671 
L 193.29055 164.694499 
L 189.71935 155.996011 
L 186.14815 146.623737 
L 182.57695 136.833773 
L 179.00575 127.052314 
L 175.43455 117.777848 
L 171.86335 109.398297 
L 168.29215 102.090376 
L 164.72095 95.905114 
L 161.14975 90.814163 
L 157.57855 86.521737 
L 154.00735 82.349798 
L 150.43615 77.432254 
L 146.86495 71.007908 
L 143.29375 62.656234 
L 139.72255 52.196266 
L 136.15135 39.397422 
" style="fill:none;stroke:#1f77b4;stroke-linecap:square;"/>
   </g>
   <g id="line2d_25">
    <path clip-path="url(#pbefe50e174)" d="M 411.13375 254.606884 
L 407.56255 254.299522 
L 403.99135 253.981294 
L 400.42015 253.651252 
L 396.84895 253.309399 
L 393.27775 252.954315 
L 389.70655 252.586474 
L 386.13535 252.203985 
L 382.56415 251.806849 
L 378.99295 251.39412 
L 375.42175 250.964854 
L 371.85055 250.518105 
L 368.27935 250.052929 
L 364.70815 249.56838 
L 361.13695 249.063041 
L 357.56575 248.535967 
L 353.99455 247.985741 
L 350.42335 247.411417 
L 346.85215 246.810634 
L 343.28095 246.182445 
L 339.70975 245.524489 
L 336.13855 244.835347 
L 332.56735 244.112659 
L 328.99615 243.35406 
L 325.42495 242.557189 
L 321.85375 241.719682 
L 318.28255 240.837761 
L 314.71135 239.90859 
L 311.14015 238.928861 
L 307.56895 237.894795 
L 303.99775 236.801194 
L 300.42655 235.644277 
L 296.85535 234.417904 
L 293.28415 233.116875 
L 289.71295 231.734576 
L 286.14175 230.26392 
L 282.57055 228.696401 
L 278.99935 227.023042 
L 275.42815 225.233921 
L 271.85695 223.317697 
L 268.28575 221.261141 
L 264.71455 219.050077 
L 261.14335 216.667969 
L 257.57215 214.095915 
L 254.00095 211.312654 
L 250.42975 208.293615 
L 246.85855 205.010921 
L 243.28735 201.433387 
L 239.71615 197.524631 
L 236.14495 193.24449 
L 232.57375 188.547604 
L 229.00255 183.385777 
L 225.43135 177.707036 
L 221.86015 171.463657 
L 218.28895 164.615951 
L 214.71775 157.15116 
L 211.14655 149.103304 
L 207.57535 140.585782 
L 204.00415 131.815474 
L 200.43295 123.09903 
L 196.86175 114.741686 
L 193.29055 106.915432 
L 189.71935 99.614126 
L 186.14815 92.793352 
L 182.57695 86.760236 
L 179.00575 82.387012 
L 175.43455 79.663286 
L 171.86335 77.503252 
L 168.29215 75.033259 
L 164.72095 71.55684 
L 161.14975 66.420056 
L 157.57855 59.21703 
L 154.00735 49.948234 
L 150.43615 38.89386 
L 146.86495 26.671702 
" style="fill:none;stroke:#1f77b4;stroke-linecap:square;"/>
   </g>
   <g id="line2d_26">
    <path clip-path="url(#pbefe50e174)" d="M 411.13375 249.324929 
L 407.56255 248.882905 
L 403.99135 248.424816 
L 400.42015 247.949718 
L 396.84895 247.456191 
L 393.27775 246.943293 
L 389.70655 246.410549 
L 386.13535 245.85607 
L 382.56415 245.279384 
L 378.99295 244.6786 
L 375.42175 244.053246 
L 371.85055 243.40096 
L 368.27935 242.720324 
L 364.70815 242.00992 
L 361.13695 241.267859 
L 357.56575 240.491778 
L 353.99455 239.679786 
L 350.42335 238.829523 
L 346.85215 237.938624 
L 343.28095 237.003783 
L 339.70975 236.022636 
L 336.13855 234.991405 
L 332.56735 233.907254 
L 328.99615 232.764985 
L 325.42495 231.561291 
L 321.85375 230.290975 
L 318.28255 228.949311 
L 314.71135 227.530158 
L 311.14015 226.026899 
L 307.56895 224.43292 
L 303.99775 222.740189 
L 300.42655 220.9402 
L 296.85535 219.023504 
L 293.28415 216.978288 
L 289.71295 214.793211 
L 286.14175 212.455045 
L 282.57055 209.947251 
L 278.99935 207.253765 
L 275.42815 204.355214 
L 271.85695 201.22939 
L 268.28575 197.852196 
L 264.71455 194.196228 
L 261.14335 190.231244 
L 257.57215 185.924643 
L 254.00095 181.240041 
L 250.42975 176.140113 
L 246.85855 170.589419 
L 243.28735 164.556775 
L 239.71615 158.024226 
L 236.14495 150.99886 
L 232.57375 143.529816 
L 229.00255 135.727188 
L 225.43135 127.772414 
L 221.86015 119.891823 
L 218.28895 112.282446 
L 214.71775 105.02083 
L 211.14655 98.026649 
L 207.57535 91.144923 
L 204.00415 84.522126 
L 200.43295 79.956123 
L 196.86175 78.299301 
L 193.29055 77.436753 
L 189.71935 76.543019 
L 186.14815 75.158358 
L 182.57695 72.445499 
L 179.00575 66.997338 
L 175.43455 58.368779 
L 171.86335 47.348898 
L 168.29215 34.736455 
" style="fill:none;stroke:#1f77b4;stroke-linecap:square;"/>
   </g>
   <g id="line2d_27">
    <path clip-path="url(#pbefe50e174)" d="M 411.13375 242.842352 
L 407.56255 242.225503 
L 403.99135 241.585029 
L 400.42015 240.91904 
L 396.84895 240.226119 
L 393.27775 239.504848 
L 389.70655 238.754282 
L 386.13535 237.971585 
L 382.56415 237.155342 
L 378.99295 236.30366 
L 375.42175 235.414652 
L 371.85055 234.485008 
L 368.27935 233.512839 
L 364.70815 232.49531 
L 361.13695 231.429587 
L 357.56575 230.311888 
L 353.99455 229.138907 
L 350.42335 227.906863 
L 346.85215 226.611504 
L 343.28095 225.247633 
L 339.70975 223.810997 
L 336.13855 222.295453 
L 332.56735 220.694859 
L 328.99615 219.003073 
L 325.42495 217.211589 
L 321.85375 215.312848 
L 318.28255 213.297399 
L 314.71135 211.15532 
L 311.14015 208.875272 
L 307.56895 206.444495 
L 303.99775 203.848817 
L 300.42655 201.073115 
L 296.85535 198.100382 
L 293.28415 194.91077 
L 289.71295 191.483492 
L 286.14175 187.79492 
L 282.57055 183.820014 
L 278.99935 179.53184 
L 275.42815 174.902049 
L 271.85695 169.903235 
L 268.28575 164.510829 
L 264.71455 158.70593 
L 261.14335 152.485232 
L 257.57215 145.86716 
L 254.00095 138.906999 
L 250.42975 131.706335 
L 246.85855 124.414007 
L 243.28735 117.19775 
L 239.71615 110.186559 
L 236.14495 103.405948 
L 232.57375 96.751494 
L 229.00255 90.034198 
L 225.43135 83.203502 
L 221.86015 78.560008 
L 218.28895 77.737622 
L 214.71775 77.43593 
L 211.14655 77.138964 
L 207.57535 76.65725 
L 204.00415 75.458282 
L 200.43295 71.364305 
L 196.86175 63.238487 
L 193.29055 53.061545 
L 189.71935 41.647599 
L 186.14815 29.614442 
" style="fill:none;stroke:#1f77b4;stroke-linecap:square;"/>
   </g>
   <g id="line2d_28">
    <path clip-path="url(#pbefe50e174)" d="M 411.13375 234.92621 
L 407.56255 234.080671 
L 403.99135 233.199695 
L 400.42015 232.282336 
L 396.84895 231.32576 
L 393.27775 230.328076 
L 389.70655 229.28645 
L 386.13535 228.198046 
L 382.56415 227.059557 
L 378.99295 225.868621 
L 375.42175 224.621457 
L 371.85055 223.313813 
L 368.27935 221.94191 
L 364.70815 220.501493 
L 361.13695 218.986895 
L 357.56575 217.393388 
L 353.99455 215.71436 
L 350.42335 213.944611 
L 346.85215 212.075637 
L 343.28095 210.100351 
L 339.70975 208.010247 
L 336.13855 205.795876 
L 332.56735 203.445897 
L 328.99615 200.949916 
L 325.42495 198.294702 
L 321.85375 195.466553 
L 318.28255 192.449877 
L 314.71135 189.227663 
L 311.14015 185.781957 
L 307.56895 182.092441 
L 303.99775 178.138797 
L 300.42655 173.898346 
L 296.85535 169.350297 
L 293.28415 164.473388 
L 289.71295 159.252027 
L 286.14175 153.677236 
L 282.57055 147.754212 
L 278.99935 141.508471 
L 275.42815 134.995295 
L 271.85695 128.306348 
L 268.28575 121.561647 
L 264.71455 114.885931 
L 261.14335 108.363305 
L 257.57215 101.989516 
L 254.00095 95.65778 
L 250.42975 89.184293 
L 246.85855 82.423527 
L 243.28735 77.868863 
L 239.71615 77.537877 
L 236.14495 77.437943 
L 232.57375 77.340845 
L 229.00255 77.177596 
L 225.43135 76.694465 
L 221.86015 73.294591 
L 218.28895 65.13239 
L 214.71775 55.435981 
L 211.14655 44.810165 
L 207.57535 33.837297 
" style="fill:none;stroke:#1f77b4;stroke-linecap:square;"/>
   </g>
   <g id="line2d_29">
    <path clip-path="url(#pbefe50e174)" d="M 411.13375 225.256147 
L 407.56255 224.106791 
L 403.99135 222.90735 
L 400.42015 221.654516 
L 396.84895 220.34451 
L 393.27775 218.974024 
L 389.70655 217.538805 
L 386.13535 216.034601 
L 382.56415 214.456687 
L 378.99295 212.799866 
L 375.42175 211.05894 
L 371.85055 209.226821 
L 368.27935 207.29784 
L 364.70815 205.264436 
L 361.13695 203.118105 
L 357.56575 200.850341 
L 353.99455 198.451695 
L 350.42335 195.911299 
L 346.85215 193.218285 
L 343.28095 190.359424 
L 339.70975 187.321485 
L 336.13855 184.089349 
L 332.56735 180.647895 
L 328.99615 176.979641 
L 325.42495 173.067577 
L 321.85375 168.894221 
L 318.28255 164.443035 
L 314.71135 159.699371 
L 311.14015 154.653307 
L 307.56895 149.302481 
L 303.99775 143.658705 
L 300.42655 137.750329 
L 296.85535 131.631217 
L 293.28415 125.380279 
L 289.71295 119.094847 
L 286.14175 112.867534 
L 282.57055 106.749367 
L 278.99935 100.719086 
L 275.42815 94.674157 
L 271.85695 88.446844 
L 268.28575 81.869407 
L 264.71455 77.584069 
L 261.14335 77.472795 
L 257.57215 77.440901 
L 254.00095 77.409007 
L 250.42975 77.355379 
L 246.85855 77.178427 
L 243.28735 74.151356 
L 239.71615 66.099247 
L 236.14495 56.969839 
L 232.57375 47.062222 
L 229.00255 36.64785 
L 225.43135 26.515087 
" style="fill:none;stroke:#1f77b4;stroke-linecap:square;"/>
   </g>
   <g id="line2d_30">
    <path clip-path="url(#pbefe50e174)" d="M 411.13375 213.384708 
L 407.56255 211.828529 
L 403.99135 210.199113 
L 400.42015 208.491734 
L 396.84895 206.700723 
L 393.27775 204.820882 
L 389.70655 202.845595 
L 386.13535 200.767777 
L 382.56415 198.580338 
L 378.99295 196.275247 
L 375.42175 193.843053 
L 371.85055 191.275252 
L 368.27935 188.560503 
L 364.70815 185.687939 
L 361.13695 182.645748 
L 357.56575 179.421172 
L 353.99455 176.000035 
L 350.42335 172.368637 
L 346.85215 168.512328 
L 343.28095 164.417407 
L 339.70975 160.07206 
L 336.13855 155.465422 
L 332.56735 150.592765 
L 328.99615 145.456927 
L 325.42495 140.073025 
L 321.85375 134.469884 
L 318.28255 128.698533 
L 314.71135 122.826067 
L 311.14015 116.93092 
L 307.56895 111.080662 
L 303.99775 105.304113 
L 300.42655 99.569144 
L 296.85535 93.778893 
L 293.28415 87.784994 
L 289.71295 81.428688 
L 286.14175 77.486384 
L 282.57055 77.452128 
L 278.99935 77.442442 
L 275.42815 77.43181 
L 271.85695 77.414092 
L 268.28575 77.351958 
L 264.71455 74.412772 
L 261.14335 66.588408 
L 257.57215 57.944257 
L 254.00095 48.633408 
L 250.42975 38.920934 
L 246.85855 29.655682 
" style="fill:none;stroke:#1f77b4;stroke-linecap:square;"/>
   </g>
   <g id="line2d_31">
    <path clip-path="url(#pbefe50e174)" d="M 411.13375 198.688191 
L 407.56255 196.578242 
L 403.99135 194.361508 
L 400.42015 192.031374 
L 396.84895 189.578863 
L 393.27775 186.995942 
L 389.70655 184.272688 
L 386.13535 181.399652 
L 382.56415 178.365966 
L 378.99295 175.160289 
L 375.42175 171.771283 
L 371.85055 168.187134 
L 368.27935 164.396031 
L 364.70815 160.387104 
L 361.13695 156.150906 
L 357.56575 151.681764 
L 353.99455 146.978263 
L 350.42335 142.046072 
L 346.85215 136.901728 
L 343.28095 131.575472 
L 339.70975 126.112191 
L 336.13855 120.570002 
L 332.56735 115.010331 
L 328.99615 109.481844 
L 325.42495 103.997301 
L 321.85375 98.519372 
L 318.28255 92.956393 
L 314.71135 87.178427 
L 311.14015 81.043723 
L 307.56895 77.456267 
L 303.99775 77.446108 
L 300.42655 77.443037 
L 296.85535 77.439493 
L 293.28415 77.433587 
L 289.71295 77.412088 
L 286.14175 74.441717 
L 282.57055 66.926841 
L 278.99935 58.729202 
L 275.42815 49.933851 
L 271.85695 40.715139 
L 268.28575 31.506587 
" style="fill:none;stroke:#1f77b4;stroke-linecap:square;"/>
   </g>
   <g id="line2d_32">
    <path clip-path="url(#pbefe50e174)" d="M 411.13375 180.312316 
L 407.56255 177.448257 
L 403.99135 174.432998 
L 400.42015 171.255672 
L 396.84895 167.907301 
L 393.27775 164.37749 
L 389.70655 160.657261 
L 386.13535 156.737637 
L 382.56415 152.612476 
L 378.99295 148.27847 
L 375.42175 143.737036 
L 371.85055 138.996207 
L 368.27935 134.073466 
L 364.70815 128.997635 
L 361.13695 123.809348 
L 357.56575 118.55633 
L 353.99455 113.288191 
L 350.42335 108.038007 
L 346.85215 102.807196 
L 343.28095 97.555122 
L 339.70975 92.197208 
L 336.13855 86.61911 
L 332.56735 80.696558 
L 328.99615 77.44694 
L 325.42495 77.444341 
L 321.85375 77.44316 
L 318.28255 77.441978 
L 314.71135 77.440325 
L 311.14015 77.432528 
L 307.56895 74.38514 
L 303.99775 67.182586 
L 300.42655 59.376177 
L 296.85535 51.024031 
L 293.28415 42.27971 
L 289.71295 33.567282 
L 286.14175 26.29031 
" style="fill:none;stroke:#1f77b4;stroke-linecap:square;"/>
   </g>
   <g id="line2d_33">
    <path clip-path="url(#pbefe50e174)" d="M 411.13375 157.244516 
L 407.56255 153.416085 
L 403.99135 149.401489 
L 400.42015 145.198838 
L 396.84895 140.812384 
L 393.27775 136.250633 
L 389.70655 131.532484 
L 386.13535 126.683925 
L 382.56415 121.740866 
L 378.99295 116.744415 
L 375.42175 111.731426 
L 371.85055 106.724108 
L 368.27935 101.715844 
L 364.70815 96.664583 
L 361.13695 91.493306 
L 357.56575 86.099483 
L 353.99455 80.377271 
L 350.42335 77.4447 
L 346.85215 77.443519 
L 343.28095 77.443283 
L 339.70975 77.443046 
L 336.13855 77.442338 
L 332.56735 77.439739 
L 328.99615 74.308245 
L 325.42495 67.403366 
L 321.85375 59.952278 
L 318.28255 51.997976 
L 314.71135 43.656698 
L 311.14015 35.20698 
L 307.56895 27.386633 
" style="fill:none;stroke:#1f77b4;stroke-linecap:square;"/>
   </g>
   <g id="line2d_34">
    <path clip-path="url(#pbefe50e174)" d="M 411.13375 129.233894 
L 407.56255 124.591818 
L 403.99135 119.869889 
L 400.42015 115.10071 
L 396.84895 110.313104 
L 393.27775 105.519828 
L 389.70655 100.709542 
L 386.13535 95.839248 
L 382.56415 90.838072 
L 378.99295 85.61671 
L 375.42175 80.081609 
L 371.85055 77.443878 
L 368.27935 77.443169 
L 364.70815 77.443405 
L 361.13695 77.443169 
L 357.56575 77.442933 
L 353.99455 77.442224 
L 350.42335 74.228515 
L 346.85215 67.599104 
L 343.28095 60.469788 
L 339.70975 52.871752 
L 336.13855 44.900913 
L 332.56735 36.79612 
L 328.99615 29.276283 
" style="fill:none;stroke:#1f77b4;stroke-linecap:square;"/>
   </g>
   <g id="line2d_35">
    <path clip-path="url(#pbefe50e174)" d="M 411.13375 99.777422 
L 407.56255 95.071086 
L 403.99135 90.22678 
L 400.42015 85.165596 
L 396.84895 79.806737 
L 393.27775 77.443528 
L 389.70655 77.443292 
L 386.13535 77.443528 
L 382.56415 77.443292 
L 378.99295 77.443056 
L 375.42175 77.44282 
L 371.85055 74.152093 
L 368.27935 67.778305 
L 364.70815 60.943356 
L 361.13695 53.67229 
L 357.56575 46.038816 
L 353.99455 38.220595 
L 350.42335 30.663902 
" style="fill:none;stroke:#1f77b4;stroke-linecap:square;"/>
   </g>
   <g id="line2d_36">
    <path clip-path="url(#pbefe50e174)" d="M 411.13375 77.443415 
L 407.56255 77.443179 
L 403.99135 77.443415 
L 400.42015 77.443179 
L 396.84895 77.442942 
L 393.27775 74.080396 
L 389.70655 67.942857 
L 386.13535 61.379124 
L 382.56415 54.406677 
L 378.99295 47.085054 
L 375.42175 39.55742 
L 371.85055 32.206737 
L 368.27935 26.30474 
" style="fill:none;stroke:#1f77b4;stroke-linecap:square;"/>
   </g>
   <g id="line2d_37">
    <path clip-path="url(#pbefe50e174)" d="M 411.13375 68.095598 
L 407.56255 61.781816 
L 403.99135 55.085783 
L 400.42015 48.054274 
L 396.84895 40.79691 
L 393.27775 33.587978 
L 389.70655 27.161505 
" style="fill:none;stroke:#1f77b4;stroke-linecap:square;"/>
   </g>
   <g id="line2d_38">
    <path clip-path="url(#pbefe50e174)" d="M 411.13375 28.568497 
" style="fill:none;stroke:#1f77b4;stroke-linecap:square;"/>
   </g>
   <g id="text_15">
    <!-- Rayleigh-wave -->
    <defs>
     <path d="M 44.390625 34.1875 
Q 47.5625 33.109375 50.5625 29.59375 
Q 53.5625 26.078125 56.59375 19.921875 
L 66.609375 0 
L 56 0 
L 46.6875 18.703125 
Q 43.0625 26.03125 39.671875 28.421875 
Q 36.28125 30.8125 30.421875 30.8125 
L 19.671875 30.8125 
L 19.671875 0 
L 9.8125 0 
L 9.8125 72.90625 
L 32.078125 72.90625 
Q 44.578125 72.90625 50.734375 67.671875 
Q 56.890625 62.453125 56.890625 51.90625 
Q 56.890625 45.015625 53.6875 40.46875 
Q 50.484375 35.9375 44.390625 34.1875 
z
M 19.671875 64.796875 
L 19.671875 38.921875 
L 32.078125 38.921875 
Q 39.203125 38.921875 42.84375 42.21875 
Q 46.484375 45.515625 46.484375 51.90625 
Q 46.484375 58.296875 42.84375 61.546875 
Q 39.203125 64.796875 32.078125 64.796875 
z
" id="DejaVuSans-82"/>
     <path d="M 45.40625 27.984375 
Q 45.40625 37.75 41.375 43.109375 
Q 37.359375 48.484375 30.078125 48.484375 
Q 22.859375 48.484375 18.828125 43.109375 
Q 14.796875 37.75 14.796875 27.984375 
Q 14.796875 18.265625 18.828125 12.890625 
Q 22.859375 7.515625 30.078125 7.515625 
Q 37.359375 7.515625 41.375 12.890625 
Q 45.40625 18.265625 45.40625 27.984375 
z
M 54.390625 6.78125 
Q 54.390625 -7.171875 48.1875 -13.984375 
Q 42 -20.796875 29.203125 -20.796875 
Q 24.46875 -20.796875 20.265625 -20.09375 
Q 16.0625 -19.390625 12.109375 -17.921875 
L 12.109375 -9.1875 
Q 16.0625 -11.328125 19.921875 -12.34375 
Q 23.78125 -13.375 27.78125 -13.375 
Q 36.625 -13.375 41.015625 -8.765625 
Q 45.40625 -4.15625 45.40625 5.171875 
L 45.40625 9.625 
Q 42.625 4.78125 38.28125 2.390625 
Q 33.9375 0 27.875 0 
Q 17.828125 0 11.671875 7.65625 
Q 5.515625 15.328125 5.515625 27.984375 
Q 5.515625 40.671875 11.671875 48.328125 
Q 17.828125 56 27.875 56 
Q 33.9375 56 38.28125 53.609375 
Q 42.625 51.21875 45.40625 46.390625 
L 45.40625 54.6875 
L 54.390625 54.6875 
z
" id="DejaVuSans-103"/>
     <path d="M 4.890625 31.390625 
L 31.203125 31.390625 
L 31.203125 23.390625 
L 4.890625 23.390625 
z
" id="DejaVuSans-45"/>
     <path d="M 4.203125 54.6875 
L 13.1875 54.6875 
L 24.421875 12.015625 
L 35.59375 54.6875 
L 46.1875 54.6875 
L 57.421875 12.015625 
L 68.609375 54.6875 
L 77.59375 54.6875 
L 63.28125 0 
L 52.6875 0 
L 40.921875 44.828125 
L 29.109375 0 
L 18.5 0 
z
" id="DejaVuSans-119"/>
    </defs>
    <g style="fill:#969696;" transform="translate(171.126438 19.965375)scale(0.168 -0.168)">
     <use xlink:href="#DejaVuSans-82"/>
     <use x="67.232422" xlink:href="#DejaVuSans-97"/>
     <use x="128.511719" xlink:href="#DejaVuSans-121"/>
     <use x="187.691406" xlink:href="#DejaVuSans-108"/>
     <use x="215.474609" xlink:href="#DejaVuSans-101"/>
     <use x="276.998047" xlink:href="#DejaVuSans-105"/>
     <use x="304.78125" xlink:href="#DejaVuSans-103"/>
     <use x="368.257812" xlink:href="#DejaVuSans-104"/>
     <use x="431.636719" xlink:href="#DejaVuSans-45"/>
     <use x="467.720703" xlink:href="#DejaVuSans-119"/>
     <use x="549.507812" xlink:href="#DejaVuSans-97"/>
     <use x="610.787109" xlink:href="#DejaVuSans-118"/>
     <use x="669.966797" xlink:href="#DejaVuSans-101"/>
    </g>
   </g>
  </g>
 </g>
 <defs>
  <clipPath id="pbefe50e174">
   <rect height="266.112" width="357.12" x="54.01375" y="25.965375"/>
  </clipPath>
 </defs>
</svg>
