<?xml version="1.0" encoding="utf-8" standalone="no"?>
<!DOCTYPE svg PUBLIC "-//W3C//DTD SVG 1.1//EN"
  "http://www.w3.org/Graphics/SVG/1.1/DTD/svg11.dtd">
<!-- Created with matplotlib (https://matplotlib.org/) -->
<svg height="337.376125pt" version="1.1" viewBox="0 0 427.24125 337.376125" width="427.24125pt" xmlns="http://www.w3.org/2000/svg" xmlns:xlink="http://www.w3.org/1999/xlink">
 <defs>
  <style type="text/css">
*{stroke-linecap:butt;stroke-linejoin:round;}
  </style>
 </defs>
 <g id="figure_1">
  <g id="patch_1">
   <path d="M 0 337.376125 
L 427.24125 337.376125 
L 427.24125 0 
L 0 0 
z
" style="fill:none;"/>
  </g>
  <g id="axes_1">
   <g id="patch_2">
    <path d="M 54.01375 292.077375 
L 411.13375 292.077375 
L 411.13375 25.965375 
L 54.01375 25.965375 
z
" style="fill:none;"/>
   </g>
   <g id="matplotlib.axis_1">
    <g id="xtick_1">
     <g id="line2d_1">
      <defs>
       <path d="M 0 0 
L 0 3.5 
" id="m825c576001" style="stroke:#969696;stroke-width:0.3;"/>
      </defs>
      <g>
       <use style="fill:#969696;stroke:#969696;stroke-width:0.3;" x="54.01375" xlink:href="#m825c576001" y="292.077375"/>
      </g>
     </g>
     <g id="text_1">
      <!-- 0 -->
      <defs>
       <path d="M 31.78125 66.40625 
Q 24.171875 66.40625 20.328125 58.90625 
Q 16.5 51.421875 16.5 36.375 
Q 16.5 21.390625 20.328125 13.890625 
Q 24.171875 6.390625 31.78125 6.390625 
Q 39.453125 6.390625 43.28125 13.890625 
Q 47.125 21.390625 47.125 36.375 
Q 47.125 51.421875 43.28125 58.90625 
Q 39.453125 66.40625 31.78125 66.40625 
z
M 31.78125 74.21875 
Q 44.046875 74.21875 50.515625 64.515625 
Q 56.984375 54.828125 56.984375 36.375 
Q 56.984375 17.96875 50.515625 8.265625 
Q 44.046875 -1.421875 31.78125 -1.421875 
Q 19.53125 -1.421875 13.0625 8.265625 
Q 6.59375 17.96875 6.59375 36.375 
Q 6.59375 54.828125 13.0625 64.515625 
Q 19.53125 74.21875 31.78125 74.21875 
z
" id="DejaVuSans-48"/>
      </defs>
      <g style="fill:#969696;" transform="translate(49.56 309.715187)scale(0.14 -0.14)">
       <use xlink:href="#DejaVuSans-48"/>
      </g>
     </g>
    </g>
    <g id="xtick_2">
     <g id="line2d_2">
      <g>
       <use style="fill:#969696;stroke:#969696;stroke-width:0.3;" x="125.43775" xlink:href="#m825c576001" y="292.077375"/>
      </g>
     </g>
     <g id="text_2">
      <!-- 2 -->
      <defs>
       <path d="M 19.1875 8.296875 
L 53.609375 8.296875 
L 53.609375 0 
L 7.328125 0 
L 7.328125 8.296875 
Q 12.9375 14.109375 22.625 23.890625 
Q 32.328125 33.6875 34.8125 36.53125 
Q 39.546875 41.84375 41.421875 45.53125 
Q 43.3125 49.21875 43.3125 52.78125 
Q 43.3125 58.59375 39.234375 62.25 
Q 35.15625 65.921875 28.609375 65.921875 
Q 23.96875 65.921875 18.8125 64.3125 
Q 13.671875 62.703125 7.8125 59.421875 
L 7.8125 69.390625 
Q 13.765625 71.78125 18.9375 73 
Q 24.125 74.21875 28.421875 74.21875 
Q 39.75 74.21875 46.484375 68.546875 
Q 53.21875 62.890625 53.21875 53.421875 
Q 53.21875 48.921875 51.53125 44.890625 
Q 49.859375 40.875 45.40625 35.40625 
Q 44.1875 33.984375 37.640625 27.21875 
Q 31.109375 20.453125 19.1875 8.296875 
z
" id="DejaVuSans-50"/>
      </defs>
      <g style="fill:#969696;" transform="translate(120.984 309.715187)scale(0.14 -0.14)">
       <use xlink:href="#DejaVuSans-50"/>
      </g>
     </g>
    </g>
    <g id="xtick_3">
     <g id="line2d_3">
      <g>
       <use style="fill:#969696;stroke:#969696;stroke-width:0.3;" x="196.86175" xlink:href="#m825c576001" y="292.077375"/>
      </g>
     </g>
     <g id="text_3">
      <!-- 4 -->
      <defs>
       <path d="M 37.796875 64.3125 
L 12.890625 25.390625 
L 37.796875 25.390625 
z
M 35.203125 72.90625 
L 47.609375 72.90625 
L 47.609375 25.390625 
L 58.015625 25.390625 
L 58.015625 17.1875 
L 47.609375 17.1875 
L 47.609375 0 
L 37.796875 0 
L 37.796875 17.1875 
L 4.890625 17.1875 
L 4.890625 26.703125 
z
" id="DejaVuSans-52"/>
      </defs>
      <g style="fill:#969696;" transform="translate(192.408 309.715187)scale(0.14 -0.14)">
       <use xlink:href="#DejaVuSans-52"/>
      </g>
     </g>
    </g>
    <g id="xtick_4">
     <g id="line2d_4">
      <g>
       <use style="fill:#969696;stroke:#969696;stroke-width:0.3;" x="268.28575" xlink:href="#m825c576001" y="292.077375"/>
      </g>
     </g>
     <g id="text_4">
      <!-- 6 -->
      <defs>
       <path d="M 33.015625 40.375 
Q 26.375 40.375 22.484375 35.828125 
Q 18.609375 31.296875 18.609375 23.390625 
Q 18.609375 15.53125 22.484375 10.953125 
Q 26.375 6.390625 33.015625 6.390625 
Q 39.65625 6.390625 43.53125 10.953125 
Q 47.40625 15.53125 47.40625 23.390625 
Q 47.40625 31.296875 43.53125 35.828125 
Q 39.65625 40.375 33.015625 40.375 
z
M 52.59375 71.296875 
L 52.59375 62.3125 
Q 48.875 64.0625 45.09375 64.984375 
Q 41.3125 65.921875 37.59375 65.921875 
Q 27.828125 65.921875 22.671875 59.328125 
Q 17.53125 52.734375 16.796875 39.40625 
Q 19.671875 43.65625 24.015625 45.921875 
Q 28.375 48.1875 33.59375 48.1875 
Q 44.578125 48.1875 50.953125 41.515625 
Q 57.328125 34.859375 57.328125 23.390625 
Q 57.328125 12.15625 50.6875 5.359375 
Q 44.046875 -1.421875 33.015625 -1.421875 
Q 20.359375 -1.421875 13.671875 8.265625 
Q 6.984375 17.96875 6.984375 36.375 
Q 6.984375 53.65625 15.1875 63.9375 
Q 23.390625 74.21875 37.203125 74.21875 
Q 40.921875 74.21875 44.703125 73.484375 
Q 48.484375 72.75 52.59375 71.296875 
z
" id="DejaVuSans-54"/>
      </defs>
      <g style="fill:#969696;" transform="translate(263.832 309.715187)scale(0.14 -0.14)">
       <use xlink:href="#DejaVuSans-54"/>
      </g>
     </g>
    </g>
    <g id="xtick_5">
     <g id="line2d_5">
      <g>
       <use style="fill:#969696;stroke:#969696;stroke-width:0.3;" x="339.70975" xlink:href="#m825c576001" y="292.077375"/>
      </g>
     </g>
     <g id="text_5">
      <!-- 8 -->
      <defs>
       <path d="M 31.78125 34.625 
Q 24.75 34.625 20.71875 30.859375 
Q 16.703125 27.09375 16.703125 20.515625 
Q 16.703125 13.921875 20.71875 10.15625 
Q 24.75 6.390625 31.78125 6.390625 
Q 38.8125 6.390625 42.859375 10.171875 
Q 46.921875 13.96875 46.921875 20.515625 
Q 46.921875 27.09375 42.890625 30.859375 
Q 38.875 34.625 31.78125 34.625 
z
M 21.921875 38.8125 
Q 15.578125 40.375 12.03125 44.71875 
Q 8.5 49.078125 8.5 55.328125 
Q 8.5 64.0625 14.71875 69.140625 
Q 20.953125 74.21875 31.78125 74.21875 
Q 42.671875 74.21875 48.875 69.140625 
Q 55.078125 64.0625 55.078125 55.328125 
Q 55.078125 49.078125 51.53125 44.71875 
Q 48 40.375 41.703125 38.8125 
Q 48.828125 37.15625 52.796875 32.3125 
Q 56.78125 27.484375 56.78125 20.515625 
Q 56.78125 9.90625 50.3125 4.234375 
Q 43.84375 -1.421875 31.78125 -1.421875 
Q 19.734375 -1.421875 13.25 4.234375 
Q 6.78125 9.90625 6.78125 20.515625 
Q 6.78125 27.484375 10.78125 32.3125 
Q 14.796875 37.15625 21.921875 38.8125 
z
M 18.3125 54.390625 
Q 18.3125 48.734375 21.84375 45.5625 
Q 25.390625 42.390625 31.78125 42.390625 
Q 38.140625 42.390625 41.71875 45.5625 
Q 45.3125 48.734375 45.3125 54.390625 
Q 45.3125 60.0625 41.71875 63.234375 
Q 38.140625 66.40625 31.78125 66.40625 
Q 25.390625 66.40625 21.84375 63.234375 
Q 18.3125 60.0625 18.3125 54.390625 
z
" id="DejaVuSans-56"/>
      </defs>
      <g style="fill:#969696;" transform="translate(335.256 309.715187)scale(0.14 -0.14)">
       <use xlink:href="#DejaVuSans-56"/>
      </g>
     </g>
    </g>
    <g id="xtick_6">
     <g id="line2d_6">
      <g>
       <use style="fill:#969696;stroke:#969696;stroke-width:0.3;" x="411.13375" xlink:href="#m825c576001" y="292.077375"/>
      </g>
     </g>
     <g id="text_6">
      <!-- 10 -->
      <defs>
       <path d="M 12.40625 8.296875 
L 28.515625 8.296875 
L 28.515625 63.921875 
L 10.984375 60.40625 
L 10.984375 69.390625 
L 28.421875 72.90625 
L 38.28125 72.90625 
L 38.28125 8.296875 
L 54.390625 8.296875 
L 54.390625 0 
L 12.40625 0 
z
" id="DejaVuSans-49"/>
      </defs>
      <g style="fill:#969696;" transform="translate(402.22625 309.715187)scale(0.14 -0.14)">
       <use xlink:href="#DejaVuSans-49"/>
       <use x="63.623047" xlink:href="#DejaVuSans-48"/>
      </g>
     </g>
    </g>
    <g id="text_7">
     <!-- Frequency [Hz] -->
     <defs>
      <path d="M 9.8125 72.90625 
L 51.703125 72.90625 
L 51.703125 64.59375 
L 19.671875 64.59375 
L 19.671875 43.109375 
L 48.578125 43.109375 
L 48.578125 34.8125 
L 19.671875 34.8125 
L 19.671875 0 
L 9.8125 0 
z
" id="DejaVuSans-70"/>
      <path d="M 41.109375 46.296875 
Q 39.59375 47.171875 37.8125 47.578125 
Q 36.03125 48 33.890625 48 
Q 26.265625 48 22.1875 43.046875 
Q 18.109375 38.09375 18.109375 28.8125 
L 18.109375 0 
L 9.078125 0 
L 9.078125 54.6875 
L 18.109375 54.6875 
L 18.109375 46.1875 
Q 20.953125 51.171875 25.484375 53.578125 
Q 30.03125 56 36.53125 56 
Q 37.453125 56 38.578125 55.875 
Q 39.703125 55.765625 41.0625 55.515625 
z
" id="DejaVuSans-114"/>
      <path d="M 56.203125 29.59375 
L 56.203125 25.203125 
L 14.890625 25.203125 
Q 15.484375 15.921875 20.484375 11.0625 
Q 25.484375 6.203125 34.421875 6.203125 
Q 39.59375 6.203125 44.453125 7.46875 
Q 49.3125 8.734375 54.109375 11.28125 
L 54.109375 2.78125 
Q 49.265625 0.734375 44.1875 -0.34375 
Q 39.109375 -1.421875 33.890625 -1.421875 
Q 20.796875 -1.421875 13.15625 6.1875 
Q 5.515625 13.8125 5.515625 26.8125 
Q 5.515625 40.234375 12.765625 48.109375 
Q 20.015625 56 32.328125 56 
Q 43.359375 56 49.78125 48.890625 
Q 56.203125 41.796875 56.203125 29.59375 
z
M 47.21875 32.234375 
Q 47.125 39.59375 43.09375 43.984375 
Q 39.0625 48.390625 32.421875 48.390625 
Q 24.90625 48.390625 20.390625 44.140625 
Q 15.875 39.890625 15.1875 32.171875 
z
" id="DejaVuSans-101"/>
      <path d="M 14.796875 27.296875 
Q 14.796875 17.390625 18.875 11.75 
Q 22.953125 6.109375 30.078125 6.109375 
Q 37.203125 6.109375 41.296875 11.75 
Q 45.40625 17.390625 45.40625 27.296875 
Q 45.40625 37.203125 41.296875 42.84375 
Q 37.203125 48.484375 30.078125 48.484375 
Q 22.953125 48.484375 18.875 42.84375 
Q 14.796875 37.203125 14.796875 27.296875 
z
M 45.40625 8.203125 
Q 42.578125 3.328125 38.25 0.953125 
Q 33.9375 -1.421875 27.875 -1.421875 
Q 17.96875 -1.421875 11.734375 6.484375 
Q 5.515625 14.40625 5.515625 27.296875 
Q 5.515625 40.1875 11.734375 48.09375 
Q 17.96875 56 27.875 56 
Q 33.9375 56 38.25 53.625 
Q 42.578125 51.265625 45.40625 46.390625 
L 45.40625 54.6875 
L 54.390625 54.6875 
L 54.390625 -20.796875 
L 45.40625 -20.796875 
z
" id="DejaVuSans-113"/>
      <path d="M 8.5 21.578125 
L 8.5 54.6875 
L 17.484375 54.6875 
L 17.484375 21.921875 
Q 17.484375 14.15625 20.5 10.265625 
Q 23.53125 6.390625 29.59375 6.390625 
Q 36.859375 6.390625 41.078125 11.03125 
Q 45.3125 15.671875 45.3125 23.6875 
L 45.3125 54.6875 
L 54.296875 54.6875 
L 54.296875 0 
L 45.3125 0 
L 45.3125 8.40625 
Q 42.046875 3.421875 37.71875 1 
Q 33.40625 -1.421875 27.6875 -1.421875 
Q 18.265625 -1.421875 13.375 4.4375 
Q 8.5 10.296875 8.5 21.578125 
z
M 31.109375 56 
z
" id="DejaVuSans-117"/>
      <path d="M 54.890625 33.015625 
L 54.890625 0 
L 45.90625 0 
L 45.90625 32.71875 
Q 45.90625 40.484375 42.875 44.328125 
Q 39.84375 48.1875 33.796875 48.1875 
Q 26.515625 48.1875 22.3125 43.546875 
Q 18.109375 38.921875 18.109375 30.90625 
L 18.109375 0 
L 9.078125 0 
L 9.078125 54.6875 
L 18.109375 54.6875 
L 18.109375 46.1875 
Q 21.34375 51.125 25.703125 53.5625 
Q 30.078125 56 35.796875 56 
Q 45.21875 56 50.046875 50.171875 
Q 54.890625 44.34375 54.890625 33.015625 
z
" id="DejaVuSans-110"/>
      <path d="M 48.78125 52.59375 
L 48.78125 44.1875 
Q 44.96875 46.296875 41.140625 47.34375 
Q 37.3125 48.390625 33.40625 48.390625 
Q 24.65625 48.390625 19.8125 42.84375 
Q 14.984375 37.3125 14.984375 27.296875 
Q 14.984375 17.28125 19.8125 11.734375 
Q 24.65625 6.203125 33.40625 6.203125 
Q 37.3125 6.203125 41.140625 7.25 
Q 44.96875 8.296875 48.78125 10.40625 
L 48.78125 2.09375 
Q 45.015625 0.34375 40.984375 -0.53125 
Q 36.96875 -1.421875 32.421875 -1.421875 
Q 20.0625 -1.421875 12.78125 6.34375 
Q 5.515625 14.109375 5.515625 27.296875 
Q 5.515625 40.671875 12.859375 48.328125 
Q 20.21875 56 33.015625 56 
Q 37.15625 56 41.109375 55.140625 
Q 45.0625 54.296875 48.78125 52.59375 
z
" id="DejaVuSans-99"/>
      <path d="M 32.171875 -5.078125 
Q 28.375 -14.84375 24.75 -17.8125 
Q 21.140625 -20.796875 15.09375 -20.796875 
L 7.90625 -20.796875 
L 7.90625 -13.28125 
L 13.1875 -13.28125 
Q 16.890625 -13.28125 18.9375 -11.515625 
Q 21 -9.765625 23.484375 -3.21875 
L 25.09375 0.875 
L 2.984375 54.6875 
L 12.5 54.6875 
L 29.59375 11.921875 
L 46.6875 54.6875 
L 56.203125 54.6875 
z
" id="DejaVuSans-121"/>
      <path id="DejaVuSans-32"/>
      <path d="M 8.59375 75.984375 
L 29.296875 75.984375 
L 29.296875 69 
L 17.578125 69 
L 17.578125 -6.203125 
L 29.296875 -6.203125 
L 29.296875 -13.1875 
L 8.59375 -13.1875 
z
" id="DejaVuSans-91"/>
      <path d="M 9.8125 72.90625 
L 19.671875 72.90625 
L 19.671875 43.015625 
L 55.515625 43.015625 
L 55.515625 72.90625 
L 65.375 72.90625 
L 65.375 0 
L 55.515625 0 
L 55.515625 34.71875 
L 19.671875 34.71875 
L 19.671875 0 
L 9.8125 0 
z
" id="DejaVuSans-72"/>
      <path d="M 5.515625 54.6875 
L 48.1875 54.6875 
L 48.1875 46.484375 
L 14.40625 7.171875 
L 48.1875 7.171875 
L 48.1875 0 
L 4.296875 0 
L 4.296875 8.203125 
L 38.09375 47.515625 
L 5.515625 47.515625 
z
" id="DejaVuSans-122"/>
      <path d="M 30.421875 75.984375 
L 30.421875 -13.1875 
L 9.71875 -13.1875 
L 9.71875 -6.203125 
L 21.390625 -6.203125 
L 21.390625 69 
L 9.71875 69 
L 9.71875 75.984375 
z
" id="DejaVuSans-93"/>
     </defs>
     <g style="fill:#969696;" transform="translate(179.787188 327.264562)scale(0.14 -0.14)">
      <use xlink:href="#DejaVuSans-70"/>
      <use x="50.269531" xlink:href="#DejaVuSans-114"/>
      <use x="89.132812" xlink:href="#DejaVuSans-101"/>
      <use x="150.65625" xlink:href="#DejaVuSans-113"/>
      <use x="214.132812" xlink:href="#DejaVuSans-117"/>
      <use x="277.511719" xlink:href="#DejaVuSans-101"/>
      <use x="339.035156" xlink:href="#DejaVuSans-110"/>
      <use x="402.414062" xlink:href="#DejaVuSans-99"/>
      <use x="457.394531" xlink:href="#DejaVuSans-121"/>
      <use x="516.574219" xlink:href="#DejaVuSans-32"/>
      <use x="548.361328" xlink:href="#DejaVuSans-91"/>
      <use x="587.375" xlink:href="#DejaVuSans-72"/>
      <use x="662.570312" xlink:href="#DejaVuSans-122"/>
      <use x="715.060547" xlink:href="#DejaVuSans-93"/>
     </g>
    </g>
   </g>
   <g id="matplotlib.axis_2">
    <g id="ytick_1">
     <g id="line2d_7">
      <path clip-path="url(#p4f096d0574)" d="M 54.01375 267.885375 
L 411.13375 267.885375 
" style="fill:none;stroke:#969696;stroke-linecap:square;stroke-width:0.3;"/>
     </g>
     <g id="line2d_8">
      <defs>
       <path d="M 0 0 
L -3.5 0 
" id="m4c205204b5" style="stroke:#969696;stroke-width:0.3;"/>
      </defs>
      <g>
       <use style="fill:#969696;stroke:#969696;stroke-width:0.3;" x="54.01375" xlink:href="#m4c205204b5" y="267.885375"/>
      </g>
     </g>
     <g id="text_8">
      <!-- 0.5 -->
      <defs>
       <path d="M 10.6875 12.40625 
L 21 12.40625 
L 21 0 
L 10.6875 0 
z
" id="DejaVuSans-46"/>
       <path d="M 10.796875 72.90625 
L 49.515625 72.90625 
L 49.515625 64.59375 
L 19.828125 64.59375 
L 19.828125 46.734375 
Q 21.96875 47.46875 24.109375 47.828125 
Q 26.265625 48.1875 28.421875 48.1875 
Q 40.625 48.1875 47.75 41.5 
Q 54.890625 34.8125 54.890625 23.390625 
Q 54.890625 11.625 47.5625 5.09375 
Q 40.234375 -1.421875 26.90625 -1.421875 
Q 22.3125 -1.421875 17.546875 -0.640625 
Q 12.796875 0.140625 7.71875 1.703125 
L 7.71875 11.625 
Q 12.109375 9.234375 16.796875 8.0625 
Q 21.484375 6.890625 26.703125 6.890625 
Q 35.15625 6.890625 40.078125 11.328125 
Q 45.015625 15.765625 45.015625 23.390625 
Q 45.015625 31 40.078125 35.4375 
Q 35.15625 39.890625 26.703125 39.890625 
Q 22.75 39.890625 18.8125 39.015625 
Q 14.890625 38.140625 10.796875 36.28125 
z
" id="DejaVuSans-53"/>
      </defs>
      <g style="fill:#969696;" transform="translate(24.749375 273.204281)scale(0.14 -0.14)">
       <use xlink:href="#DejaVuSans-48"/>
       <use x="63.623047" xlink:href="#DejaVuSans-46"/>
       <use x="95.410156" xlink:href="#DejaVuSans-53"/>
      </g>
     </g>
    </g>
    <g id="ytick_2">
     <g id="line2d_9">
      <path clip-path="url(#p4f096d0574)" d="M 54.01375 219.501375 
L 411.13375 219.501375 
" style="fill:none;stroke:#969696;stroke-linecap:square;stroke-width:0.3;"/>
     </g>
     <g id="line2d_10">
      <g>
       <use style="fill:#969696;stroke:#969696;stroke-width:0.3;" x="54.01375" xlink:href="#m4c205204b5" y="219.501375"/>
      </g>
     </g>
     <g id="text_9">
      <!-- 0.6 -->
      <g style="fill:#969696;" transform="translate(24.749375 224.820281)scale(0.14 -0.14)">
       <use xlink:href="#DejaVuSans-48"/>
       <use x="63.623047" xlink:href="#DejaVuSans-46"/>
       <use x="95.410156" xlink:href="#DejaVuSans-54"/>
      </g>
     </g>
    </g>
    <g id="ytick_3">
     <g id="line2d_11">
      <path clip-path="url(#p4f096d0574)" d="M 54.01375 171.117375 
L 411.13375 171.117375 
" style="fill:none;stroke:#969696;stroke-linecap:square;stroke-width:0.3;"/>
     </g>
     <g id="line2d_12">
      <g>
       <use style="fill:#969696;stroke:#969696;stroke-width:0.3;" x="54.01375" xlink:href="#m4c205204b5" y="171.117375"/>
      </g>
     </g>
     <g id="text_10">
      <!-- 0.7 -->
      <defs>
       <path d="M 8.203125 72.90625 
L 55.078125 72.90625 
L 55.078125 68.703125 
L 28.609375 0 
L 18.3125 0 
L 43.21875 64.59375 
L 8.203125 64.59375 
z
" id="DejaVuSans-55"/>
      </defs>
      <g style="fill:#969696;" transform="translate(24.749375 176.436281)scale(0.14 -0.14)">
       <use xlink:href="#DejaVuSans-48"/>
       <use x="63.623047" xlink:href="#DejaVuSans-46"/>
       <use x="95.410156" xlink:href="#DejaVuSans-55"/>
      </g>
     </g>
    </g>
    <g id="ytick_4">
     <g id="line2d_13">
      <path clip-path="url(#p4f096d0574)" d="M 54.01375 122.733375 
L 411.13375 122.733375 
" style="fill:none;stroke:#969696;stroke-linecap:square;stroke-width:0.3;"/>
     </g>
     <g id="line2d_14">
      <g>
       <use style="fill:#969696;stroke:#969696;stroke-width:0.3;" x="54.01375" xlink:href="#m4c205204b5" y="122.733375"/>
      </g>
     </g>
     <g id="text_11">
      <!-- 0.8 -->
      <g style="fill:#969696;" transform="translate(24.749375 128.052281)scale(0.14 -0.14)">
       <use xlink:href="#DejaVuSans-48"/>
       <use x="63.623047" xlink:href="#DejaVuSans-46"/>
       <use x="95.410156" xlink:href="#DejaVuSans-56"/>
      </g>
     </g>
    </g>
    <g id="ytick_5">
     <g id="line2d_15">
      <path clip-path="url(#p4f096d0574)" d="M 54.01375 74.349375 
L 411.13375 74.349375 
" style="fill:none;stroke:#969696;stroke-linecap:square;stroke-width:0.3;"/>
     </g>
     <g id="line2d_16">
      <g>
       <use style="fill:#969696;stroke:#969696;stroke-width:0.3;" x="54.01375" xlink:href="#m4c205204b5" y="74.349375"/>
      </g>
     </g>
     <g id="text_12">
      <!-- 0.9 -->
      <defs>
       <path d="M 10.984375 1.515625 
L 10.984375 10.5 
Q 14.703125 8.734375 18.5 7.8125 
Q 22.3125 6.890625 25.984375 6.890625 
Q 35.75 6.890625 40.890625 13.453125 
Q 46.046875 20.015625 46.78125 33.40625 
Q 43.953125 29.203125 39.59375 26.953125 
Q 35.25 24.703125 29.984375 24.703125 
Q 19.046875 24.703125 12.671875 31.3125 
Q 6.296875 37.9375 6.296875 49.421875 
Q 6.296875 60.640625 12.9375 67.421875 
Q 19.578125 74.21875 30.609375 74.21875 
Q 43.265625 74.21875 49.921875 64.515625 
Q 56.59375 54.828125 56.59375 36.375 
Q 56.59375 19.140625 48.40625 8.859375 
Q 40.234375 -1.421875 26.421875 -1.421875 
Q 22.703125 -1.421875 18.890625 -0.6875 
Q 15.09375 0.046875 10.984375 1.515625 
z
M 30.609375 32.421875 
Q 37.25 32.421875 41.125 36.953125 
Q 45.015625 41.5 45.015625 49.421875 
Q 45.015625 57.28125 41.125 61.84375 
Q 37.25 66.40625 30.609375 66.40625 
Q 23.96875 66.40625 20.09375 61.84375 
Q 16.21875 57.28125 16.21875 49.421875 
Q 16.21875 41.5 20.09375 36.953125 
Q 23.96875 32.421875 30.609375 32.421875 
z
" id="DejaVuSans-57"/>
      </defs>
      <g style="fill:#969696;" transform="translate(24.749375 79.668281)scale(0.14 -0.14)">
       <use xlink:href="#DejaVuSans-48"/>
       <use x="63.623047" xlink:href="#DejaVuSans-46"/>
       <use x="95.410156" xlink:href="#DejaVuSans-57"/>
      </g>
     </g>
    </g>
    <g id="ytick_6">
     <g id="line2d_17">
      <path clip-path="url(#p4f096d0574)" d="M 54.01375 25.965375 
L 411.13375 25.965375 
" style="fill:none;stroke:#969696;stroke-linecap:square;stroke-width:0.3;"/>
     </g>
     <g id="line2d_18">
      <g>
       <use style="fill:#969696;stroke:#969696;stroke-width:0.3;" x="54.01375" xlink:href="#m4c205204b5" y="25.965375"/>
      </g>
     </g>
     <g id="text_13">
      <!-- 1.0 -->
      <g style="fill:#969696;" transform="translate(24.749375 31.284281)scale(0.14 -0.14)">
       <use xlink:href="#DejaVuSans-49"/>
       <use x="63.623047" xlink:href="#DejaVuSans-46"/>
       <use x="95.410156" xlink:href="#DejaVuSans-48"/>
      </g>
     </g>
    </g>
    <g id="text_14">
     <!-- Phase velocity [km/s] -->
     <defs>
      <path d="M 19.671875 64.796875 
L 19.671875 37.40625 
L 32.078125 37.40625 
Q 38.96875 37.40625 42.71875 40.96875 
Q 46.484375 44.53125 46.484375 51.125 
Q 46.484375 57.671875 42.71875 61.234375 
Q 38.96875 64.796875 32.078125 64.796875 
z
M 9.8125 72.90625 
L 32.078125 72.90625 
Q 44.34375 72.90625 50.609375 67.359375 
Q 56.890625 61.8125 56.890625 51.125 
Q 56.890625 40.328125 50.609375 34.8125 
Q 44.34375 29.296875 32.078125 29.296875 
L 19.671875 29.296875 
L 19.671875 0 
L 9.8125 0 
z
" id="DejaVuSans-80"/>
      <path d="M 54.890625 33.015625 
L 54.890625 0 
L 45.90625 0 
L 45.90625 32.71875 
Q 45.90625 40.484375 42.875 44.328125 
Q 39.84375 48.1875 33.796875 48.1875 
Q 26.515625 48.1875 22.3125 43.546875 
Q 18.109375 38.921875 18.109375 30.90625 
L 18.109375 0 
L 9.078125 0 
L 9.078125 75.984375 
L 18.109375 75.984375 
L 18.109375 46.1875 
Q 21.34375 51.125 25.703125 53.5625 
Q 30.078125 56 35.796875 56 
Q 45.21875 56 50.046875 50.171875 
Q 54.890625 44.34375 54.890625 33.015625 
z
" id="DejaVuSans-104"/>
      <path d="M 34.28125 27.484375 
Q 23.390625 27.484375 19.1875 25 
Q 14.984375 22.515625 14.984375 16.5 
Q 14.984375 11.71875 18.140625 8.90625 
Q 21.296875 6.109375 26.703125 6.109375 
Q 34.1875 6.109375 38.703125 11.40625 
Q 43.21875 16.703125 43.21875 25.484375 
L 43.21875 27.484375 
z
M 52.203125 31.203125 
L 52.203125 0 
L 43.21875 0 
L 43.21875 8.296875 
Q 40.140625 3.328125 35.546875 0.953125 
Q 30.953125 -1.421875 24.3125 -1.421875 
Q 15.921875 -1.421875 10.953125 3.296875 
Q 6 8.015625 6 15.921875 
Q 6 25.140625 12.171875 29.828125 
Q 18.359375 34.515625 30.609375 34.515625 
L 43.21875 34.515625 
L 43.21875 35.40625 
Q 43.21875 41.609375 39.140625 45 
Q 35.0625 48.390625 27.6875 48.390625 
Q 23 48.390625 18.546875 47.265625 
Q 14.109375 46.140625 10.015625 43.890625 
L 10.015625 52.203125 
Q 14.9375 54.109375 19.578125 55.046875 
Q 24.21875 56 28.609375 56 
Q 40.484375 56 46.34375 49.84375 
Q 52.203125 43.703125 52.203125 31.203125 
z
" id="DejaVuSans-97"/>
      <path d="M 44.28125 53.078125 
L 44.28125 44.578125 
Q 40.484375 46.53125 36.375 47.5 
Q 32.28125 48.484375 27.875 48.484375 
Q 21.1875 48.484375 17.84375 46.4375 
Q 14.5 44.390625 14.5 40.28125 
Q 14.5 37.15625 16.890625 35.375 
Q 19.28125 33.59375 26.515625 31.984375 
L 29.59375 31.296875 
Q 39.15625 29.25 43.1875 25.515625 
Q 47.21875 21.78125 47.21875 15.09375 
Q 47.21875 7.46875 41.1875 3.015625 
Q 35.15625 -1.421875 24.609375 -1.421875 
Q 20.21875 -1.421875 15.453125 -0.5625 
Q 10.6875 0.296875 5.421875 2 
L 5.421875 11.28125 
Q 10.40625 8.6875 15.234375 7.390625 
Q 20.0625 6.109375 24.8125 6.109375 
Q 31.15625 6.109375 34.5625 8.28125 
Q 37.984375 10.453125 37.984375 14.40625 
Q 37.984375 18.0625 35.515625 20.015625 
Q 33.0625 21.96875 24.703125 23.78125 
L 21.578125 24.515625 
Q 13.234375 26.265625 9.515625 29.90625 
Q 5.8125 33.546875 5.8125 39.890625 
Q 5.8125 47.609375 11.28125 51.796875 
Q 16.75 56 26.8125 56 
Q 31.78125 56 36.171875 55.265625 
Q 40.578125 54.546875 44.28125 53.078125 
z
" id="DejaVuSans-115"/>
      <path d="M 2.984375 54.6875 
L 12.5 54.6875 
L 29.59375 8.796875 
L 46.6875 54.6875 
L 56.203125 54.6875 
L 35.6875 0 
L 23.484375 0 
z
" id="DejaVuSans-118"/>
      <path d="M 9.421875 75.984375 
L 18.40625 75.984375 
L 18.40625 0 
L 9.421875 0 
z
" id="DejaVuSans-108"/>
      <path d="M 30.609375 48.390625 
Q 23.390625 48.390625 19.1875 42.75 
Q 14.984375 37.109375 14.984375 27.296875 
Q 14.984375 17.484375 19.15625 11.84375 
Q 23.34375 6.203125 30.609375 6.203125 
Q 37.796875 6.203125 41.984375 11.859375 
Q 46.1875 17.53125 46.1875 27.296875 
Q 46.1875 37.015625 41.984375 42.703125 
Q 37.796875 48.390625 30.609375 48.390625 
z
M 30.609375 56 
Q 42.328125 56 49.015625 48.375 
Q 55.71875 40.765625 55.71875 27.296875 
Q 55.71875 13.875 49.015625 6.21875 
Q 42.328125 -1.421875 30.609375 -1.421875 
Q 18.84375 -1.421875 12.171875 6.21875 
Q 5.515625 13.875 5.515625 27.296875 
Q 5.515625 40.765625 12.171875 48.375 
Q 18.84375 56 30.609375 56 
z
" id="DejaVuSans-111"/>
      <path d="M 9.421875 54.6875 
L 18.40625 54.6875 
L 18.40625 0 
L 9.421875 0 
z
M 9.421875 75.984375 
L 18.40625 75.984375 
L 18.40625 64.59375 
L 9.421875 64.59375 
z
" id="DejaVuSans-105"/>
      <path d="M 18.3125 70.21875 
L 18.3125 54.6875 
L 36.8125 54.6875 
L 36.8125 47.703125 
L 18.3125 47.703125 
L 18.3125 18.015625 
Q 18.3125 11.328125 20.140625 9.421875 
Q 21.96875 7.515625 27.59375 7.515625 
L 36.8125 7.515625 
L 36.8125 0 
L 27.59375 0 
Q 17.1875 0 13.234375 3.875 
Q 9.28125 7.765625 9.28125 18.015625 
L 9.28125 47.703125 
L 2.6875 47.703125 
L 2.6875 54.6875 
L 9.28125 54.6875 
L 9.28125 70.21875 
z
" id="DejaVuSans-116"/>
      <path d="M 9.078125 75.984375 
L 18.109375 75.984375 
L 18.109375 31.109375 
L 44.921875 54.6875 
L 56.390625 54.6875 
L 27.390625 29.109375 
L 57.625 0 
L 45.90625 0 
L 18.109375 26.703125 
L 18.109375 0 
L 9.078125 0 
z
" id="DejaVuSans-107"/>
      <path d="M 52 44.1875 
Q 55.375 50.25 60.0625 53.125 
Q 64.75 56 71.09375 56 
Q 79.640625 56 84.28125 50.015625 
Q 88.921875 44.046875 88.921875 33.015625 
L 88.921875 0 
L 79.890625 0 
L 79.890625 32.71875 
Q 79.890625 40.578125 77.09375 44.375 
Q 74.3125 48.1875 68.609375 48.1875 
Q 61.625 48.1875 57.5625 43.546875 
Q 53.515625 38.921875 53.515625 30.90625 
L 53.515625 0 
L 44.484375 0 
L 44.484375 32.71875 
Q 44.484375 40.625 41.703125 44.40625 
Q 38.921875 48.1875 33.109375 48.1875 
Q 26.21875 48.1875 22.15625 43.53125 
Q 18.109375 38.875 18.109375 30.90625 
L 18.109375 0 
L 9.078125 0 
L 9.078125 54.6875 
L 18.109375 54.6875 
L 18.109375 46.1875 
Q 21.1875 51.21875 25.484375 53.609375 
Q 29.78125 56 35.6875 56 
Q 41.65625 56 45.828125 52.96875 
Q 50 49.953125 52 44.1875 
z
" id="DejaVuSans-109"/>
      <path d="M 25.390625 72.90625 
L 33.6875 72.90625 
L 8.296875 -9.28125 
L 0 -9.28125 
z
" id="DejaVuSans-47"/>
     </defs>
     <g style="fill:#969696;" transform="translate(17.837813 234.069031)rotate(-90)scale(0.14 -0.14)">
      <use xlink:href="#DejaVuSans-80"/>
      <use x="60.302734" xlink:href="#DejaVuSans-104"/>
      <use x="123.681641" xlink:href="#DejaVuSans-97"/>
      <use x="184.960938" xlink:href="#DejaVuSans-115"/>
      <use x="237.060547" xlink:href="#DejaVuSans-101"/>
      <use x="298.583984" xlink:href="#DejaVuSans-32"/>
      <use x="330.371094" xlink:href="#DejaVuSans-118"/>
      <use x="389.550781" xlink:href="#DejaVuSans-101"/>
      <use x="451.074219" xlink:href="#DejaVuSans-108"/>
      <use x="478.857422" xlink:href="#DejaVuSans-111"/>
      <use x="540.039062" xlink:href="#DejaVuSans-99"/>
      <use x="595.019531" xlink:href="#DejaVuSans-105"/>
      <use x="622.802734" xlink:href="#DejaVuSans-116"/>
      <use x="662.011719" xlink:href="#DejaVuSans-121"/>
      <use x="721.191406" xlink:href="#DejaVuSans-32"/>
      <use x="752.978516" xlink:href="#DejaVuSans-91"/>
      <use x="791.992188" xlink:href="#DejaVuSans-107"/>
      <use x="849.902344" xlink:href="#DejaVuSans-109"/>
      <use x="947.314453" xlink:href="#DejaVuSans-47"/>
      <use x="981.005859" xlink:href="#DejaVuSans-115"/>
      <use x="1033.105469" xlink:href="#DejaVuSans-93"/>
     </g>
    </g>
   </g>
   <g id="line2d_19">
    <path clip-path="url(#p4f096d0574)" d="M 411.13375 267.810513 
L 407.56255 267.80886 
L 403.99135 267.807206 
L 400.42015 267.805552 
L 396.84895 267.803898 
L 393.27775 267.802245 
L 389.70655 267.800591 
L 386.13535 267.798937 
L 382.56415 267.796811 
L 378.99295 267.795157 
L 375.42175 267.793031 
L 371.85055 267.790905 
L 368.27935 267.788778 
L 364.70815 267.786652 
L 361.13695 267.784053 
L 357.56575 267.781927 
L 353.99455 267.779328 
L 350.42335 267.77673 
L 346.85215 267.774131 
L 343.28095 267.771532 
L 339.70975 267.768461 
L 336.13855 267.76539 
L 332.56735 267.762318 
L 328.99615 267.759247 
L 325.42495 267.756176 
L 321.85375 267.752632 
L 318.28255 267.749088 
L 314.71135 267.745072 
L 311.14015 267.741056 
L 307.56895 267.73704 
L 303.99775 267.733023 
L 300.42655 267.728535 
L 296.85535 267.724046 
L 293.28415 267.719085 
L 289.71295 267.714123 
L 286.14175 267.70869 
L 282.57055 267.703256 
L 278.99935 267.69735 
L 275.42815 267.691443 
L 271.85695 267.685065 
L 268.28575 267.678213 
L 264.71455 267.671362 
L 261.14335 267.664038 
L 257.57215 267.656242 
L 254.00095 267.647973 
L 250.42975 267.639232 
L 246.85855 267.630018 
L 243.28735 267.620332 
L 239.71615 267.610173 
L 236.14495 267.599542 
L 232.57375 267.587966 
L 229.00255 267.575917 
L 225.43135 267.562923 
L 221.86015 267.548985 
L 218.28895 267.534573 
L 214.71775 267.518745 
L 211.14655 267.501971 
L 207.57535 267.484252 
L 204.00415 267.465116 
L 200.43295 267.444562 
L 196.86175 267.422118 
L 193.29055 267.398257 
L 189.71935 267.372506 
L 186.14815 267.344865 
L 182.57695 267.314861 
L 179.00575 267.282022 
L 175.43455 267.246348 
L 171.86335 267.207367 
L 168.29215 267.164606 
L 164.72095 267.118065 
L 161.14975 267.066326 
L 157.57855 267.009862 
L 154.00735 266.946783 
L 150.43615 266.876617 
L 146.86495 266.798418 
L 143.29375 266.71077 
L 139.72255 266.612253 
L 136.15135 266.500507 
L 132.58015 266.373168 
L 129.00895 266.227402 
L 125.43775 266.059428 
L 121.86655 265.864995 
L 118.29535 265.637013 
L 114.72415 265.368397 
L 111.15295 265.047806 
L 107.58175 264.66201 
L 104.01055 264.191163 
L 100.43935 263.607862 
L 96.86815 262.873833 
L 93.29695 261.93096 
L 89.72575 260.691828 
L 86.15455 259.016107 
L 82.58335 256.670853 
L 79.01215 253.243575 
L 75.44095 247.957953 
L 71.86975 239.234422 
L 68.29855 223.666728 
L 64.72735 194.09886 
L 61.15615 134.336823 
L 60.034713 -1 
" style="fill:none;stroke:#1f77b4;stroke-linecap:square;"/>
   </g>
   <g id="line2d_20">
    <path clip-path="url(#p4f096d0574)" d="M 411.13375 267.208199 
L 407.56255 267.194732 
L 403.99135 267.180321 
L 400.42015 267.16591 
L 396.84895 267.151026 
L 393.27775 267.135197 
L 389.70655 267.119369 
L 386.13535 267.102595 
L 382.56415 267.085349 
L 378.99295 267.068102 
L 375.42175 267.049439 
L 371.85055 267.030775 
L 368.27935 267.011166 
L 364.70815 266.991085 
L 361.13695 266.970059 
L 357.56575 266.94856 
L 353.99455 266.926116 
L 350.42335 266.902727 
L 346.85215 266.878394 
L 343.28095 266.853587 
L 339.70975 266.827364 
L 336.13855 266.800667 
L 332.56735 266.772554 
L 328.99615 266.743495 
L 325.42495 266.713019 
L 321.85375 266.681597 
L 318.28255 266.648759 
L 314.71135 266.614502 
L 311.14015 266.579301 
L 307.56895 266.541737 
L 303.99775 266.503229 
L 300.42655 266.46283 
L 296.85535 266.420541 
L 293.28415 266.376362 
L 289.71295 266.330294 
L 286.14175 266.281862 
L 282.57055 266.231069 
L 278.99935 266.177912 
L 275.42815 266.122394 
L 271.85695 266.06404 
L 268.28575 266.002379 
L 264.71455 265.937882 
L 261.14335 265.870079 
L 257.57215 265.798022 
L 254.00095 265.722659 
L 250.42975 265.643042 
L 246.85855 265.558701 
L 243.28735 265.469635 
L 239.71615 265.374899 
L 236.14495 265.274965 
L 232.57375 265.168889 
L 229.00255 265.055725 
L 225.43135 264.935946 
L 221.86015 264.807662 
L 218.28895 264.671346 
L 214.71775 264.52558 
L 211.14655 264.369419 
L 207.57535 264.201917 
L 204.00415 264.022131 
L 200.43295 263.829115 
L 196.86175 263.620979 
L 193.29055 263.395832 
L 189.71935 263.152731 
L 186.14815 262.88884 
L 182.57695 262.602269 
L 179.00575 262.290182 
L 175.43455 261.948801 
L 171.86335 261.574817 
L 168.29215 261.163979 
L 164.72095 260.711087 
L 161.14975 260.210474 
L 157.57855 259.654577 
L 154.00735 259.034421 
L 150.43615 258.340555 
L 146.86495 257.560221 
L 143.29375 256.677827 
L 139.72255 255.674474 
L 136.15135 254.527007 
L 132.58015 253.204716 
L 129.00895 251.670272 
L 125.43775 249.873119 
L 121.86655 247.748995 
L 118.29535 245.209544 
L 114.72415 242.13475 
L 111.15295 238.356404 
L 107.58175 233.631167 
L 104.01055 227.598051 
L 100.43935 219.698087 
L 96.86815 209.037306 
L 93.29695 194.122135 
L 89.72575 172.440291 
L 86.15455 140.203742 
L 82.58335 94.497164 
L 79.01215 37.362227 
" style="fill:none;stroke:#1f77b4;stroke-linecap:square;"/>
   </g>
   <g id="line2d_21">
    <path clip-path="url(#p4f096d0574)" d="M 411.13375 265.990689 
L 407.56255 265.95218 
L 403.99135 265.912254 
L 400.42015 265.87091 
L 396.84895 265.828149 
L 393.27775 265.784443 
L 389.70655 265.739319 
L 386.13535 265.692305 
L 382.56415 265.643874 
L 378.99295 265.594025 
L 375.42175 265.542287 
L 371.85055 265.48913 
L 368.27935 265.433612 
L 364.70815 265.376203 
L 361.13695 265.316904 
L 357.56575 265.255715 
L 353.99455 265.192164 
L 350.42335 265.125778 
L 346.85215 265.057502 
L 343.28095 264.98639 
L 339.70975 264.912444 
L 336.13855 264.835663 
L 332.56735 264.756047 
L 328.99615 264.673123 
L 325.42495 264.586892 
L 321.85375 264.49688 
L 318.28255 264.403562 
L 314.71135 264.30599 
L 311.14015 264.204167 
L 307.56895 264.09809 
L 303.99775 263.987289 
L 300.42655 263.87129 
L 296.85535 263.750094 
L 293.28415 263.6237 
L 289.71295 263.490692 
L 286.14175 263.35154 
L 282.57055 263.205774 
L 278.99935 263.05292 
L 275.42815 262.892034 
L 271.85695 262.723115 
L 268.28575 262.545219 
L 264.71455 262.357873 
L 261.14335 262.160604 
L 257.57215 261.952468 
L 254.00095 261.732519 
L 250.42975 261.499813 
L 246.85855 261.253404 
L 243.28735 260.992348 
L 239.71615 260.715699 
L 236.14495 260.421568 
L 232.57375 260.108537 
L 229.00255 259.775188 
L 225.43135 259.419632 
L 221.86015 259.039505 
L 218.28895 258.632919 
L 214.71775 258.197038 
L 211.14655 257.729027 
L 207.57535 257.225578 
L 204.00415 256.682439 
L 200.43295 256.096303 
L 196.86175 255.461972 
L 193.29055 254.773303 
L 189.71935 254.024154 
L 186.14815 253.206965 
L 182.57695 252.313232 
L 179.00575 251.33303 
L 175.43455 250.253604 
L 171.86335 249.061723 
L 168.29215 247.739432 
L 164.72095 246.267358 
L 161.14975 244.620459 
L 157.57855 242.76944 
L 154.00735 240.676502 
L 150.43615 238.296755 
L 146.86495 235.571139 
L 143.29375 232.42736 
L 139.72255 228.768557 
L 136.15135 224.469988 
L 132.58015 219.362972 
L 129.00895 213.217873 
L 125.43775 205.711974 
L 121.86655 196.386005 
L 118.29535 184.564764 
L 114.72415 169.246078 
L 111.15295 148.968504 
L 107.58175 121.901105 
L 104.01055 87.227402 
L 100.43935 48.667385 
" style="fill:none;stroke:#1f77b4;stroke-linecap:square;"/>
   </g>
   <g id="line2d_22">
    <path clip-path="url(#p4f096d0574)" d="M 411.13375 264.129634 
L 407.56255 264.051908 
L 403.99135 263.971819 
L 400.42015 263.889368 
L 396.84895 263.804082 
L 393.27775 263.715488 
L 389.70655 263.624532 
L 386.13535 263.530268 
L 382.56415 263.433169 
L 378.99295 263.332763 
L 375.42175 263.228577 
L 371.85055 263.120611 
L 368.27935 263.008864 
L 364.70815 262.893338 
L 361.13695 262.773559 
L 357.56575 262.649528 
L 353.99455 262.520772 
L 350.42335 262.386818 
L 346.85215 262.248139 
L 343.28095 262.103791 
L 339.70975 261.954244 
L 336.13855 261.798083 
L 332.56735 261.635779 
L 328.99615 261.467333 
L 325.42495 261.291327 
L 321.85375 261.108233 
L 318.28255 260.917107 
L 314.71135 260.717476 
L 311.14015 260.509339 
L 307.56895 260.291753 
L 303.99775 260.064244 
L 300.42655 259.825868 
L 296.85535 259.576624 
L 293.28415 259.315568 
L 289.71295 259.041754 
L 286.14175 258.753766 
L 282.57055 258.452074 
L 278.99935 258.134318 
L 275.42815 257.800024 
L 271.85695 257.447776 
L 268.28575 257.076627 
L 264.71455 256.684688 
L 261.14335 256.270542 
L 257.57215 255.832771 
L 254.00095 255.368539 
L 250.42975 254.876903 
L 246.85855 254.354554 
L 243.28735 253.799131 
L 239.71615 253.207797 
L 236.14495 252.577718 
L 232.57375 251.904642 
L 229.00255 251.184788 
L 225.43135 250.413432 
L 221.86015 249.585376 
L 218.28895 248.694949 
L 214.71775 247.735538 
L 211.14655 246.699109 
L 207.57535 245.577158 
L 204.00415 244.359762 
L 200.43295 243.035108 
L 196.86175 241.589967 
L 193.29055 240.007801 
L 189.71935 238.270654 
L 186.14815 236.356321 
L 182.57695 234.238812 
L 179.00575 231.885998 
L 175.43455 229.260552 
L 171.86335 226.314751 
L 168.29215 222.991894 
L 164.72095 219.220163 
L 161.14975 214.908837 
L 157.57855 209.942153 
L 154.00735 204.169857 
L 150.43615 197.394443 
L 146.86495 189.351312 
L 143.29375 179.681836 
L 139.72255 167.891307 
L 136.15135 153.301688 
L 132.58015 135.012867 
L 129.00895 112.017001 
L 125.43775 83.961132 
L 121.86655 53.294701 
" style="fill:none;stroke:#1f77b4;stroke-linecap:square;"/>
   </g>
   <g id="line2d_23">
    <path clip-path="url(#p4f096d0574)" d="M 411.13375 261.581565 
L 407.56255 261.449028 
L 403.99135 261.31224 
L 400.42015 261.171198 
L 396.84895 261.02496 
L 393.27775 260.874468 
L 389.70655 260.71878 
L 386.13535 260.557421 
L 382.56415 260.390865 
L 378.99295 260.218166 
L 375.42175 260.039325 
L 371.85055 259.854341 
L 368.27935 259.66227 
L 364.70815 259.463111 
L 361.13695 259.256865 
L 357.56575 259.042586 
L 353.99455 258.820275 
L 350.42335 258.588986 
L 346.85215 258.349192 
L 343.28095 258.099003 
L 339.70975 257.839365 
L 336.13855 257.568386 
L 332.56735 257.28654 
L 328.99615 256.992408 
L 325.42495 256.685992 
L 321.85375 256.365873 
L 318.28255 256.03158 
L 314.71135 255.682166 
L 311.14015 255.316215 
L 307.56895 254.933726 
L 303.99775 254.53281 
L 300.42655 254.112521 
L 296.85535 253.671915 
L 293.28415 253.208628 
L 289.71295 252.721717 
L 286.14175 252.209763 
L 282.57055 251.669932 
L 278.99935 251.101278 
L 275.42815 250.50144 
L 271.85695 249.867108 
L 268.28575 249.196395 
L 264.71455 248.486463 
L 261.14335 247.733062 
L 257.57215 246.933828 
L 254.00095 246.083565 
L 250.42975 245.178018 
L 246.85855 244.212465 
L 243.28735 243.181233 
L 239.71615 242.07771 
L 236.14495 240.894806 
L 232.57375 239.624017 
L 229.00255 238.256366 
L 225.43135 236.781457 
L 221.86015 235.186533 
L 218.28895 233.45742 
L 214.71775 231.578523 
L 211.14655 229.530472 
L 207.57535 227.291531 
L 204.00415 224.83524 
L 200.43295 222.129941 
L 196.86175 219.140197 
L 193.29055 215.819703 
L 189.71935 212.116012 
L 186.14815 207.961556 
L 182.57695 203.275065 
L 179.00575 197.954006 
L 175.43455 191.868442 
L 171.86335 184.852998 
L 168.29215 176.693632 
L 164.72095 167.110151 
L 161.14975 155.735895 
L 157.57855 142.094583 
L 154.00735 125.596065 
L 150.43615 105.627033 
L 146.86495 81.98526 
L 143.29375 56.148251 
L 139.72255 32.252508 
" style="fill:none;stroke:#1f77b4;stroke-linecap:square;"/>
   </g>
   <g id="line2d_24">
    <path clip-path="url(#p4f096d0574)" d="M 411.13375 258.282693 
L 407.56255 258.076919 
L 403.99135 257.864058 
L 400.42015 257.644109 
L 396.84895 257.417073 
L 393.27775 257.182004 
L 389.70655 256.93843 
L 386.13535 256.686824 
L 382.56415 256.425768 
L 378.99295 256.155261 
L 375.42175 255.875305 
L 371.85055 255.584481 
L 368.27935 255.28279 
L 364.70815 254.969759 
L 361.13695 254.644915 
L 357.56575 254.306841 
L 353.99455 253.955065 
L 350.42335 253.589586 
L 346.85215 253.208988 
L 343.28095 252.812324 
L 339.70975 252.399123 
L 336.13855 251.967966 
L 332.56735 251.51791 
L 328.99615 251.048009 
L 325.42495 250.556845 
L 321.85375 250.043474 
L 318.28255 249.505533 
L 314.71135 248.942076 
L 311.14015 248.351688 
L 307.56895 247.732004 
L 303.99775 247.081135 
L 300.42655 246.396719 
L 296.85535 245.676393 
L 293.28415 244.917794 
L 289.71295 244.118088 
L 286.14175 243.273966 
L 282.57055 242.381178 
L 278.99935 241.436886 
L 275.42815 240.436368 
L 271.85695 239.374896 
L 268.28575 238.247275 
L 264.71455 237.047361 
L 261.14335 235.76854 
L 257.57215 234.403724 
L 254.00095 232.943935 
L 250.42975 231.380196 
L 246.85855 229.70164 
L 243.28735 227.895981 
L 239.71615 225.949045 
L 236.14495 223.845239 
L 232.57375 221.565663 
L 229.00255 219.088581 
L 225.43135 216.389425 
L 221.86015 213.437954 
L 218.28895 210.200148 
L 214.71775 206.633954 
L 211.14655 202.690233 
L 207.57535 198.308976 
L 204.00415 193.41742 
L 200.43295 187.925789 
L 196.86175 181.723518 
L 193.29055 174.672636 
L 189.71935 166.59832 
L 186.14815 157.280856 
L 182.57695 146.442415 
L 179.00575 133.735709 
L 175.43455 118.753443 
L 171.86335 101.092101 
L 168.29215 80.615605 
L 164.72095 58.209419 
L 161.14975 36.852891 
" style="fill:none;stroke:#1f77b4;stroke-linecap:square;"/>
   </g>
   <g id="line2d_25">
    <path clip-path="url(#p4f096d0574)" d="M 411.13375 254.14655 
L 407.56255 253.844387 
L 403.99135 253.5323 
L 400.42015 253.209347 
L 396.84895 252.87458 
L 393.27775 252.528002 
L 389.70655 252.169138 
L 386.13535 251.797044 
L 382.56415 251.411248 
L 378.99295 251.010804 
L 375.42175 250.59524 
L 371.85055 250.163612 
L 368.27935 249.714973 
L 364.70815 249.248379 
L 361.13695 248.762885 
L 357.56575 248.257547 
L 353.99455 247.730945 
L 350.42335 247.182137 
L 346.85215 246.609703 
L 343.28095 246.011754 
L 339.70975 245.387818 
L 336.13855 244.735059 
L 332.56735 244.05206 
L 328.99615 243.337404 
L 325.42495 242.588255 
L 321.85375 241.802724 
L 318.28255 240.978448 
L 314.71135 240.111647 
L 311.14015 239.20043 
L 307.56895 238.241019 
L 303.99775 237.229633 
L 300.42655 236.162492 
L 296.85535 235.035343 
L 293.28415 233.843462 
L 289.71295 232.580705 
L 286.14175 231.241404 
L 282.57055 229.819415 
L 278.99935 228.306707 
L 275.42815 226.695245 
L 271.85695 224.975109 
L 268.28575 223.136375 
L 264.71455 221.166759 
L 261.14335 219.05303 
L 257.57215 216.778652 
L 254.00095 214.327085 
L 250.42975 211.676597 
L 246.85855 208.804505 
L 243.28735 205.682462 
L 239.71615 202.278335 
L 236.14495 198.554799 
L 232.57375 194.46602 
L 229.00255 189.958607 
L 225.43135 184.96877 
L 221.86015 179.418549 
L 218.28895 173.21297 
L 214.71775 166.236744 
L 211.14655 158.347175 
L 207.57535 149.368494 
L 204.00415 139.084768 
L 200.43295 127.237067 
L 196.86175 113.530078 
L 193.29055 97.683137 
L 189.71935 79.594183 
L 186.14815 59.803757 
L 182.57695 40.359673 
" style="fill:none;stroke:#1f77b4;stroke-linecap:square;"/>
   </g>
   <g id="line2d_26">
    <path clip-path="url(#p4f096d0574)" d="M 411.13375 249.055958 
L 407.56255 248.629527 
L 403.99135 248.187976 
L 400.42015 247.729887 
L 396.84895 247.255733 
L 393.27775 246.763625 
L 389.70655 246.253088 
L 386.13535 245.722707 
L 382.56415 245.172008 
L 378.99295 244.599102 
L 375.42175 244.003988 
L 371.85055 243.384305 
L 368.27935 242.738633 
L 364.70815 242.066502 
L 361.13695 241.365076 
L 357.56575 240.63341 
L 353.99455 239.869613 
L 350.42335 239.071325 
L 346.85215 238.236181 
L 343.28095 237.362292 
L 339.70975 236.447296 
L 336.13855 235.487412 
L 332.56735 234.480278 
L 328.99615 233.422587 
L 325.42495 232.310086 
L 321.85375 231.139467 
L 318.28255 229.905533 
L 314.71135 228.604032 
L 311.14015 227.229293 
L 307.56895 225.775647 
L 303.99775 224.236478 
L 300.42655 222.604227 
L 296.85535 220.870388 
L 293.28415 219.026457 
L 289.71295 217.062038 
L 286.14175 214.96532 
L 282.57055 212.723071 
L 278.99935 210.321117 
L 275.42815 207.741976 
L 271.85695 204.966275 
L 268.28575 201.972751 
L 264.71455 198.734472 
L 261.14335 195.222616 
L 257.57215 191.40269 
L 254.00095 187.234058 
L 250.42975 182.668055 
L 246.85855 177.649396 
L 243.28735 172.10957 
L 239.71615 165.967778 
L 236.14495 159.12716 
L 232.57375 151.468643 
L 229.00255 142.850952 
L 225.43135 133.103041 
L 221.86015 122.025987 
L 218.28895 109.398661 
L 214.71775 95.016942 
L 211.14655 78.798616 
L 207.57535 61.080575 
L 204.00415 43.242518 
L 200.43295 28.075741 
" style="fill:none;stroke:#1f77b4;stroke-linecap:square;"/>
   </g>
   <g id="line2d_27">
    <path clip-path="url(#p4f096d0574)" d="M 411.13375 242.852629 
L 407.56255 242.265075 
L 403.99135 241.655314 
L 400.42015 241.0224 
L 396.84895 240.364916 
L 393.27775 239.681917 
L 389.70655 238.971514 
L 386.13535 238.23276 
L 382.56415 237.463294 
L 378.99295 236.66217 
L 375.42175 235.826554 
L 371.85055 234.955027 
L 368.27935 234.045229 
L 364.70815 233.094795 
L 361.13695 232.100891 
L 357.56575 231.060682 
L 353.99455 229.971334 
L 350.42335 228.829537 
L 346.85215 227.631041 
L 343.28095 226.372537 
L 339.70975 225.049301 
L 336.13855 223.656607 
L 332.56735 222.189259 
L 328.99615 220.641585 
L 325.42495 219.006499 
L 321.85375 217.277385 
L 318.28255 215.445739 
L 314.71135 213.503527 
L 311.14015 211.440356 
L 307.56895 209.245357 
L 303.99775 206.906246 
L 300.42655 204.408375 
L 296.85535 201.736151 
L 293.28415 198.872092 
L 289.71295 195.794936 
L 286.14175 192.481057 
L 282.57055 188.903524 
L 278.99935 185.030677 
L 275.42815 180.826609 
L 271.85695 176.24832 
L 268.28575 171.245726 
L 264.71455 165.760237 
L 261.14335 159.721451 
L 257.57215 153.047625 
L 254.00095 145.640006 
L 250.42975 137.381887 
L 246.85855 128.136244 
L 243.28735 117.746205 
L 239.71615 106.042616 
L 236.14495 92.869552 
L 232.57375 78.159446 
L 229.00255 62.125867 
L 225.43135 45.695861 
L 221.86015 31.070569 
" style="fill:none;stroke:#1f77b4;stroke-linecap:square;"/>
   </g>
   <g id="line2d_28">
    <path clip-path="url(#p4f096d0574)" d="M 411.13375 235.322519 
L 407.56255 234.524703 
L 403.99135 233.695229 
L 400.42015 232.832208 
L 396.84895 231.933749 
L 393.27775 230.998435 
L 389.70655 230.022959 
L 386.13535 229.005903 
L 382.56415 227.943959 
L 378.99295 226.834765 
L 375.42175 225.674541 
L 371.85055 224.460925 
L 368.27935 223.189664 
L 364.70815 221.85745 
L 361.13695 220.459086 
L 357.56575 218.99032 
L 353.99455 217.446426 
L 350.42335 215.82079 
L 346.85215 214.107741 
L 343.28095 212.300665 
L 339.70975 210.391056 
L 336.13855 208.371355 
L 332.56735 206.231166 
L 328.99615 203.96104 
L 325.42495 201.548691 
L 321.85375 198.980418 
L 318.28255 196.242044 
L 314.71135 193.31656 
L 311.14015 190.185066 
L 307.56895 186.825355 
L 303.99775 183.212856 
L 300.42655 179.318748 
L 296.85535 175.110899 
L 293.28415 170.551038 
L 289.71295 165.594276 
L 286.14175 160.190058 
L 282.57055 154.277901 
L 278.99935 147.786933 
L 275.42815 140.633991 
L 271.85695 132.72316 
L 268.28575 123.941511 
L 264.71455 114.164305 
L 261.14335 103.257824 
L 257.57215 91.09969 
L 254.00095 77.634149 
L 250.42975 62.996335 
L 246.85855 47.814201 
L 243.28735 33.734174 
" style="fill:none;stroke:#1f77b4;stroke-linecap:square;"/>
   </g>
   <g id="line2d_29">
    <path clip-path="url(#p4f096d0574)" d="M 411.13375 226.170317 
L 407.56255 225.095143 
L 403.99135 223.974609 
L 400.42015 222.805881 
L 396.84895 221.585649 
L 393.27775 220.310608 
L 389.70655 218.977449 
L 386.13535 217.582866 
L 382.56415 216.121659 
L 378.99295 214.589578 
L 375.42175 212.981897 
L 371.85055 211.292946 
L 368.27935 209.516582 
L 364.70815 207.646663 
L 361.13695 205.675157 
L 357.56575 203.594503 
L 353.99455 201.395724 
L 350.42335 199.068426 
L 346.85215 196.601739 
L 343.28095 193.983381 
L 339.70975 191.199174 
L 336.13855 188.234001 
L 332.56735 185.069432 
L 328.99615 181.686096 
L 325.42495 178.061312 
L 321.85375 174.169093 
L 318.28255 169.979672 
L 314.71135 165.459501 
L 311.14015 160.568889 
L 307.56895 155.262951 
L 303.99775 149.489237 
L 300.42655 143.186796 
L 296.85535 136.285224 
L 293.28415 128.703253 
L 289.71295 120.348744 
L 286.14175 111.119166 
L 282.57055 100.906787 
L 278.99935 89.615218 
L 275.42815 77.193902 
L 271.85695 63.731196 
L 268.28575 49.657074 
L 264.71455 36.165782 
" style="fill:none;stroke:#1f77b4;stroke-linecap:square;"/>
   </g>
   <g id="line2d_30">
    <path clip-path="url(#p4f096d0574)" d="M 411.13375 214.982585 
L 407.56255 213.535081 
L 403.99135 212.021427 
L 400.42015 210.436898 
L 396.84895 208.777242 
L 393.27775 207.036316 
L 389.70655 205.208922 
L 386.13535 203.288918 
L 382.56415 201.268745 
L 378.99295 199.140841 
L 375.42175 196.896702 
L 371.85055 194.527351 
L 368.27935 192.02192 
L 364.70815 189.369068 
L 361.13695 186.555095 
L 357.56575 183.566768 
L 353.99455 180.386607 
L 350.42335 176.996656 
L 346.85215 173.376597 
L 343.28095 169.502333 
L 339.70975 165.347405 
L 336.13855 160.881098 
L 332.56735 156.069395 
L 328.99615 150.871186 
L 325.42495 145.242057 
L 321.85375 139.128143 
L 318.28255 132.469437 
L 314.71135 125.197426 
L 311.14015 117.23462 
L 307.56895 108.496441 
L 303.99775 98.894532 
L 300.42655 88.349986 
L 296.85535 76.819805 
L 293.28415 64.359271 
L 289.71295 51.267477 
L 286.14175 38.401066 
L 282.57055 27.637043 
" style="fill:none;stroke:#1f77b4;stroke-linecap:square;"/>
   </g>
   <g id="line2d_31">
    <path clip-path="url(#p4f096d0574)" d="M 411.13375 201.16161 
L 407.56255 199.201444 
L 403.99135 197.14347 
L 400.42015 194.979656 
L 396.84895 192.702443 
L 393.27775 190.302851 
L 389.70655 187.77096 
L 386.13535 185.095901 
L 382.56415 182.26539 
L 378.99295 179.266196 
L 375.42175 176.083673 
L 371.85055 172.699864 
L 368.27935 169.096815 
L 364.70815 165.252791 
L 361.13695 161.143223 
L 357.56575 156.741649 
L 353.99455 152.01594 
L 350.42335 146.931604 
L 346.85215 141.448005 
L 343.28095 135.519311 
L 339.70975 129.093075 
L 336.13855 122.111179 
L 332.56735 114.507945 
L 328.99615 106.212026 
L 325.42495 97.15113 
L 321.85375 87.259106 
L 318.28255 76.497683 
L 314.71135 64.901824 
L 311.14015 52.68132 
L 307.56895 40.451366 
L 303.99775 29.676949 
" style="fill:none;stroke:#1f77b4;stroke-linecap:square;"/>
   </g>
   <g id="line2d_32">
    <path clip-path="url(#p4f096d0574)" d="M 411.13375 183.815313 
L 407.56255 181.127969 
L 403.99135 178.290843 
L 400.42015 175.291649 
L 396.84895 172.11574 
L 393.27775 168.748469 
L 389.70655 165.17188 
L 386.13535 161.366129 
L 382.56415 157.310425 
L 378.99295 152.979254 
L 375.42175 148.344738 
L 371.85055 143.376164 
L 368.27935 138.03715 
L 364.70815 132.288007 
L 361.13695 126.083373 
L 357.56575 119.372219 
L 353.99455 112.099263 
L 350.42335 104.204497 
L 346.85215 95.62555 
L 343.28095 86.308087 
L 339.70975 76.217613 
L 336.13855 65.374919 
L 332.56735 53.929315 
L 328.99615 42.324479 
L 325.42495 31.664407 
" style="fill:none;stroke:#1f77b4;stroke-linecap:square;"/>
   </g>
   <g id="line2d_33">
    <path clip-path="url(#p4f096d0574)" d="M 411.13375 161.558323 
L 407.56255 157.797932 
L 403.99135 153.800818 
L 400.42015 149.544302 
L 396.84895 145.003813 
L 393.27775 140.150529 
L 389.70655 134.953738 
L 386.13535 129.377529 
L 382.56415 123.382686 
L 378.99295 116.924792 
L 375.42175 109.955653 
L 371.85055 102.424712 
L 368.27935 94.279048 
L 364.70815 85.471412 
L 361.13695 75.971563 
L 357.56575 65.790842 
L 353.99455 55.036033 
L 350.42335 44.030799 
L 346.85215 33.592802 
" style="fill:none;stroke:#1f77b4;stroke-linecap:square;"/>
   </g>
   <g id="line2d_34">
    <path clip-path="url(#p4f096d0574)" d="M 411.13375 132.151936 
L 407.56255 126.741575 
L 403.99135 120.944709 
L 400.42015 114.723065 
L 396.84895 108.035064 
L 393.27775 100.835817 
L 389.70655 93.080911 
L 386.13535 84.729237 
L 382.56415 75.753864 
L 378.99295 66.159042 
L 375.42175 56.022736 
L 371.85055 45.58214 
L 368.27935 35.440872 
L 364.70815 27.05447 
" style="fill:none;stroke:#1f77b4;stroke-linecap:square;"/>
   </g>
   <g id="line2d_35">
    <path clip-path="url(#p4f096d0574)" d="M 411.13375 92.007514 
L 407.56255 84.066443 
L 403.99135 75.559789 
L 400.42015 66.487553 
L 396.84895 56.906434 
L 393.27775 46.992675 
L 389.70655 37.193498 
L 386.13535 28.623765 
" style="fill:none;stroke:#1f77b4;stroke-linecap:square;"/>
   </g>
   <g id="line2d_36">
    <path clip-path="url(#p4f096d0574)" d="M 411.13375 38.840519 
L 407.56255 30.228262 
" style="fill:none;stroke:#1f77b4;stroke-linecap:square;"/>
   </g>
   <g id="line2d_37"/>
   <g id="line2d_38"/>
   <g id="text_15">
    <!-- Love-wave -->
    <defs>
     <path d="M 9.8125 72.90625 
L 19.671875 72.90625 
L 19.671875 8.296875 
L 55.171875 8.296875 
L 55.171875 0 
L 9.8125 0 
z
" id="DejaVuSans-76"/>
     <path d="M 4.890625 31.390625 
L 31.203125 31.390625 
L 31.203125 23.390625 
L 4.890625 23.390625 
z
" id="DejaVuSans-45"/>
     <path d="M 4.203125 54.6875 
L 13.1875 54.6875 
L 24.421875 12.015625 
L 35.59375 54.6875 
L 46.1875 54.6875 
L 57.421875 12.015625 
L 68.609375 54.6875 
L 77.59375 54.6875 
L 63.28125 0 
L 52.6875 0 
L 40.921875 44.828125 
L 29.109375 0 
L 18.5 0 
z
" id="DejaVuSans-119"/>
    </defs>
    <g style="fill:#969696;" transform="translate(187.572063 19.965375)scale(0.168 -0.168)">
     <use xlink:href="#DejaVuSans-76"/>
     <use x="53.962891" xlink:href="#DejaVuSans-111"/>
     <use x="115.144531" xlink:href="#DejaVuSans-118"/>
     <use x="174.324219" xlink:href="#DejaVuSans-101"/>
     <use x="235.847656" xlink:href="#DejaVuSans-45"/>
     <use x="271.931641" xlink:href="#DejaVuSans-119"/>
     <use x="353.71875" xlink:href="#DejaVuSans-97"/>
     <use x="414.998047" xlink:href="#DejaVuSans-118"/>
     <use x="474.177734" xlink:href="#DejaVuSans-101"/>
    </g>
   </g>
  </g>
 </g>
 <defs>
  <clipPath id="p4f096d0574">
   <rect height="266.112" width="357.12" x="54.01375" y="25.965375"/>
  </clipPath>
 </defs>
</svg>
